<?xml version="1.0"?>
<svg xmlns="http://www.w3.org/2000/svg" width="500" height="420" version="1.0" id="ezcGraph"><defs/><g id="ezcGraphChart" color-rendering="optimizeQuality" shape-rendering="geometricPrecision" text-rendering="optimizeLegibility"><path d=" M 0.0000,420.0000 L 0.0000,0.0000 L 500.0000,0.0000 L 500.0000,420.0000 L 0.0000,420.0000 z " style="fill: #eeeeec; fill-opacity: 1.00; stroke: none;" id="ezcGraphPolygon_1"/><path d=" M 0.0000,42.0000 L 0.0000,0.0000 L 500.0000,0.0000 L 500.0000,42.0000 L 0.0000,42.0000 z " style="fill: #000000; fill-opacity: 0.00; stroke: none;" id="ezcGraphPolygon_2"/><path d=" M 0.0000,420.0000 L 0.0000,42.0000 L 100.0000,42.0000 L 100.0000,420.0000 L 0.0000,420.0000 z " style="fill: #000000; fill-opacity: 0.00; stroke: none;" id="ezcGraphPolygon_4"/><path d=" M 2.0000,58.0000 L 2.0000,44.0000 L 16.0000,44.0000 L 16.0000,58.0000 L 2.0000,58.0000 z " style="fill: #3465a4; fill-opacity: 1.00; stroke: none; cursor: pointer;" id="ezcGraphPolygon_5" onclick="top.location = 'https://linux-hardware.org/?view=computers&amp;f=storage_vendor&amp;v=Intel&amp;p=99'"/><path d=" M 2.0000,76.0000 L 2.0000,62.0000 L 16.0000,62.0000 L 16.0000,76.0000 L 2.0000,76.0000 z " style="fill: #4e9a06; fill-opacity: 1.00; stroke: none; cursor: pointer;" id="ezcGraphPolygon_7" onclick="top.location = 'https://linux-hardware.org/?view=computers&amp;f=storage_vendor&amp;v=VMware&amp;p=99'"/><path d=" M 2.0000,94.0000 L 2.0000,80.0000 L 16.0000,80.0000 L 16.0000,94.0000 L 2.0000,94.0000 z " style="fill: #cc0000; fill-opacity: 1.00; stroke: none; cursor: pointer;" id="ezcGraphPolygon_9" onclick="top.location = 'https://linux-hardware.org/?view=computers&amp;f=storage_vendor&amp;v=LSI+Logic+%2F+Symbios+Logic&amp;p=99'"/><path d=" M 2.0000,112.0000 L 2.0000,98.0000 L 16.0000,98.0000 L 16.0000,112.0000 L 2.0000,112.0000 z " style="fill: #edd400; fill-opacity: 1.00; stroke: none; cursor: pointer;" id="ezcGraphPolygon_11" onclick="top.location = 'https://linux-hardware.org/?view=computers&amp;f=storage_vendor&amp;v=Red+Hat&amp;p=99'"/><path d=" M 2.0000,130.0000 L 2.0000,116.0000 L 16.0000,116.0000 L 16.0000,130.0000 L 2.0000,130.0000 z " style="fill: #75505b; fill-opacity: 1.00; stroke: none;" id="ezcGraphPolygon_13"/><path d=" M 100.0000,382.2000 L 500.0000,382.2000" style="fill: none; stroke: #2e3436; stroke-width: 1; stroke-opacity: 1.00; stroke-linecap: round; stroke-linejoin: round;" id="ezcGraphLine_15"/><path d=" M 492.0000,378.2000 L 500.0000,382.2000 L 492.0000,386.2000 L 492.0000,378.2000 z " style="fill: #2e3436; fill-opacity: 1.00; stroke: none;" id="ezcGraphPolygon_16"/><path d=" M 185.7143,79.8000 L 185.7143,382.2000" style="fill: none; stroke: #000000; stroke-width: 1; stroke-opacity: 0.00; stroke-linecap: round; stroke-linejoin: round;" id="ezcGraphLine_19"/><path d=" M 185.7143,379.2000 L 185.7143,385.2000" style="fill: none; stroke: #2e3436; stroke-width: 1; stroke-opacity: 1.00; stroke-linecap: round; stroke-linejoin: round;" id="ezcGraphLine_20"/><path d=" M 231.4286,79.8000 L 231.4286,382.2000" style="fill: none; stroke: #000000; stroke-width: 1; stroke-opacity: 0.00; stroke-linecap: round; stroke-linejoin: round;" id="ezcGraphLine_22"/><path d=" M 231.4286,379.2000 L 231.4286,385.2000" style="fill: none; stroke: #2e3436; stroke-width: 1; stroke-opacity: 1.00; stroke-linecap: round; stroke-linejoin: round;" id="ezcGraphLine_23"/><path d=" M 277.1429,79.8000 L 277.1429,382.2000" style="fill: none; stroke: #000000; stroke-width: 1; stroke-opacity: 0.00; stroke-linecap: round; stroke-linejoin: round;" id="ezcGraphLine_25"/><path d=" M 277.1429,379.2000 L 277.1429,385.2000" style="fill: none; stroke: #2e3436; stroke-width: 1; stroke-opacity: 1.00; stroke-linecap: round; stroke-linejoin: round;" id="ezcGraphLine_26"/><path d=" M 322.8571,79.8000 L 322.8571,382.2000" style="fill: none; stroke: #000000; stroke-width: 1; stroke-opacity: 0.00; stroke-linecap: round; stroke-linejoin: round;" id="ezcGraphLine_28"/><path d=" M 322.8571,379.2000 L 322.8571,385.2000" style="fill: none; stroke: #2e3436; stroke-width: 1; stroke-opacity: 1.00; stroke-linecap: round; stroke-linejoin: round;" id="ezcGraphLine_29"/><path d=" M 368.5714,79.8000 L 368.5714,382.2000" style="fill: none; stroke: #000000; stroke-width: 1; stroke-opacity: 0.00; stroke-linecap: round; stroke-linejoin: round;" id="ezcGraphLine_31"/><path d=" M 368.5714,379.2000 L 368.5714,385.2000" style="fill: none; stroke: #2e3436; stroke-width: 1; stroke-opacity: 1.00; stroke-linecap: round; stroke-linejoin: round;" id="ezcGraphLine_32"/><path d=" M 414.2857,79.8000 L 414.2857,382.2000" style="fill: none; stroke: #000000; stroke-width: 1; stroke-opacity: 0.00; stroke-linecap: round; stroke-linejoin: round;" id="ezcGraphLine_34"/><path d=" M 414.2857,379.2000 L 414.2857,385.2000" style="fill: none; stroke: #2e3436; stroke-width: 1; stroke-opacity: 1.00; stroke-linecap: round; stroke-linejoin: round;" id="ezcGraphLine_35"/><path d=" M 460.0000,79.8000 L 460.0000,382.2000" style="fill: none; stroke: #000000; stroke-width: 1; stroke-opacity: 0.00; stroke-linecap: round; stroke-linejoin: round;" id="ezcGraphLine_37"/><path d=" M 460.0000,379.2000 L 460.0000,385.2000" style="fill: none; stroke: #2e3436; stroke-width: 1; stroke-opacity: 1.00; stroke-linecap: round; stroke-linejoin: round;" id="ezcGraphLine_38"/><path d=" M 140.0000,420.0000 L 140.0000,42.0000" style="fill: none; stroke: #2e3436; stroke-width: 1; stroke-opacity: 1.00; stroke-linecap: round; stroke-linejoin: round;" id="ezcGraphLine_39"/><path d=" M 136.0000,50.0000 L 140.0000,42.0000 L 144.0000,50.0000 L 136.0000,50.0000 z " style="fill: #2e3436; fill-opacity: 1.00; stroke: none;" id="ezcGraphPolygon_40"/><path d=" M 140.0000,231.0000 L 460.0000,231.0000" style="fill: none; stroke: #000000; stroke-width: 1; stroke-opacity: 0.00; stroke-linecap: round; stroke-linejoin: round;" id="ezcGraphLine_43"/><path d=" M 140.0000,231.0000 L 143.0000,231.0000" style="fill: none; stroke: #2e3436; stroke-width: 1; stroke-opacity: 1.00; stroke-linecap: round; stroke-linejoin: round;" id="ezcGraphLine_44"/><path d=" M 140.0000,79.8000 L 460.0000,79.8000" style="fill: none; stroke: #000000; stroke-width: 1; stroke-opacity: 0.00; stroke-linecap: round; stroke-linejoin: round;" id="ezcGraphLine_46"/><path d=" M 140.0000,79.8000 L 143.0000,79.8000" style="fill: none; stroke: #2e3436; stroke-width: 1; stroke-opacity: 1.00; stroke-linecap: round; stroke-linejoin: round;" id="ezcGraphLine_47"/><path d=" M 162.8571,192.5952 L 162.8571,192.5952" style="fill: none; stroke: #3465a4; stroke-width: 1; stroke-opacity: 1.00; stroke-linecap: round; stroke-linejoin: round;" id="ezcGraphLine_49"/><path d=" M 162.8571,192.5952 L 208.5714,202.2720" style="fill: none; stroke: #3465a4; stroke-width: 1; stroke-opacity: 1.00; stroke-linecap: round; stroke-linejoin: round;" id="ezcGraphLine_51"/><path d=" M 208.5714,202.2720 L 254.2857,200.7600" style="fill: none; stroke: #3465a4; stroke-width: 1; stroke-opacity: 1.00; stroke-linecap: round; stroke-linejoin: round;" id="ezcGraphLine_53"/><path d=" M 254.2857,200.7600 L 300.0000,202.2720" style="fill: none; stroke: #3465a4; stroke-width: 1; stroke-opacity: 1.00; stroke-linecap: round; stroke-linejoin: round;" id="ezcGraphLine_55"/><path d=" M 300.0000,202.2720 L 345.7143,237.0480" style="fill: none; stroke: #3465a4; stroke-width: 1; stroke-opacity: 1.00; stroke-linecap: round; stroke-linejoin: round;" id="ezcGraphLine_57"/><path d=" M 345.7143,237.0480 L 391.4286,256.0992" style="fill: none; stroke: #3465a4; stroke-width: 1; stroke-opacity: 1.00; stroke-linecap: round; stroke-linejoin: round;" id="ezcGraphLine_59"/><path d=" M 391.4286,256.0992 L 437.1429,234.0240" style="fill: none; stroke: #3465a4; stroke-width: 1; stroke-opacity: 1.00; stroke-linecap: round; stroke-linejoin: round;" id="ezcGraphLine_61"/><path d=" M 162.8571,334.7232 L 162.8571,334.7232" style="fill: none; stroke: #4e9a06; stroke-width: 1; stroke-opacity: 1.00; stroke-linecap: round; stroke-linejoin: round;" id="ezcGraphLine_63"/><path d=" M 162.8571,334.7232 L 208.5714,324.7440" style="fill: none; stroke: #4e9a06; stroke-width: 1; stroke-opacity: 1.00; stroke-linecap: round; stroke-linejoin: round;" id="ezcGraphLine_65"/><path d=" M 208.5714,324.7440 L 254.2857,336.8400" style="fill: none; stroke: #4e9a06; stroke-width: 1; stroke-opacity: 1.00; stroke-linecap: round; stroke-linejoin: round;" id="ezcGraphLine_67"/><path d=" M 254.2857,336.8400 L 300.0000,333.2112" style="fill: none; stroke: #4e9a06; stroke-width: 1; stroke-opacity: 1.00; stroke-linecap: round; stroke-linejoin: round;" id="ezcGraphLine_69"/><path d=" M 300.0000,333.2112 L 345.7143,321.7200" style="fill: none; stroke: #4e9a06; stroke-width: 1; stroke-opacity: 1.00; stroke-linecap: round; stroke-linejoin: round;" id="ezcGraphLine_71"/><path d=" M 345.7143,321.7200 L 391.4286,319.3008" style="fill: none; stroke: #4e9a06; stroke-width: 1; stroke-opacity: 1.00; stroke-linecap: round; stroke-linejoin: round;" id="ezcGraphLine_73"/><path d=" M 391.4286,319.3008 L 437.1429,320.5104" style="fill: none; stroke: #4e9a06; stroke-width: 1; stroke-opacity: 1.00; stroke-linecap: round; stroke-linejoin: round;" id="ezcGraphLine_75"/><path d=" M 162.8571,334.7232 L 162.8571,334.7232" style="fill: none; stroke: #cc0000; stroke-width: 1; stroke-opacity: 1.00; stroke-linecap: round; stroke-linejoin: round;" id="ezcGraphLine_77"/><path d=" M 162.8571,334.7232 L 208.5714,324.7440" style="fill: none; stroke: #cc0000; stroke-width: 1; stroke-opacity: 1.00; stroke-linecap: round; stroke-linejoin: round;" id="ezcGraphLine_79"/><path d=" M 208.5714,324.7440 L 254.2857,336.8400" style="fill: none; stroke: #cc0000; stroke-width: 1; stroke-opacity: 1.00; stroke-linecap: round; stroke-linejoin: round;" id="ezcGraphLine_81"/><path d=" M 254.2857,336.8400 L 300.0000,333.2112" style="fill: none; stroke: #cc0000; stroke-width: 1; stroke-opacity: 1.00; stroke-linecap: round; stroke-linejoin: round;" id="ezcGraphLine_83"/><path d=" M 300.0000,333.2112 L 345.7143,315.6720" style="fill: none; stroke: #cc0000; stroke-width: 1; stroke-opacity: 1.00; stroke-linecap: round; stroke-linejoin: round;" id="ezcGraphLine_85"/><path d=" M 345.7143,315.6720 L 391.4286,312.9504" style="fill: none; stroke: #cc0000; stroke-width: 1; stroke-opacity: 1.00; stroke-linecap: round; stroke-linejoin: round;" id="ezcGraphLine_87"/><path d=" M 391.4286,312.9504 L 437.1429,326.5584" style="fill: none; stroke: #cc0000; stroke-width: 1; stroke-opacity: 1.00; stroke-linecap: round; stroke-linejoin: round;" id="ezcGraphLine_89"/><path d=" M 162.8571,364.3584 L 162.8571,364.3584" style="fill: none; stroke: #edd400; stroke-width: 1; stroke-opacity: 1.00; stroke-linecap: round; stroke-linejoin: round;" id="ezcGraphLine_91"/><path d=" M 162.8571,364.3584 L 208.5714,374.9424" style="fill: none; stroke: #edd400; stroke-width: 1; stroke-opacity: 1.00; stroke-linecap: round; stroke-linejoin: round;" id="ezcGraphLine_93"/><path d=" M 208.5714,374.9424 L 254.2857,367.0800" style="fill: none; stroke: #edd400; stroke-width: 1; stroke-opacity: 1.00; stroke-linecap: round; stroke-linejoin: round;" id="ezcGraphLine_95"/><path d=" M 254.2857,367.0800 L 300.0000,357.7056" style="fill: none; stroke: #edd400; stroke-width: 1; stroke-opacity: 1.00; stroke-linecap: round; stroke-linejoin: round;" id="ezcGraphLine_97"/><path d=" M 300.0000,357.7056 L 345.7143,351.9600" style="fill: none; stroke: #edd400; stroke-width: 1; stroke-opacity: 1.00; stroke-linecap: round; stroke-linejoin: round;" id="ezcGraphLine_99"/><path d=" M 345.7143,351.9600 L 391.4286,338.0496" style="fill: none; stroke: #edd400; stroke-width: 1; stroke-opacity: 1.00; stroke-linecap: round; stroke-linejoin: round;" id="ezcGraphLine_101"/><path d=" M 391.4286,338.0496 L 437.1429,345.3072" style="fill: none; stroke: #edd400; stroke-width: 1; stroke-opacity: 1.00; stroke-linecap: round; stroke-linejoin: round;" id="ezcGraphLine_103"/><path d=" M 254.2857,367.0800 L 254.2857,367.0800" style="fill: none; stroke: #75505b; stroke-width: 1; stroke-opacity: 1.00; stroke-linecap: round; stroke-linejoin: round;" id="ezcGraphLine_105"/><path d=" M 159.8571,195.5952 L 159.8571,189.5952 L 165.8571,189.5952 L 165.8571,195.5952 L 159.8571,195.5952 z " style="fill: #3465a4; fill-opacity: 1.00; stroke: none; cursor: pointer;" id="ezcGraphPolygon_107" onclick="top.location = 'https://linux-hardware.org/?view=computers&amp;f=storage_vendor&amp;v=Intel&amp;p=99&amp;p=87'"/><path d=" M 205.5714,205.2720 L 205.5714,199.2720 L 211.5714,199.2720 L 211.5714,205.2720 L 205.5714,205.2720 z " style="fill: #3465a4; fill-opacity: 1.00; stroke: none; cursor: pointer;" id="ezcGraphPolygon_108" onclick="top.location = 'https://linux-hardware.org/?view=computers&amp;f=storage_vendor&amp;v=Intel&amp;p=99&amp;p=89'"/><path d=" M 251.2857,203.7600 L 251.2857,197.7600 L 257.2857,197.7600 L 257.2857,203.7600 L 251.2857,203.7600 z " style="fill: #3465a4; fill-opacity: 1.00; stroke: none; cursor: pointer;" id="ezcGraphPolygon_109" onclick="top.location = 'https://linux-hardware.org/?view=computers&amp;f=storage_vendor&amp;v=Intel&amp;p=99&amp;p=91'"/><path d=" M 297.0000,205.2720 L 297.0000,199.2720 L 303.0000,199.2720 L 303.0000,205.2720 L 297.0000,205.2720 z " style="fill: #3465a4; fill-opacity: 1.00; stroke: none; cursor: pointer;" id="ezcGraphPolygon_110" onclick="top.location = 'https://linux-hardware.org/?view=computers&amp;f=storage_vendor&amp;v=Intel&amp;p=99&amp;p=93'"/><path d=" M 342.7143,240.0480 L 342.7143,234.0480 L 348.7143,234.0480 L 348.7143,240.0480 L 342.7143,240.0480 z " style="fill: #3465a4; fill-opacity: 1.00; stroke: none; cursor: pointer;" id="ezcGraphPolygon_111" onclick="top.location = 'https://linux-hardware.org/?view=computers&amp;f=storage_vendor&amp;v=Intel&amp;p=99&amp;p=95'"/><path d=" M 388.4286,259.0992 L 388.4286,253.0992 L 394.4286,253.0992 L 394.4286,259.0992 L 388.4286,259.0992 z " style="fill: #3465a4; fill-opacity: 1.00; stroke: none; cursor: pointer;" id="ezcGraphPolygon_112" onclick="top.location = 'https://linux-hardware.org/?view=computers&amp;f=storage_vendor&amp;v=Intel&amp;p=99&amp;p=97'"/><path d=" M 434.1429,237.0240 L 434.1429,231.0240 L 440.1429,231.0240 L 440.1429,237.0240 L 434.1429,237.0240 z " style="fill: #3465a4; fill-opacity: 1.00; stroke: none; cursor: pointer;" id="ezcGraphPolygon_113" onclick="top.location = 'https://linux-hardware.org/?view=computers&amp;f=storage_vendor&amp;v=Intel&amp;p=99&amp;p=99'"/><path d=" M 159.8571,337.7232 L 159.8571,331.7232 L 165.8571,331.7232 L 165.8571,337.7232 L 159.8571,337.7232 z " style="fill: #4e9a06; fill-opacity: 1.00; stroke: none; cursor: pointer;" id="ezcGraphPolygon_114" onclick="top.location = 'https://linux-hardware.org/?view=computers&amp;f=storage_vendor&amp;v=VMware&amp;p=99&amp;p=87'"/><path d=" M 205.5714,327.7440 L 205.5714,321.7440 L 211.5714,321.7440 L 211.5714,327.7440 L 205.5714,327.7440 z " style="fill: #4e9a06; fill-opacity: 1.00; stroke: none; cursor: pointer;" id="ezcGraphPolygon_115" onclick="top.location = 'https://linux-hardware.org/?view=computers&amp;f=storage_vendor&amp;v=VMware&amp;p=99&amp;p=89'"/><path d=" M 251.2857,339.8400 L 251.2857,333.8400 L 257.2857,333.8400 L 257.2857,339.8400 L 251.2857,339.8400 z " style="fill: #4e9a06; fill-opacity: 1.00; stroke: none; cursor: pointer;" id="ezcGraphPolygon_116" onclick="top.location = 'https://linux-hardware.org/?view=computers&amp;f=storage_vendor&amp;v=VMware&amp;p=99&amp;p=91'"/><path d=" M 297.0000,336.2112 L 297.0000,330.2112 L 303.0000,330.2112 L 303.0000,336.2112 L 297.0000,336.2112 z " style="fill: #4e9a06; fill-opacity: 1.00; stroke: none; cursor: pointer;" id="ezcGraphPolygon_117" onclick="top.location = 'https://linux-hardware.org/?view=computers&amp;f=storage_vendor&amp;v=VMware&amp;p=99&amp;p=93'"/><path d=" M 342.7143,324.7200 L 342.7143,318.7200 L 348.7143,318.7200 L 348.7143,324.7200 L 342.7143,324.7200 z " style="fill: #4e9a06; fill-opacity: 1.00; stroke: none; cursor: pointer;" id="ezcGraphPolygon_118" onclick="top.location = 'https://linux-hardware.org/?view=computers&amp;f=storage_vendor&amp;v=VMware&amp;p=99&amp;p=95'"/><path d=" M 388.4286,322.3008 L 388.4286,316.3008 L 394.4286,316.3008 L 394.4286,322.3008 L 388.4286,322.3008 z " style="fill: #4e9a06; fill-opacity: 1.00; stroke: none; cursor: pointer;" id="ezcGraphPolygon_119" onclick="top.location = 'https://linux-hardware.org/?view=computers&amp;f=storage_vendor&amp;v=VMware&amp;p=99&amp;p=97'"/><path d=" M 434.1429,323.5104 L 434.1429,317.5104 L 440.1429,317.5104 L 440.1429,323.5104 L 434.1429,323.5104 z " style="fill: #4e9a06; fill-opacity: 1.00; stroke: none; cursor: pointer;" id="ezcGraphPolygon_120" onclick="top.location = 'https://linux-hardware.org/?view=computers&amp;f=storage_vendor&amp;v=VMware&amp;p=99&amp;p=99'"/><path d=" M 159.8571,337.7232 L 159.8571,331.7232 L 165.8571,331.7232 L 165.8571,337.7232 L 159.8571,337.7232 z " style="fill: #cc0000; fill-opacity: 1.00; stroke: none; cursor: pointer;" id="ezcGraphPolygon_121" onclick="top.location = 'https://linux-hardware.org/?view=computers&amp;f=storage_vendor&amp;v=LSI+Logic+%2F+Symbios+Logic&amp;p=99&amp;p=87'"/><path d=" M 205.5714,327.7440 L 205.5714,321.7440 L 211.5714,321.7440 L 211.5714,327.7440 L 205.5714,327.7440 z " style="fill: #cc0000; fill-opacity: 1.00; stroke: none; cursor: pointer;" id="ezcGraphPolygon_122" onclick="top.location = 'https://linux-hardware.org/?view=computers&amp;f=storage_vendor&amp;v=LSI+Logic+%2F+Symbios+Logic&amp;p=99&amp;p=89'"/><path d=" M 251.2857,339.8400 L 251.2857,333.8400 L 257.2857,333.8400 L 257.2857,339.8400 L 251.2857,339.8400 z " style="fill: #cc0000; fill-opacity: 1.00; stroke: none; cursor: pointer;" id="ezcGraphPolygon_123" onclick="top.location = 'https://linux-hardware.org/?view=computers&amp;f=storage_vendor&amp;v=LSI+Logic+%2F+Symbios+Logic&amp;p=99&amp;p=91'"/><path d=" M 297.0000,336.2112 L 297.0000,330.2112 L 303.0000,330.2112 L 303.0000,336.2112 L 297.0000,336.2112 z " style="fill: #cc0000; fill-opacity: 1.00; stroke: none; cursor: pointer;" id="ezcGraphPolygon_124" onclick="top.location = 'https://linux-hardware.org/?view=computers&amp;f=storage_vendor&amp;v=LSI+Logic+%2F+Symbios+Logic&amp;p=99&amp;p=93'"/><path d=" M 342.7143,318.6720 L 342.7143,312.6720 L 348.7143,312.6720 L 348.7143,318.6720 L 342.7143,318.6720 z " style="fill: #cc0000; fill-opacity: 1.00; stroke: none; cursor: pointer;" id="ezcGraphPolygon_125" onclick="top.location = 'https://linux-hardware.org/?view=computers&amp;f=storage_vendor&amp;v=LSI+Logic+%2F+Symbios+Logic&amp;p=99&amp;p=95'"/><path d=" M 388.4286,315.9504 L 388.4286,309.9504 L 394.4286,309.9504 L 394.4286,315.9504 L 388.4286,315.9504 z " style="fill: #cc0000; fill-opacity: 1.00; stroke: none; cursor: pointer;" id="ezcGraphPolygon_126" onclick="top.location = 'https://linux-hardware.org/?view=computers&amp;f=storage_vendor&amp;v=LSI+Logic+%2F+Symbios+Logic&amp;p=99&amp;p=97'"/><path d=" M 434.1429,329.5584 L 434.1429,323.5584 L 440.1429,323.5584 L 440.1429,329.5584 L 434.1429,329.5584 z " style="fill: #cc0000; fill-opacity: 1.00; stroke: none; cursor: pointer;" id="ezcGraphPolygon_127" onclick="top.location = 'https://linux-hardware.org/?view=computers&amp;f=storage_vendor&amp;v=LSI+Logic+%2F+Symbios+Logic&amp;p=99&amp;p=99'"/><path d=" M 159.8571,367.3584 L 159.8571,361.3584 L 165.8571,361.3584 L 165.8571,367.3584 L 159.8571,367.3584 z " style="fill: #edd400; fill-opacity: 1.00; stroke: none; cursor: pointer;" id="ezcGraphPolygon_128" onclick="top.location = 'https://linux-hardware.org/?view=computers&amp;f=storage_vendor&amp;v=Red+Hat&amp;p=99&amp;p=87'"/><path d=" M 205.5714,377.9424 L 205.5714,371.9424 L 211.5714,371.9424 L 211.5714,377.9424 L 205.5714,377.9424 z " style="fill: #edd400; fill-opacity: 1.00; stroke: none; cursor: pointer;" id="ezcGraphPolygon_129" onclick="top.location = 'https://linux-hardware.org/?view=computers&amp;f=storage_vendor&amp;v=Red+Hat&amp;p=99&amp;p=89'"/><path d=" M 251.2857,370.0800 L 251.2857,364.0800 L 257.2857,364.0800 L 257.2857,370.0800 L 251.2857,370.0800 z " style="fill: #edd400; fill-opacity: 1.00; stroke: none; cursor: pointer;" id="ezcGraphPolygon_130" onclick="top.location = 'https://linux-hardware.org/?view=computers&amp;f=storage_vendor&amp;v=Red+Hat&amp;p=99&amp;p=91'"/><path d=" M 297.0000,360.7056 L 297.0000,354.7056 L 303.0000,354.7056 L 303.0000,360.7056 L 297.0000,360.7056 z " style="fill: #edd400; fill-opacity: 1.00; stroke: none; cursor: pointer;" id="ezcGraphPolygon_131" onclick="top.location = 'https://linux-hardware.org/?view=computers&amp;f=storage_vendor&amp;v=Red+Hat&amp;p=99&amp;p=93'"/><path d=" M 342.7143,354.9600 L 342.7143,348.9600 L 348.7143,348.9600 L 348.7143,354.9600 L 342.7143,354.9600 z " style="fill: #edd400; fill-opacity: 1.00; stroke: none; cursor: pointer;" id="ezcGraphPolygon_132" onclick="top.location = 'https://linux-hardware.org/?view=computers&amp;f=storage_vendor&amp;v=Red+Hat&amp;p=99&amp;p=95'"/><path d=" M 388.4286,341.0496 L 388.4286,335.0496 L 394.4286,335.0496 L 394.4286,341.0496 L 388.4286,341.0496 z " style="fill: #edd400; fill-opacity: 1.00; stroke: none; cursor: pointer;" id="ezcGraphPolygon_133" onclick="top.location = 'https://linux-hardware.org/?view=computers&amp;f=storage_vendor&amp;v=Red+Hat&amp;p=99&amp;p=97'"/><path d=" M 434.1429,348.3072 L 434.1429,342.3072 L 440.1429,342.3072 L 440.1429,348.3072 L 434.1429,348.3072 z " style="fill: #edd400; fill-opacity: 1.00; stroke: none; cursor: pointer;" id="ezcGraphPolygon_134" onclick="top.location = 'https://linux-hardware.org/?view=computers&amp;f=storage_vendor&amp;v=Red+Hat&amp;p=99&amp;p=99'"/><path d=" M 251.2857,370.0800 L 251.2857,364.0800 L 257.2857,364.0800 L 257.2857,370.0800 L 251.2857,370.0800 z " style="fill: #75505b; fill-opacity: 1.00; stroke: none;" id="ezcGraphPolygon_135"/><g id="ezcGraphTextBox_3"><path d=" M 101.1000,42.0000 L 101.1000,0.5000 L 399.4000,0.5000 L 399.4000,42.0000 L 101.1000,42.0000 z " style="fill: #ffffff; fill-opacity: 0.00; stroke: none;" id="ezcGraphPolygon_136"/><text id="ezcGraphTextBox_3_text" x="101.6000" text-length="296.8000px" y="35.0000" style="font-size: 40px; font-family: 'Arial'; fill: #2e3436; fill-opacity: 1.00; stroke: none;">Storage Vendor</text></g><g id="ezcGraphTextBox_6" style=" cursor: pointer;" onclick="top.location = 'https://linux-hardware.org/?view=computers&amp;f=storage_vendor&amp;v=Intel&amp;p=99'"><path d=" M 16.5000,56.5000 L 16.5000,46.0000 L 41.8500,46.0000 L 41.8500,56.5000 L 16.5000,56.5000 z " style="fill: #ffffff; fill-opacity: 0.00; stroke: none;" id="ezcGraphPolygon_137"/><text id="ezcGraphTextBox_6_text" x="17.0000" text-length="23.8500px" y="54.1500" style="font-size: 9px; font-family: 'Arial'; fill: #2e3436; fill-opacity: 1.00; stroke: none;">Intel</text></g><g id="ezcGraphTextBox_8" style=" cursor: pointer;" onclick="top.location = 'https://linux-hardware.org/?view=computers&amp;f=storage_vendor&amp;v=VMware&amp;p=99'"><path d=" M 16.5000,74.5000 L 16.5000,64.0000 L 46.6200,64.0000 L 46.6200,74.5000 L 16.5000,74.5000 z " style="fill: #ffffff; fill-opacity: 0.00; stroke: none;" id="ezcGraphPolygon_138"/><text id="ezcGraphTextBox_8_text" x="17.0000" text-length="28.6200px" y="72.1500" style="font-size: 9px; font-family: 'Arial'; fill: #2e3436; fill-opacity: 1.00; stroke: none;">VMware</text></g><g id="ezcGraphTextBox_10" style=" cursor: pointer;" onclick="top.location = 'https://linux-hardware.org/?view=computers&amp;f=storage_vendor&amp;v=LSI+Logic+%2F+Symbios+Logic&amp;p=99'"><path d=" M 16.5000,92.5000 L 16.5000,82.0000 L 94.3200,82.0000 L 94.3200,92.5000 L 16.5000,92.5000 z " style="fill: #ffffff; fill-opacity: 0.00; stroke: none;" id="ezcGraphPolygon_139"/><text id="ezcGraphTextBox_10_text" x="17.0000" text-length="76.3200px" y="90.1500" style="font-size: 9px; font-family: 'Arial'; fill: #2e3436; fill-opacity: 1.00; stroke: none;">LSI Logic / S...</text></g><g id="ezcGraphTextBox_12" style=" cursor: pointer;" onclick="top.location = 'https://linux-hardware.org/?view=computers&amp;f=storage_vendor&amp;v=Red+Hat&amp;p=99'"><path d=" M 16.5000,110.5000 L 16.5000,100.0000 L 51.3900,100.0000 L 51.3900,110.5000 L 16.5000,110.5000 z " style="fill: #ffffff; fill-opacity: 0.00; stroke: none;" id="ezcGraphPolygon_140"/><text id="ezcGraphTextBox_12_text" x="17.0000" text-length="33.3900px" y="108.1500" style="font-size: 9px; font-family: 'Arial'; fill: #2e3436; fill-opacity: 1.00; stroke: none;">Red Hat</text></g><g id="ezcGraphTextBox_14"><path d=" M 16.5000,128.5000 L 16.5000,118.0000 L 46.6200,118.0000 L 46.6200,128.5000 L 16.5000,128.5000 z " style="fill: #ffffff; fill-opacity: 0.00; stroke: none;" id="ezcGraphPolygon_141"/><text id="ezcGraphTextBox_14_text" x="17.0000" text-length="28.6200px" y="126.1500" style="font-size: 9px; font-family: 'Arial'; fill: #2e3436; fill-opacity: 1.00; stroke: none;">Others</text></g><g id="ezcGraphTextBox_17" transform="rotate( 0.00 493.0000 375.2000 )"><path d=" M 460.4000,381.2000 L 460.4000,365.7000 L 499.0000,365.7000 L 499.0000,381.2000 L 460.4000,381.2000 z " style="fill: #ffffff; fill-opacity: 0.00; stroke: none;" id="ezcGraphPolygon_142"/><text id="ezcGraphTextBox_17_text" x="460.9000" text-length="37.1000px" y="378.1000" style="font-size: 14px; font-family: 'Arial'; fill: #2e3436; fill-opacity: 1.00; stroke: none;">Time </text></g><g id="ezcGraphTextBox_18"><path d=" M 144.9971,413.3000 L 144.9971,383.7000 L 181.2171,383.7000 L 181.2171,413.3000 L 144.9971,413.3000 z " style="fill: #ffffff; fill-opacity: 0.00; stroke: none;" id="ezcGraphPolygon_143"/><text id="ezcGraphTextBox_18_text" x="151.7271" text-length="22.2600px" y="396.1000" style="font-size: 14px; font-family: 'Arial'; fill: #2e3436; fill-opacity: 1.00; stroke: none;">Mar</text><text id="ezcGraphTextBox_18_text" x="145.4971" text-length="34.7200px" y="411.5000" style="font-size: 14px; font-family: 'Arial'; fill: #2e3436; fill-opacity: 1.00; stroke: none;">2021</text></g><g id="ezcGraphTextBox_21"><path d=" M 190.7114,413.3000 L 190.7114,383.7000 L 226.9314,383.7000 L 226.9314,413.3000 L 190.7114,413.3000 z " style="fill: #ffffff; fill-opacity: 0.00; stroke: none;" id="ezcGraphPolygon_144"/><text id="ezcGraphTextBox_21_text" x="197.4414" text-length="22.2600px" y="396.1000" style="font-size: 14px; font-family: 'Arial'; fill: #2e3436; fill-opacity: 1.00; stroke: none;">May</text><text id="ezcGraphTextBox_21_text" x="191.2114" text-length="34.7200px" y="411.5000" style="font-size: 14px; font-family: 'Arial'; fill: #2e3436; fill-opacity: 1.00; stroke: none;">2021</text></g><g id="ezcGraphTextBox_24"><path d=" M 236.4257,413.3000 L 236.4257,383.7000 L 272.6457,383.7000 L 272.6457,413.3000 L 236.4257,413.3000 z " style="fill: #ffffff; fill-opacity: 0.00; stroke: none;" id="ezcGraphPolygon_145"/><text id="ezcGraphTextBox_24_text" x="243.1557" text-length="22.2600px" y="396.1000" style="font-size: 14px; font-family: 'Arial'; fill: #2e3436; fill-opacity: 1.00; stroke: none;">Jul</text><text id="ezcGraphTextBox_24_text" x="236.9257" text-length="34.7200px" y="411.5000" style="font-size: 14px; font-family: 'Arial'; fill: #2e3436; fill-opacity: 1.00; stroke: none;">2021</text></g><g id="ezcGraphTextBox_27"><path d=" M 282.1400,413.3000 L 282.1400,383.7000 L 318.3600,383.7000 L 318.3600,413.3000 L 282.1400,413.3000 z " style="fill: #ffffff; fill-opacity: 0.00; stroke: none;" id="ezcGraphPolygon_146"/><text id="ezcGraphTextBox_27_text" x="288.8700" text-length="22.2600px" y="396.1000" style="font-size: 14px; font-family: 'Arial'; fill: #2e3436; fill-opacity: 1.00; stroke: none;">Sep</text><text id="ezcGraphTextBox_27_text" x="282.6400" text-length="34.7200px" y="411.5000" style="font-size: 14px; font-family: 'Arial'; fill: #2e3436; fill-opacity: 1.00; stroke: none;">2021</text></g><g id="ezcGraphTextBox_30"><path d=" M 327.8543,413.3000 L 327.8543,383.7000 L 364.0743,383.7000 L 364.0743,413.3000 L 327.8543,413.3000 z " style="fill: #ffffff; fill-opacity: 0.00; stroke: none;" id="ezcGraphPolygon_147"/><text id="ezcGraphTextBox_30_text" x="334.5843" text-length="22.2600px" y="396.1000" style="font-size: 14px; font-family: 'Arial'; fill: #2e3436; fill-opacity: 1.00; stroke: none;">Nov</text><text id="ezcGraphTextBox_30_text" x="328.3543" text-length="34.7200px" y="411.5000" style="font-size: 14px; font-family: 'Arial'; fill: #2e3436; fill-opacity: 1.00; stroke: none;">2021</text></g><g id="ezcGraphTextBox_33"><path d=" M 373.5686,413.3000 L 373.5686,383.7000 L 409.7886,383.7000 L 409.7886,413.3000 L 373.5686,413.3000 z " style="fill: #ffffff; fill-opacity: 0.00; stroke: none;" id="ezcGraphPolygon_148"/><text id="ezcGraphTextBox_33_text" x="380.2986" text-length="22.2600px" y="396.1000" style="font-size: 14px; font-family: 'Arial'; fill: #2e3436; fill-opacity: 1.00; stroke: none;">Jan</text><text id="ezcGraphTextBox_33_text" x="374.0686" text-length="34.7200px" y="411.5000" style="font-size: 14px; font-family: 'Arial'; fill: #2e3436; fill-opacity: 1.00; stroke: none;">2022</text></g><g id="ezcGraphTextBox_36"><path d=" M 419.2829,413.3000 L 419.2829,383.7000 L 455.5029,383.7000 L 455.5029,413.3000 L 419.2829,413.3000 z " style="fill: #ffffff; fill-opacity: 0.00; stroke: none;" id="ezcGraphPolygon_149"/><text id="ezcGraphTextBox_36_text" x="426.0129" text-length="22.2600px" y="396.1000" style="font-size: 14px; font-family: 'Arial'; fill: #2e3436; fill-opacity: 1.00; stroke: none;">Mar</text><text id="ezcGraphTextBox_36_text" x="419.7829" text-length="34.7200px" y="411.5000" style="font-size: 14px; font-family: 'Arial'; fill: #2e3436; fill-opacity: 1.00; stroke: none;">2022</text></g><g id="ezcGraphTextBox_41" transform="rotate( 0.00 147.0000 49.0000 )"><path d=" M 141.5000,59.0000 L 141.5000,43.5000 L 395.2800,43.5000 L 395.2800,59.0000 L 141.5000,59.0000 z " style="fill: #ffffff; fill-opacity: 0.00; stroke: none;" id="ezcGraphPolygon_150"/><text id="ezcGraphTextBox_41_text" x="142.0000" text-length="252.2800px" y="55.9000" style="font-size: 14px; font-family: 'Arial'; fill: #2e3436; fill-opacity: 1.00; stroke: none;">Computers by "Storage Vendor" in %</text></g><g id="ezcGraphTextBox_42"><path d=" M 128.8200,381.2000 L 128.8200,365.7000 L 139.0000,365.7000 L 139.0000,381.2000 L 128.8200,381.2000 z " style="fill: #ffffff; fill-opacity: 0.00; stroke: none;" id="ezcGraphPolygon_151"/><text id="ezcGraphTextBox_42_text" x="129.3200" text-length="8.6800px" y="378.1000" style="font-size: 14px; font-family: 'Arial'; fill: #2e3436; fill-opacity: 1.00; stroke: none;">0</text></g><g id="ezcGraphTextBox_45"><path d=" M 120.1400,230.0000 L 120.1400,214.5000 L 139.0000,214.5000 L 139.0000,230.0000 L 120.1400,230.0000 z " style="fill: #ffffff; fill-opacity: 0.00; stroke: none;" id="ezcGraphPolygon_152"/><text id="ezcGraphTextBox_45_text" x="120.6400" text-length="17.3600px" y="226.9000" style="font-size: 14px; font-family: 'Arial'; fill: #2e3436; fill-opacity: 1.00; stroke: none;">50</text></g><g id="ezcGraphTextBox_48"><path d=" M 111.4600,96.8000 L 111.4600,81.3000 L 139.0000,81.3000 L 139.0000,96.8000 L 111.4600,96.8000 z " style="fill: #ffffff; fill-opacity: 0.00; stroke: none;" id="ezcGraphPolygon_153"/><text id="ezcGraphTextBox_48_text" x="111.9600" text-length="26.0400px" y="93.7000" style="font-size: 14px; font-family: 'Arial'; fill: #2e3436; fill-opacity: 1.00; stroke: none;">100</text></g><g id="ezcGraphTextBox_50"><path d=" M 149.9571,187.5952 L 149.9571,176.0952 L 176.2571,176.0952 L 176.2571,187.5952 L 149.9571,187.5952 z " style="fill: #ffffff; fill-opacity: 0.00; stroke: none;" id="ezcGraphPolygon_154"/><text id="ezcGraphTextBox_50_text" x="150.4571" text-length="24.8000px" y="185.0952" style="font-size: 10px; font-family: 'Arial'; fill: #2e3436; fill-opacity: 1.00; stroke: none;">62.7</text></g><g id="ezcGraphTextBox_52"><path d=" M 195.6714,197.2720 L 195.6714,185.7720 L 221.9714,185.7720 L 221.9714,197.2720 L 195.6714,197.2720 z " style="fill: #ffffff; fill-opacity: 0.00; stroke: none;" id="ezcGraphPolygon_155"/><text id="ezcGraphTextBox_52_text" x="196.1714" text-length="24.8000px" y="194.7720" style="font-size: 10px; font-family: 'Arial'; fill: #2e3436; fill-opacity: 1.00; stroke: none;">59.5</text></g><g id="ezcGraphTextBox_54"><path d=" M 247.5857,195.7600 L 247.5857,184.2600 L 261.4857,184.2600 L 261.4857,195.7600 L 247.5857,195.7600 z " style="fill: #ffffff; fill-opacity: 0.00; stroke: none;" id="ezcGraphPolygon_156"/><text id="ezcGraphTextBox_54_text" x="248.0857" text-length="12.4000px" y="193.2600" style="font-size: 10px; font-family: 'Arial'; fill: #2e3436; fill-opacity: 1.00; stroke: none;">60</text></g><g id="ezcGraphTextBox_56"><path d=" M 287.1000,197.2720 L 287.1000,185.7720 L 313.4000,185.7720 L 313.4000,197.2720 L 287.1000,197.2720 z " style="fill: #ffffff; fill-opacity: 0.00; stroke: none;" id="ezcGraphPolygon_157"/><text id="ezcGraphTextBox_56_text" x="287.6000" text-length="24.8000px" y="194.7720" style="font-size: 10px; font-family: 'Arial'; fill: #2e3436; fill-opacity: 1.00; stroke: none;">59.5</text></g><g id="ezcGraphTextBox_58"><path d=" M 339.0143,232.0480 L 339.0143,220.5480 L 352.9143,220.5480 L 352.9143,232.0480 L 339.0143,232.0480 z " style="fill: #ffffff; fill-opacity: 0.00; stroke: none;" id="ezcGraphPolygon_158"/><text id="ezcGraphTextBox_58_text" x="339.5143" text-length="12.4000px" y="229.5480" style="font-size: 10px; font-family: 'Arial'; fill: #2e3436; fill-opacity: 1.00; stroke: none;">48</text></g><g id="ezcGraphTextBox_60"><path d=" M 378.5286,251.0992 L 378.5286,239.5992 L 404.8286,239.5992 L 404.8286,251.0992 L 378.5286,251.0992 z " style="fill: #ffffff; fill-opacity: 0.00; stroke: none;" id="ezcGraphPolygon_159"/><text id="ezcGraphTextBox_60_text" x="379.0286" text-length="24.8000px" y="248.5992" style="font-size: 10px; font-family: 'Arial'; fill: #2e3436; fill-opacity: 1.00; stroke: none;">41.7</text></g><g id="ezcGraphTextBox_62"><path d=" M 430.4429,229.0240 L 430.4429,217.5240 L 444.3429,217.5240 L 444.3429,229.0240 L 430.4429,229.0240 z " style="fill: #ffffff; fill-opacity: 0.00; stroke: none;" id="ezcGraphPolygon_160"/><text id="ezcGraphTextBox_62_text" x="430.9429" text-length="12.4000px" y="226.5240" style="font-size: 10px; font-family: 'Arial'; fill: #2e3436; fill-opacity: 1.00; stroke: none;">49</text></g><g id="ezcGraphTextBox_64"><path d=" M 149.9571,329.7232 L 149.9571,318.2232 L 176.2571,318.2232 L 176.2571,329.7232 L 149.9571,329.7232 z " style="fill: #ffffff; fill-opacity: 0.00; stroke: none;" id="ezcGraphPolygon_161"/><text id="ezcGraphTextBox_64_text" x="150.4571" text-length="24.8000px" y="327.2232" style="font-size: 10px; font-family: 'Arial'; fill: #2e3436; fill-opacity: 1.00; stroke: none;">15.7</text></g><g id="ezcGraphTextBox_66"><path d=" M 201.8714,319.7440 L 201.8714,308.2440 L 215.7714,308.2440 L 215.7714,319.7440 L 201.8714,319.7440 z " style="fill: #ffffff; fill-opacity: 0.00; stroke: none;" id="ezcGraphPolygon_162"/><text id="ezcGraphTextBox_66_text" x="202.3714" text-length="12.4000px" y="317.2440" style="font-size: 10px; font-family: 'Arial'; fill: #2e3436; fill-opacity: 1.00; stroke: none;">19</text></g><g id="ezcGraphTextBox_68"><path d=" M 247.5857,331.8400 L 247.5857,320.3400 L 261.4857,320.3400 L 261.4857,331.8400 L 247.5857,331.8400 z " style="fill: #ffffff; fill-opacity: 0.00; stroke: none;" id="ezcGraphPolygon_163"/><text id="ezcGraphTextBox_68_text" x="248.0857" text-length="12.4000px" y="329.3400" style="font-size: 10px; font-family: 'Arial'; fill: #2e3436; fill-opacity: 1.00; stroke: none;">15</text></g><g id="ezcGraphTextBox_70"><path d=" M 287.1000,328.2112 L 287.1000,316.7112 L 313.4000,316.7112 L 313.4000,328.2112 L 287.1000,328.2112 z " style="fill: #ffffff; fill-opacity: 0.00; stroke: none;" id="ezcGraphPolygon_164"/><text id="ezcGraphTextBox_70_text" x="287.6000" text-length="24.8000px" y="325.7112" style="font-size: 10px; font-family: 'Arial'; fill: #2e3436; fill-opacity: 1.00; stroke: none;">16.2</text></g><g id="ezcGraphTextBox_72"><path d=" M 339.0143,316.7200 L 339.0143,305.2200 L 352.9143,305.2200 L 352.9143,316.7200 L 339.0143,316.7200 z " style="fill: #ffffff; fill-opacity: 0.00; stroke: none;" id="ezcGraphPolygon_165"/><text id="ezcGraphTextBox_72_text" x="339.5143" text-length="12.4000px" y="314.2200" style="font-size: 10px; font-family: 'Arial'; fill: #2e3436; fill-opacity: 1.00; stroke: none;">20</text></g><g id="ezcGraphTextBox_74"><path d=" M 378.5286,314.3008 L 378.5286,302.8008 L 404.8286,302.8008 L 404.8286,314.3008 L 378.5286,314.3008 z " style="fill: #ffffff; fill-opacity: 0.00; stroke: none;" id="ezcGraphPolygon_166"/><text id="ezcGraphTextBox_74_text" x="379.0286" text-length="24.8000px" y="311.8008" style="font-size: 10px; font-family: 'Arial'; fill: #2e3436; fill-opacity: 1.00; stroke: none;">20.8</text></g><g id="ezcGraphTextBox_76"><path d=" M 424.2429,315.5104 L 424.2429,304.0104 L 450.5429,304.0104 L 450.5429,315.5104 L 424.2429,315.5104 z " style="fill: #ffffff; fill-opacity: 0.00; stroke: none;" id="ezcGraphPolygon_167"/><text id="ezcGraphTextBox_76_text" x="424.7429" text-length="24.8000px" y="313.0104" style="font-size: 10px; font-family: 'Arial'; fill: #2e3436; fill-opacity: 1.00; stroke: none;">20.4</text></g><g id="ezcGraphTextBox_78"><path d=" M 149.9571,329.7232 L 149.9571,318.2232 L 176.2571,318.2232 L 176.2571,329.7232 L 149.9571,329.7232 z " style="fill: #ffffff; fill-opacity: 0.00; stroke: none;" id="ezcGraphPolygon_168"/><text id="ezcGraphTextBox_78_text" x="150.4571" text-length="24.8000px" y="327.2232" style="font-size: 10px; font-family: 'Arial'; fill: #2e3436; fill-opacity: 1.00; stroke: none;">15.7</text></g><g id="ezcGraphTextBox_80"><path d=" M 201.8714,319.7440 L 201.8714,308.2440 L 215.7714,308.2440 L 215.7714,319.7440 L 201.8714,319.7440 z " style="fill: #ffffff; fill-opacity: 0.00; stroke: none;" id="ezcGraphPolygon_169"/><text id="ezcGraphTextBox_80_text" x="202.3714" text-length="12.4000px" y="317.2440" style="font-size: 10px; font-family: 'Arial'; fill: #2e3436; fill-opacity: 1.00; stroke: none;">19</text></g><g id="ezcGraphTextBox_82"><path d=" M 247.5857,331.8400 L 247.5857,320.3400 L 261.4857,320.3400 L 261.4857,331.8400 L 247.5857,331.8400 z " style="fill: #ffffff; fill-opacity: 0.00; stroke: none;" id="ezcGraphPolygon_170"/><text id="ezcGraphTextBox_82_text" x="248.0857" text-length="12.4000px" y="329.3400" style="font-size: 10px; font-family: 'Arial'; fill: #2e3436; fill-opacity: 1.00; stroke: none;">15</text></g><g id="ezcGraphTextBox_84"><path d=" M 287.1000,328.2112 L 287.1000,316.7112 L 313.4000,316.7112 L 313.4000,328.2112 L 287.1000,328.2112 z " style="fill: #ffffff; fill-opacity: 0.00; stroke: none;" id="ezcGraphPolygon_171"/><text id="ezcGraphTextBox_84_text" x="287.6000" text-length="24.8000px" y="325.7112" style="font-size: 10px; font-family: 'Arial'; fill: #2e3436; fill-opacity: 1.00; stroke: none;">16.2</text></g><g id="ezcGraphTextBox_86"><path d=" M 339.0143,310.6720 L 339.0143,299.1720 L 352.9143,299.1720 L 352.9143,310.6720 L 339.0143,310.6720 z " style="fill: #ffffff; fill-opacity: 0.00; stroke: none;" id="ezcGraphPolygon_172"/><text id="ezcGraphTextBox_86_text" x="339.5143" text-length="12.4000px" y="308.1720" style="font-size: 10px; font-family: 'Arial'; fill: #2e3436; fill-opacity: 1.00; stroke: none;">22</text></g><g id="ezcGraphTextBox_88"><path d=" M 378.5286,307.9504 L 378.5286,296.4504 L 404.8286,296.4504 L 404.8286,307.9504 L 378.5286,307.9504 z " style="fill: #ffffff; fill-opacity: 0.00; stroke: none;" id="ezcGraphPolygon_173"/><text id="ezcGraphTextBox_88_text" x="379.0286" text-length="24.8000px" y="305.4504" style="font-size: 10px; font-family: 'Arial'; fill: #2e3436; fill-opacity: 1.00; stroke: none;">22.9</text></g><g id="ezcGraphTextBox_90"><path d=" M 424.2429,321.5584 L 424.2429,310.0584 L 450.5429,310.0584 L 450.5429,321.5584 L 424.2429,321.5584 z " style="fill: #ffffff; fill-opacity: 0.00; stroke: none;" id="ezcGraphPolygon_174"/><text id="ezcGraphTextBox_90_text" x="424.7429" text-length="24.8000px" y="319.0584" style="font-size: 10px; font-family: 'Arial'; fill: #2e3436; fill-opacity: 1.00; stroke: none;">18.4</text></g><g id="ezcGraphTextBox_92"><path d=" M 153.0571,359.3584 L 153.0571,347.8584 L 173.1571,347.8584 L 173.1571,359.3584 L 153.0571,359.3584 z " style="fill: #ffffff; fill-opacity: 0.00; stroke: none;" id="ezcGraphPolygon_175"/><text id="ezcGraphTextBox_92_text" x="153.5571" text-length="18.6000px" y="356.8584" style="font-size: 10px; font-family: 'Arial'; fill: #2e3436; fill-opacity: 1.00; stroke: none;">5.9</text></g><g id="ezcGraphTextBox_94"><path d=" M 198.7714,369.9424 L 198.7714,358.4424 L 218.8714,358.4424 L 218.8714,369.9424 L 198.7714,369.9424 z " style="fill: #ffffff; fill-opacity: 0.00; stroke: none;" id="ezcGraphPolygon_176"/><text id="ezcGraphTextBox_94_text" x="199.2714" text-length="18.6000px" y="367.4424" style="font-size: 10px; font-family: 'Arial'; fill: #2e3436; fill-opacity: 1.00; stroke: none;">2.4</text></g><g id="ezcGraphTextBox_96"><path d=" M 250.6857,362.0800 L 250.6857,350.5800 L 258.3857,350.5800 L 258.3857,362.0800 L 250.6857,362.0800 z " style="fill: #ffffff; fill-opacity: 0.00; stroke: none;" id="ezcGraphPolygon_177"/><text id="ezcGraphTextBox_96_text" x="251.1857" text-length="6.2000px" y="359.5800" style="font-size: 10px; font-family: 'Arial'; fill: #2e3436; fill-opacity: 1.00; stroke: none;">5</text></g><g id="ezcGraphTextBox_98"><path d=" M 290.2000,352.7056 L 290.2000,341.2056 L 310.3000,341.2056 L 310.3000,352.7056 L 290.2000,352.7056 z " style="fill: #ffffff; fill-opacity: 0.00; stroke: none;" id="ezcGraphPolygon_178"/><text id="ezcGraphTextBox_98_text" x="290.7000" text-length="18.6000px" y="350.2056" style="font-size: 10px; font-family: 'Arial'; fill: #2e3436; fill-opacity: 1.00; stroke: none;">8.1</text></g><g id="ezcGraphTextBox_100"><path d=" M 339.0143,346.9600 L 339.0143,335.4600 L 352.9143,335.4600 L 352.9143,346.9600 L 339.0143,346.9600 z " style="fill: #ffffff; fill-opacity: 0.00; stroke: none;" id="ezcGraphPolygon_179"/><text id="ezcGraphTextBox_100_text" x="339.5143" text-length="12.4000px" y="344.4600" style="font-size: 10px; font-family: 'Arial'; fill: #2e3436; fill-opacity: 1.00; stroke: none;">10</text></g><g id="ezcGraphTextBox_102"><path d=" M 378.5286,333.0496 L 378.5286,321.5496 L 404.8286,321.5496 L 404.8286,333.0496 L 378.5286,333.0496 z " style="fill: #ffffff; fill-opacity: 0.00; stroke: none;" id="ezcGraphPolygon_180"/><text id="ezcGraphTextBox_102_text" x="379.0286" text-length="24.8000px" y="330.5496" style="font-size: 10px; font-family: 'Arial'; fill: #2e3436; fill-opacity: 1.00; stroke: none;">14.6</text></g><g id="ezcGraphTextBox_104"><path d=" M 424.2429,340.3072 L 424.2429,328.8072 L 450.5429,328.8072 L 450.5429,340.3072 L 424.2429,340.3072 z " style="fill: #ffffff; fill-opacity: 0.00; stroke: none;" id="ezcGraphPolygon_181"/><text id="ezcGraphTextBox_104_text" x="424.7429" text-length="24.8000px" y="337.8072" style="font-size: 10px; font-family: 'Arial'; fill: #2e3436; fill-opacity: 1.00; stroke: none;">12.2</text></g><g id="ezcGraphTextBox_106"><path d=" M 250.6857,362.0800 L 250.6857,350.5800 L 258.3857,350.5800 L 258.3857,362.0800 L 250.6857,362.0800 z " style="fill: #ffffff; fill-opacity: 0.00; stroke: none;" id="ezcGraphPolygon_182"/><text id="ezcGraphTextBox_106_text" x="251.1857" text-length="6.2000px" y="359.5800" style="font-size: 10px; font-family: 'Arial'; fill: #2e3436; fill-opacity: 1.00; stroke: none;">5</text></g></g></svg>
