<?xml version="1.0"?>
<svg xmlns="http://www.w3.org/2000/svg" width="500" height="420" version="1.0" id="ezcGraph"><defs/><g id="ezcGraphChart" color-rendering="optimizeQuality" shape-rendering="geometricPrecision" text-rendering="optimizeLegibility"><path d=" M 0.0000,420.0000 L 0.0000,0.0000 L 500.0000,0.0000 L 500.0000,420.0000 L 0.0000,420.0000 z " style="fill: #eeeeec; fill-opacity: 1.00; stroke: none;" id="ezcGraphPolygon_1"/><path d=" M 0.0000,42.0000 L 0.0000,0.0000 L 500.0000,0.0000 L 500.0000,42.0000 L 0.0000,42.0000 z " style="fill: #000000; fill-opacity: 0.00; stroke: none;" id="ezcGraphPolygon_2"/><path d="M 241.60,240.26 L 354.10,240.26 A 112.50,112.50 0 1,1 230.70,128.29 z" style="fill: #3465a4; fill-opacity: 1.00; stroke: none; cursor: pointer;" id="ezcGraphCircleSector_4" onclick="top.location = 'https://linux-hardware.org/?view=computers&amp;f=drive_bus&amp;v=ide&amp;p=99'"/><path d="M 241.15,240.76 L 353.60,240.76 A 112.00,112.00 0 1,1 230.25,128.83 z" style="fill: none; stroke: #1a3352; stroke-width: 1; stroke-opacity: 1.00; stroke-linecap: round; stroke-linejoin: round;" id="ezcGraphCircleSector_5"/><path d="M 250.00,231.00 L 239.10,119.03 A 112.50,112.50 0 0,1 347.76,175.33 z" style="fill: #4e9a06; fill-opacity: 1.00; stroke: none; cursor: pointer;" id="ezcGraphCircleSector_6" onclick="top.location = 'https://linux-hardware.org/?view=computers&amp;f=drive_bus&amp;v=scsi&amp;p=99'"/><path d="M 250.42,230.18 L 239.64,119.48 A 112.00,112.00 0 0,1 347.08,175.15 z" style="fill: none; stroke: #274d03; stroke-width: 1; stroke-opacity: 1.00; stroke-linecap: round; stroke-linejoin: round;" id="ezcGraphCircleSector_7"/><path d="M 250.00,231.00 L 347.76,175.33 A 112.50,112.50 0 0,1 362.50,231.00 z" style="fill: #cc0000; fill-opacity: 1.00; stroke: none; cursor: pointer;" id="ezcGraphCircleSector_8" onclick="top.location = 'https://linux-hardware.org/?view=computers&amp;f=drive_bus&amp;v=nvme&amp;p=99'"/><path d="M 251.89,230.50 L 347.58,176.02 A 112.00,112.00 0 0,1 362.00,230.50 z" style="fill: none; stroke: #660000; stroke-width: 1; stroke-opacity: 1.00; stroke-linecap: round; stroke-linejoin: round;" id="ezcGraphCircleSector_9"/><path d=" M 185.6024,301.9717 L 170.3522,332.0000" style="fill: none; stroke: #000000; stroke-width: 1; stroke-opacity: 1.00; stroke-linecap: round; stroke-linejoin: round;" id="ezcGraphLine_10"/><ellipse cx="185.6024" cy="301.9717" rx="3.0000" ry="3.0000" style="fill: #000000; fill-opacity: 1.00; stroke: none;" id="ezcGraphCircle_11"/><ellipse cx="170.3522" cy="332.0000" rx="3.0000" ry="3.0000" style="fill: #000000; fill-opacity: 1.00; stroke: none;" id="ezcGraphCircle_12"/><path d=" M 288.3388,157.0096 L 313.4804,120.0000" style="fill: none; stroke: #000000; stroke-width: 1; stroke-opacity: 1.00; stroke-linecap: round; stroke-linejoin: round;" id="ezcGraphLine_14"/><ellipse cx="288.3388" cy="157.0096" rx="3.0000" ry="3.0000" style="fill: #000000; fill-opacity: 1.00; stroke: none;" id="ezcGraphCircle_15"/><ellipse cx="313.4804" cy="120.0000" rx="3.0000" ry="3.0000" style="fill: #000000; fill-opacity: 1.00; stroke: none;" id="ezcGraphCircle_16"/><path d=" M 330.5581,209.6730 L 376.8346,199.0000" style="fill: none; stroke: #000000; stroke-width: 1; stroke-opacity: 1.00; stroke-linecap: round; stroke-linejoin: round;" id="ezcGraphLine_18"/><ellipse cx="330.5581" cy="209.6730" rx="3.0000" ry="3.0000" style="fill: #000000; fill-opacity: 1.00; stroke: none;" id="ezcGraphCircle_19"/><ellipse cx="376.8346" cy="199.0000" rx="3.0000" ry="3.0000" style="fill: #000000; fill-opacity: 1.00; stroke: none;" id="ezcGraphCircle_20"/><g id="ezcGraphTextBox_3"><path d=" M 90.5000,42.0000 L 90.5000,0.5000 L 410.0000,0.5000 L 410.0000,42.0000 L 90.5000,42.0000 z " style="fill: #ffffff; fill-opacity: 0.00; stroke: none;" id="ezcGraphPolygon_22"/><text id="ezcGraphTextBox_3_text" x="91.0000" text-length="318.0000px" y="35.0000" style="font-size: 40px; font-family: 'Arial'; fill: #2e3436; fill-opacity: 1.00; stroke: none;">Drive Connector</text></g><g id="ezcGraphTextBox_13" style=" cursor: pointer;" onclick="top.location = 'https://linux-hardware.org/?view=computers&amp;f=drive_bus&amp;v=ide&amp;p=99'"><path d=" M 37.9242,342.9000 L 37.9242,321.6000 L 165.3522,321.6000 L 165.3522,342.9000 L 37.9242,342.9000 z " style="fill: #ffffff; fill-opacity: 0.00; stroke: none;" id="ezcGraphPolygon_23"/><text id="ezcGraphTextBox_13_text" x="38.4242" text-length="125.9280px" y="338.9300" style="font-size: 19px; font-family: 'Arial'; fill: #2e3436; fill-opacity: 1.00; stroke: none;">SATA (73.5%)</text></g><g id="ezcGraphTextBox_17" style=" cursor: pointer;" onclick="top.location = 'https://linux-hardware.org/?view=computers&amp;f=drive_bus&amp;v=scsi&amp;p=99'"><path d=" M 318.9804,130.9000 L 318.9804,109.6000 L 435.9144,109.6000 L 435.9144,130.9000 L 318.9804,130.9000 z " style="fill: #ffffff; fill-opacity: 0.00; stroke: none;" id="ezcGraphPolygon_24"/><text id="ezcGraphTextBox_17_text" x="319.4804" text-length="115.4340px" y="126.9300" style="font-size: 19px; font-family: 'Arial'; fill: #2e3436; fill-opacity: 1.00; stroke: none;">SAS (18.3%)</text></g><g id="ezcGraphTextBox_21" style=" cursor: pointer;" onclick="top.location = 'https://linux-hardware.org/?view=computers&amp;f=drive_bus&amp;v=nvme&amp;p=99'"><path d=" M 382.3346,209.9000 L 382.3346,188.6000 L 499.2686,188.6000 L 499.2686,209.9000 L 382.3346,209.9000 z " style="fill: #ffffff; fill-opacity: 0.00; stroke: none;" id="ezcGraphPolygon_25"/><text id="ezcGraphTextBox_21_text" x="382.8346" text-length="115.4340px" y="205.9300" style="font-size: 19px; font-family: 'Arial'; fill: #2e3436; fill-opacity: 1.00; stroke: none;">NVMe (8.2%)</text></g></g></svg>
