<?xml version="1.0"?>
<svg xmlns="http://www.w3.org/2000/svg" width="500" height="420" version="1.0" id="ezcGraph"><defs/><g id="ezcGraphChart" color-rendering="optimizeQuality" shape-rendering="geometricPrecision" text-rendering="optimizeLegibility"><path d=" M 0.0000,420.0000 L 0.0000,0.0000 L 500.0000,0.0000 L 500.0000,420.0000 L 0.0000,420.0000 z " style="fill: #eeeeec; fill-opacity: 1.00; stroke: none;" id="ezcGraphPolygon_1"/><path d=" M 0.0000,42.0000 L 0.0000,0.0000 L 500.0000,0.0000 L 500.0000,42.0000 L 0.0000,42.0000 z " style="fill: #000000; fill-opacity: 0.00; stroke: none;" id="ezcGraphPolygon_2"/><path d="M 246.60,243.03 L 359.10,243.03 A 112.50,112.50 0 1,1 150.72,184.18 z" style="fill: #3465a4; fill-opacity: 1.00; stroke: none; cursor: pointer;" id="ezcGraphCircleSector_4" onclick="top.location = 'https://linux-hardware.org/?view=computers&amp;f=node_model_family&amp;v=Oracle+VirtualBox&amp;p=99'"/><path d="M 246.46,243.53 L 358.60,243.53 A 112.00,112.00 0 1,1 150.89,184.87 z" style="fill: none; stroke: #1a3352; stroke-width: 1; stroke-opacity: 1.00; stroke-linecap: round; stroke-linejoin: round;" id="ezcGraphCircleSector_5"/><path d="M 250.00,231.00 L 154.12,172.15 A 112.50,112.50 0 0,1 271.02,120.48 z" style="fill: #4e9a06; fill-opacity: 1.00; stroke: none; cursor: pointer;" id="ezcGraphCircleSector_6" onclick="top.location = 'https://linux-hardware.org/?view=computers&amp;f=node_model_family&amp;v=VMware+Virtual&amp;p=99'"/><path d="M 249.64,230.19 L 154.81,171.99 A 112.00,112.00 0 0,1 270.44,120.88 z" style="fill: none; stroke: #274d03; stroke-width: 1; stroke-opacity: 1.00; stroke-linecap: round; stroke-linejoin: round;" id="ezcGraphCircleSector_7"/><path d="M 250.00,231.00 L 271.02,120.48 A 112.50,112.50 0 0,1 345.08,170.87 z" style="fill: #cc0000; fill-opacity: 1.00; stroke: none; cursor: pointer;" id="ezcGraphCircleSector_8" onclick="top.location = 'https://linux-hardware.org/?view=computers&amp;f=node_model_family&amp;v=QEMU+Standard&amp;p=99'"/><path d="M 250.71,229.96 L 271.42,121.07 A 112.00,112.00 0 0,1 344.39,170.72 z" style="fill: none; stroke: #660000; stroke-width: 1; stroke-opacity: 1.00; stroke-linecap: round; stroke-linejoin: round;" id="ezcGraphCircleSector_9"/><path d="M 250.00,231.00 L 345.08,170.87 A 112.50,112.50 0 0,1 355.19,191.11 z" style="fill: #edd400; fill-opacity: 1.00; stroke: none; cursor: pointer;" id="ezcGraphCircleSector_10" onclick="top.location = 'https://linux-hardware.org/?view=computers&amp;f=node_model_family&amp;v=Microsoft+Windows&amp;p=99'"/><path d="M 254.45,228.78 L 344.93,171.56 A 112.00,112.00 0 0,1 354.54,190.82 z" style="fill: none; stroke: #776a00; stroke-width: 1; stroke-opacity: 1.00; stroke-linecap: round; stroke-linejoin: round;" id="ezcGraphCircleSector_11"/><path d="M 250.00,231.00 L 355.19,191.11 A 112.50,112.50 0 0,1 359.58,205.55 z" style="fill: #75505b; fill-opacity: 1.00; stroke: none; cursor: pointer;" id="ezcGraphCircleSector_12" onclick="top.location = 'https://linux-hardware.org/?view=computers&amp;f=node_model_family&amp;v=Microsoft+Virtual&amp;p=99'"/><path d="M 257.13,228.83 L 354.90,191.75 A 112.00,112.00 0 0,1 358.98,205.17 z" style="fill: none; stroke: #3b282e; stroke-width: 1; stroke-opacity: 1.00; stroke-linecap: round; stroke-linejoin: round;" id="ezcGraphCircleSector_13"/><path d="M 250.00,231.00 L 359.58,205.55 A 112.50,112.50 0 0,1 362.50,231.00 z" style="fill: #f57900; fill-opacity: 1.00; stroke: none;" id="ezcGraphCircleSector_14"/><path d="M 254.36,230.50 L 359.21,206.15 A 112.00,112.00 0 0,1 362.00,230.50 z" style="fill: none; stroke: #7b3d00; stroke-width: 1; stroke-opacity: 1.00; stroke-linecap: round; stroke-linejoin: round;" id="ezcGraphCircleSector_15"/><path d=" M 216.3098,154.7805 L 195.0102,116.0000" style="fill: none; stroke: #000000; stroke-width: 1; stroke-opacity: 1.00; stroke-linecap: round; stroke-linejoin: round;" id="ezcGraphLine_16"/><ellipse cx="216.3098" cy="154.7805" rx="3.0000" ry="3.0000" style="fill: #000000; fill-opacity: 1.00; stroke: none;" id="ezcGraphCircle_17"/><ellipse cx="195.0102" cy="116.0000" rx="3.0000" ry="3.0000" style="fill: #000000; fill-opacity: 1.00; stroke: none;" id="ezcGraphCircle_18"/><path d=" M 223.9560,323.2266 L 223.9560,363.0000" style="fill: none; stroke: #000000; stroke-width: 1; stroke-opacity: 1.00; stroke-linecap: round; stroke-linejoin: round;" id="ezcGraphLine_20"/><ellipse cx="223.9560" cy="323.2266" rx="3.0000" ry="3.0000" style="fill: #000000; fill-opacity: 1.00; stroke: none;" id="ezcGraphCircle_21"/><ellipse cx="223.9560" cy="363.0000" rx="3.0000" ry="3.0000" style="fill: #000000; fill-opacity: 1.00; stroke: none;" id="ezcGraphCircle_22"/><path d=" M 296.8773,162.1018 L 325.3470,127.0000" style="fill: none; stroke: #000000; stroke-width: 1; stroke-opacity: 1.00; stroke-linecap: round; stroke-linejoin: round;" id="ezcGraphLine_24"/><ellipse cx="296.8773" cy="162.1018" rx="3.0000" ry="3.0000" style="fill: #000000; fill-opacity: 1.00; stroke: none;" id="ezcGraphCircle_25"/><ellipse cx="325.3470" cy="127.0000" rx="3.0000" ry="3.0000" style="fill: #000000; fill-opacity: 1.00; stroke: none;" id="ezcGraphCircle_26"/><path d=" M 324.5529,193.7668 L 367.7542,175.0000" style="fill: none; stroke: #000000; stroke-width: 1; stroke-opacity: 1.00; stroke-linecap: round; stroke-linejoin: round;" id="ezcGraphLine_28"/><ellipse cx="324.5529" cy="193.7668" rx="3.0000" ry="3.0000" style="fill: #000000; fill-opacity: 1.00; stroke: none;" id="ezcGraphCircle_29"/><ellipse cx="367.7542" cy="175.0000" rx="3.0000" ry="3.0000" style="fill: #000000; fill-opacity: 1.00; stroke: none;" id="ezcGraphCircle_30"/><path d=" M 329.7247,206.7427 L 379.6234,212.5000" style="fill: none; stroke: #000000; stroke-width: 1; stroke-opacity: 1.00; stroke-linecap: round; stroke-linejoin: round;" id="ezcGraphLine_32"/><ellipse cx="329.7247" cy="206.7427" rx="3.0000" ry="3.0000" style="fill: #000000; fill-opacity: 1.00; stroke: none;" id="ezcGraphCircle_33"/><ellipse cx="379.6234" cy="212.5000" rx="3.0000" ry="3.0000" style="fill: #000000; fill-opacity: 1.00; stroke: none;" id="ezcGraphCircle_34"/><path d=" M 332.7913,221.5108 L 379.5476,250.0000" style="fill: none; stroke: #000000; stroke-width: 1; stroke-opacity: 1.00; stroke-linecap: round; stroke-linejoin: round;" id="ezcGraphLine_36"/><ellipse cx="332.7913" cy="221.5108" rx="3.0000" ry="3.0000" style="fill: #000000; fill-opacity: 1.00; stroke: none;" id="ezcGraphCircle_37"/><ellipse cx="379.5476" cy="250.0000" rx="3.0000" ry="3.0000" style="fill: #000000; fill-opacity: 1.00; stroke: none;" id="ezcGraphCircle_38"/><g id="ezcGraphTextBox_3"><path d=" M 122.3000,42.0000 L 122.3000,0.5000 L 378.2000,0.5000 L 378.2000,42.0000 L 122.3000,42.0000 z " style="fill: #ffffff; fill-opacity: 0.00; stroke: none;" id="ezcGraphPolygon_40"/><text id="ezcGraphTextBox_3_text" x="122.8000" text-length="254.4000px" y="35.0000" style="font-size: 40px; font-family: 'Arial'; fill: #2e3436; fill-opacity: 1.00; stroke: none;">Model Family</text></g><g id="ezcGraphTextBox_19" style=" cursor: pointer;" onclick="top.location = 'https://linux-hardware.org/?view=computers&amp;f=node_model_family&amp;v=VMware+Virtual&amp;p=99'"><path d=" M 69.7902,133.0500 L 69.7902,99.4500 L 190.0102,99.4500 L 190.0102,133.0500 L 69.7902,133.0500 z " style="fill: #ffffff; fill-opacity: 0.00; stroke: none;" id="ezcGraphPolygon_41"/><text id="ezcGraphTextBox_19_text" x="70.2902" text-length="118.7200px" y="113.5500" style="font-size: 16px; font-family: 'Arial'; fill: #2e3436; fill-opacity: 1.00; stroke: none;">VMware Virtual</text><text id="ezcGraphTextBox_19_text" x="129.6502" text-length="59.3600px" y="131.1500" style="font-size: 16px; font-family: 'Arial'; fill: #2e3436; fill-opacity: 1.00; stroke: none;">(19.2%)</text></g><g id="ezcGraphTextBox_23" style=" cursor: pointer;" onclick="top.location = 'https://linux-hardware.org/?view=computers&amp;f=node_model_family&amp;v=Oracle+VirtualBox&amp;p=99'"><path d=" M 81.7760,380.0500 L 81.7760,346.4500 L 218.9560,346.4500 L 218.9560,380.0500 L 81.7760,380.0500 z " style="fill: #ffffff; fill-opacity: 0.00; stroke: none;" id="ezcGraphPolygon_42"/><text id="ezcGraphTextBox_23_text" x="82.2760" text-length="135.6800px" y="360.5500" style="font-size: 16px; font-family: 'Arial'; fill: #2e3436; fill-opacity: 1.00; stroke: none;">Oracle Virtua...</text><text id="ezcGraphTextBox_23_text" x="158.5960" text-length="59.3600px" y="378.1500" style="font-size: 16px; font-family: 'Arial'; fill: #2e3436; fill-opacity: 1.00; stroke: none;">(58.8%)</text></g><g id="ezcGraphTextBox_27" style=" cursor: pointer;" onclick="top.location = 'https://linux-hardware.org/?view=computers&amp;f=node_model_family&amp;v=QEMU+Standard&amp;p=99'"><path d=" M 330.8470,144.0500 L 330.8470,110.4500 L 442.5870,110.4500 L 442.5870,144.0500 L 330.8470,144.0500 z " style="fill: #ffffff; fill-opacity: 0.00; stroke: none;" id="ezcGraphPolygon_43"/><text id="ezcGraphTextBox_27_text" x="331.3470" text-length="110.2400px" y="124.5500" style="font-size: 16px; font-family: 'Arial'; fill: #2e3436; fill-opacity: 1.00; stroke: none;">QEMU Standard</text><text id="ezcGraphTextBox_27_text" x="331.3470" text-length="59.3600px" y="142.1500" style="font-size: 16px; font-family: 'Arial'; fill: #2e3436; fill-opacity: 1.00; stroke: none;">(13.0%)</text></g><g id="ezcGraphTextBox_31" style=" cursor: pointer;" onclick="top.location = 'https://linux-hardware.org/?view=computers&amp;f=node_model_family&amp;v=Microsoft+Windows&amp;p=99'"><path d=" M 373.2542,192.0500 L 373.2542,158.4500 L 484.9942,158.4500 L 484.9942,192.0500 L 373.2542,192.0500 z " style="fill: #ffffff; fill-opacity: 0.00; stroke: none;" id="ezcGraphPolygon_44"/><text id="ezcGraphTextBox_31_text" x="373.7542" text-length="76.3200px" y="172.5500" style="font-size: 16px; font-family: 'Arial'; fill: #2e3436; fill-opacity: 1.00; stroke: none;">Microsoft</text><text id="ezcGraphTextBox_31_text" x="373.7542" text-length="110.2400px" y="190.1500" style="font-size: 16px; font-family: 'Arial'; fill: #2e3436; fill-opacity: 1.00; stroke: none;">Win... (3.2%)</text></g><g id="ezcGraphTextBox_35" style=" cursor: pointer;" onclick="top.location = 'https://linux-hardware.org/?view=computers&amp;f=node_model_family&amp;v=Microsoft+Virtual&amp;p=99'"><path d=" M 385.1234,229.5500 L 385.1234,195.9500 L 496.8634,195.9500 L 496.8634,229.5500 L 385.1234,229.5500 z " style="fill: #ffffff; fill-opacity: 0.00; stroke: none;" id="ezcGraphPolygon_45"/><text id="ezcGraphTextBox_35_text" x="385.6234" text-length="76.3200px" y="210.0500" style="font-size: 16px; font-family: 'Arial'; fill: #2e3436; fill-opacity: 1.00; stroke: none;">Microsoft</text><text id="ezcGraphTextBox_35_text" x="385.6234" text-length="110.2400px" y="227.6500" style="font-size: 16px; font-family: 'Arial'; fill: #2e3436; fill-opacity: 1.00; stroke: none;">Vir... (2.1%)</text></g><g id="ezcGraphTextBox_39"><path d=" M 385.0476,267.0500 L 385.0476,233.4500 L 437.4276,233.4500 L 437.4276,267.0500 L 385.0476,267.0500 z " style="fill: #ffffff; fill-opacity: 0.00; stroke: none;" id="ezcGraphPolygon_46"/><text id="ezcGraphTextBox_39_text" x="385.5476" text-length="50.8800px" y="247.5500" style="font-size: 16px; font-family: 'Arial'; fill: #2e3436; fill-opacity: 1.00; stroke: none;">Others</text><text id="ezcGraphTextBox_39_text" x="385.5476" text-length="50.8800px" y="265.1500" style="font-size: 16px; font-family: 'Arial'; fill: #2e3436; fill-opacity: 1.00; stroke: none;">(3.6%)</text></g></g></svg>
