<?xml version="1.0"?>
<svg xmlns="http://www.w3.org/2000/svg" width="500" height="420" version="1.0" id="ezcGraph"><defs/><g id="ezcGraphChart" color-rendering="optimizeQuality" shape-rendering="geometricPrecision" text-rendering="optimizeLegibility"><path d=" M 0.0000,420.0000 L 0.0000,0.0000 L 500.0000,0.0000 L 500.0000,420.0000 L 0.0000,420.0000 z " style="fill: #eeeeec; fill-opacity: 1.00; stroke: none;" id="ezcGraphPolygon_1"/><path d=" M 0.0000,42.0000 L 0.0000,0.0000 L 500.0000,0.0000 L 500.0000,42.0000 L 0.0000,42.0000 z " style="fill: #000000; fill-opacity: 0.00; stroke: none;" id="ezcGraphPolygon_2"/><path d="M 244.84,242.38 L 357.34,242.38 A 112.50,112.50 0 1,1 170.70,157.77 z" style="fill: #3465a4; fill-opacity: 1.00; stroke: none; cursor: pointer;" id="ezcGraphCircleSector_4" onclick="top.location = 'https://linux-hardware.org/?view=computers&amp;f=snd_model&amp;v=Intel+82801AA+AC%2797+Audio+Controller&amp;p=99'"/><path d="M 244.61,242.88 L 356.84,242.88 A 112.00,112.00 0 1,1 170.66,158.47 z" style="fill: none; stroke: #1a3352; stroke-width: 1; stroke-opacity: 1.00; stroke-linecap: round; stroke-linejoin: round;" id="ezcGraphCircleSector_5"/><path d="M 250.00,231.00 L 175.86,146.38 A 112.50,112.50 0 0,1 315.51,139.54 z" style="fill: #4e9a06; fill-opacity: 1.00; stroke: none; cursor: pointer;" id="ezcGraphCircleSector_6" onclick="top.location = 'https://linux-hardware.org/?view=computers&amp;f=snd_model&amp;v=Ensoniq+ES1371%2FES1373+%2F+Creative+Labs+CT2518&amp;p=99'"/><path d="M 249.96,230.20 L 176.57,146.43 A 112.00,112.00 0 0,1 314.81,139.65 z" style="fill: none; stroke: #274d03; stroke-width: 1; stroke-opacity: 1.00; stroke-linecap: round; stroke-linejoin: round;" id="ezcGraphCircleSector_7"/><path d="M 250.00,231.00 L 315.51,139.54 A 112.50,112.50 0 0,1 355.81,192.79 z" style="fill: #cc0000; fill-opacity: 1.00; stroke: none; cursor: pointer;" id="ezcGraphCircleSector_8" onclick="top.location = 'https://linux-hardware.org/?view=computers&amp;f=snd_model&amp;v=Intel+82801FB%2FFBM%2FFR%2FFW%2FFRW+%28ICH6+Family%29+High+Definition+Audio+Controller&amp;p=99'"/><path d="M 251.34,229.98 L 315.62,140.24 A 112.00,112.00 0 0,1 355.17,192.49 z" style="fill: none; stroke: #660000; stroke-width: 1; stroke-opacity: 1.00; stroke-linecap: round; stroke-linejoin: round;" id="ezcGraphCircleSector_9"/><path d="M 250.00,231.00 L 355.81,192.79 A 112.50,112.50 0 0,1 361.87,219.16 z" style="fill: #edd400; fill-opacity: 1.00; stroke: none; cursor: pointer;" id="ezcGraphCircleSector_10" onclick="top.location = 'https://linux-hardware.org/?view=computers&amp;f=snd_model&amp;v=Intel+82801I+%28ICH9+Family%29+HD+Audio+Controller&amp;p=99'"/><path d="M 254.05,230.07 L 355.51,193.43 A 112.00,112.00 0 0,1 361.32,218.71 z" style="fill: none; stroke: #776a00; stroke-width: 1; stroke-opacity: 1.00; stroke-linecap: round; stroke-linejoin: round;" id="ezcGraphCircleSector_11"/><path d="M 250.00,231.00 L 361.87,219.16 A 112.50,112.50 0 0,1 362.18,222.53 z" style="fill: #75505b; fill-opacity: 1.00; stroke: none; cursor: pointer;" id="ezcGraphCircleSector_12" onclick="top.location = 'https://linux-hardware.org/?view=computers&amp;f=snd_model&amp;v=Logitech+%5BG533+Wireless+Headset+Dongle%5D&amp;p=99'"/><path d="M 283.05,228.00 L 361.43,219.71 A 112.00,112.00 0 0,1 361.64,222.07 z" style="fill: none; stroke: #3b282e; stroke-width: 1; stroke-opacity: 1.00; stroke-linecap: round; stroke-linejoin: round;" id="ezcGraphCircleSector_13"/><path d="M 250.00,231.00 L 362.18,222.53 A 112.50,112.50 0 0,1 362.50,231.00 z" style="fill: #f57900; fill-opacity: 1.00; stroke: none;" id="ezcGraphCircleSector_14"/><path d="M 263.27,230.50 L 361.72,223.07 A 112.00,112.00 0 0,1 362.00,230.50 z" style="fill: none; stroke: #7b3d00; stroke-width: 1; stroke-opacity: 1.00; stroke-linecap: round; stroke-linejoin: round;" id="ezcGraphCircleSector_15"/><path d=" M 245.9208,147.7666 L 244.0000,106.0000" style="fill: none; stroke: #000000; stroke-width: 1; stroke-opacity: 1.00; stroke-linecap: round; stroke-linejoin: round;" id="ezcGraphLine_16"/><ellipse cx="245.9208" cy="147.7666" rx="3.0000" ry="3.0000" style="fill: #000000; fill-opacity: 1.00; stroke: none;" id="ezcGraphCircle_17"/><ellipse cx="244.0000" cy="106.0000" rx="3.0000" ry="3.0000" style="fill: #000000; fill-opacity: 1.00; stroke: none;" id="ezcGraphCircle_18"/><path d=" M 210.4284,318.2818 L 244.0000,356.0000" style="fill: none; stroke: #000000; stroke-width: 1; stroke-opacity: 1.00; stroke-linecap: round; stroke-linejoin: round;" id="ezcGraphLine_20"/><ellipse cx="210.4284" cy="318.2818" rx="3.0000" ry="3.0000" style="fill: #000000; fill-opacity: 1.00; stroke: none;" id="ezcGraphCircle_21"/><ellipse cx="244.0000" cy="356.0000" rx="3.0000" ry="3.0000" style="fill: #000000; fill-opacity: 1.00; stroke: none;" id="ezcGraphCircle_22"/><path d=" M 316.4458,180.7068 L 355.2421,155.0000" style="fill: none; stroke: #000000; stroke-width: 1; stroke-opacity: 1.00; stroke-linecap: round; stroke-linejoin: round;" id="ezcGraphLine_24"/><ellipse cx="316.4458" cy="180.7068" rx="3.0000" ry="3.0000" style="fill: #000000; fill-opacity: 1.00; stroke: none;" id="ezcGraphCircle_25"/><ellipse cx="355.2421" cy="155.0000" rx="3.0000" ry="3.0000" style="fill: #000000; fill-opacity: 1.00; stroke: none;" id="ezcGraphCircle_26"/><path d=" M 331.2140,212.3255 L 377.5895,202.0000" style="fill: none; stroke: #000000; stroke-width: 1; stroke-opacity: 1.00; stroke-linecap: round; stroke-linejoin: round;" id="ezcGraphLine_28"/><ellipse cx="331.2140" cy="212.3255" rx="3.0000" ry="3.0000" style="fill: #000000; fill-opacity: 1.00; stroke: none;" id="ezcGraphCircle_29"/><ellipse cx="377.5895" cy="202.0000" rx="3.0000" ry="3.0000" style="fill: #000000; fill-opacity: 1.00; stroke: none;" id="ezcGraphCircle_30"/><path d=" M 332.9930,223.4765 L 380.7107,239.5000" style="fill: none; stroke: #000000; stroke-width: 1; stroke-opacity: 1.00; stroke-linecap: round; stroke-linejoin: round;" id="ezcGraphLine_32"/><ellipse cx="332.9930" cy="223.4765" rx="3.0000" ry="3.0000" style="fill: #000000; fill-opacity: 1.00; stroke: none;" id="ezcGraphCircle_33"/><ellipse cx="380.7107" cy="239.5000" rx="3.0000" ry="3.0000" style="fill: #000000; fill-opacity: 1.00; stroke: none;" id="ezcGraphCircle_34"/><path d=" M 333.2742,227.8617 L 372.2282,277.0000" style="fill: none; stroke: #000000; stroke-width: 1; stroke-opacity: 1.00; stroke-linecap: round; stroke-linejoin: round;" id="ezcGraphLine_36"/><ellipse cx="333.2742" cy="227.8617" rx="3.0000" ry="3.0000" style="fill: #000000; fill-opacity: 1.00; stroke: none;" id="ezcGraphCircle_37"/><ellipse cx="372.2282" cy="277.0000" rx="3.0000" ry="3.0000" style="fill: #000000; fill-opacity: 1.00; stroke: none;" id="ezcGraphCircle_38"/><g id="ezcGraphTextBox_3"><path d=" M 132.9000,42.0000 L 132.9000,0.5000 L 367.6000,0.5000 L 367.6000,42.0000 L 132.9000,42.0000 z " style="fill: #ffffff; fill-opacity: 0.00; stroke: none;" id="ezcGraphPolygon_40"/><text id="ezcGraphTextBox_3_text" x="133.4000" text-length="233.2000px" y="35.0000" style="font-size: 40px; font-family: 'Arial'; fill: #2e3436; fill-opacity: 1.00; stroke: none;">Sound Model</text></g><g id="ezcGraphTextBox_19" style=" cursor: pointer;" onclick="top.location = 'https://linux-hardware.org/?view=computers&amp;f=snd_model&amp;v=Ensoniq+ES1371%2FES1373+%2F+Creative+Labs+CT2518&amp;p=99'"><path d=" M 78.5000,113.2500 L 78.5000,99.2500 L 239.0000,99.2500 L 239.0000,113.2500 L 78.5000,113.2500 z " style="fill: #ffffff; fill-opacity: 0.00; stroke: none;" id="ezcGraphPolygon_41"/><text id="ezcGraphTextBox_19_text" x="79.0000" text-length="159.0000px" y="110.3750" style="font-size: 12px; font-family: 'Arial'; fill: #2e3436; fill-opacity: 1.00; stroke: none;">ES1371/ES1373... (21.3%)</text></g><g id="ezcGraphTextBox_23" style=" cursor: pointer;" onclick="top.location = 'https://linux-hardware.org/?view=computers&amp;f=snd_model&amp;v=Intel+82801AA+AC%2797+Audio+Controller&amp;p=99'"><path d=" M 78.5000,363.2500 L 78.5000,349.2500 L 239.0000,349.2500 L 239.0000,363.2500 L 78.5000,363.2500 z " style="fill: #ffffff; fill-opacity: 0.00; stroke: none;" id="ezcGraphPolygon_42"/><text id="ezcGraphTextBox_23_text" x="79.0000" text-length="159.0000px" y="360.3750" style="font-size: 12px; font-family: 'Arial'; fill: #2e3436; fill-opacity: 1.00; stroke: none;">82801AA AC'97... (63.5%)</text></g><g id="ezcGraphTextBox_27" style=" cursor: pointer;" onclick="top.location = 'https://linux-hardware.org/?view=computers&amp;f=snd_model&amp;v=Intel+82801FB%2FFBM%2FFR%2FFW%2FFRW+%28ICH6+Family%29+High+Definition+Audio+Controller&amp;p=99'"><path d=" M 360.7421,168.5500 L 360.7421,141.9500 L 468.2421,141.9500 L 468.2421,168.5500 L 360.7421,168.5500 z " style="fill: #ffffff; fill-opacity: 0.00; stroke: none;" id="ezcGraphPolygon_43"/><text id="ezcGraphTextBox_27_text" x="361.2421" text-length="106.0000px" y="153.0750" style="font-size: 12px; font-family: 'Arial'; fill: #2e3436; fill-opacity: 1.00; stroke: none;">82801FB/FBM/F...</text><text id="ezcGraphTextBox_27_text" x="361.2421" text-length="39.7500px" y="166.8250" style="font-size: 12px; font-family: 'Arial'; fill: #2e3436; fill-opacity: 1.00; stroke: none;">(9.6%)</text></g><g id="ezcGraphTextBox_31" style=" cursor: pointer;" onclick="top.location = 'https://linux-hardware.org/?view=computers&amp;f=snd_model&amp;v=Intel+82801I+%28ICH9+Family%29+HD+Audio+Controller&amp;p=99'"><path d=" M 383.0895,215.5500 L 383.0895,188.9500 L 464.0895,188.9500 L 464.0895,215.5500 L 383.0895,215.5500 z " style="fill: #ffffff; fill-opacity: 0.00; stroke: none;" id="ezcGraphPolygon_44"/><text id="ezcGraphTextBox_31_text" x="383.5895" text-length="79.5000px" y="200.0750" style="font-size: 12px; font-family: 'Arial'; fill: #2e3436; fill-opacity: 1.00; stroke: none;">82801I (ICH9</text><text id="ezcGraphTextBox_31_text" x="383.5895" text-length="66.2500px" y="213.8250" style="font-size: 12px; font-family: 'Arial'; fill: #2e3436; fill-opacity: 1.00; stroke: none;">... (3.8%)</text></g><g id="ezcGraphTextBox_35" style=" cursor: pointer;" onclick="top.location = 'https://linux-hardware.org/?view=computers&amp;f=snd_model&amp;v=Logitech+%5BG533+Wireless+Headset+Dongle%5D&amp;p=99'"><path d=" M 386.2107,253.0500 L 386.2107,226.4500 L 493.7107,226.4500 L 493.7107,253.0500 L 386.2107,253.0500 z " style="fill: #ffffff; fill-opacity: 0.00; stroke: none;" id="ezcGraphPolygon_45"/><text id="ezcGraphTextBox_35_text" x="386.7107" text-length="106.0000px" y="237.5750" style="font-size: 12px; font-family: 'Arial'; fill: #2e3436; fill-opacity: 1.00; stroke: none;">[G533 Wireles...</text><text id="ezcGraphTextBox_35_text" x="386.7107" text-length="39.7500px" y="251.3250" style="font-size: 12px; font-family: 'Arial'; fill: #2e3436; fill-opacity: 1.00; stroke: none;">(0.5%)</text></g><g id="ezcGraphTextBox_39"><path d=" M 377.7282,284.2500 L 377.7282,270.2500 L 465.3532,270.2500 L 465.3532,284.2500 L 377.7282,284.2500 z " style="fill: #ffffff; fill-opacity: 0.00; stroke: none;" id="ezcGraphPolygon_46"/><text id="ezcGraphTextBox_39_text" x="378.2282" text-length="86.1250px" y="281.3750" style="font-size: 12px; font-family: 'Arial'; fill: #2e3436; fill-opacity: 1.00; stroke: none;">Others (1.2%)</text></g></g></svg>
