<?xml version="1.0"?>
<svg xmlns="http://www.w3.org/2000/svg" width="500" height="420" version="1.0" id="ezcGraph"><defs/><g id="ezcGraphChart" color-rendering="optimizeQuality" shape-rendering="geometricPrecision" text-rendering="optimizeLegibility"><path d=" M 0.0000,420.0000 L 0.0000,0.0000 L 500.0000,0.0000 L 500.0000,420.0000 L 0.0000,420.0000 z " style="fill: #eeeeec; fill-opacity: 1.00; stroke: none;" id="ezcGraphPolygon_1"/><path d=" M 0.0000,42.0000 L 0.0000,0.0000 L 500.0000,0.0000 L 500.0000,42.0000 L 0.0000,42.0000 z " style="fill: #000000; fill-opacity: 0.00; stroke: none;" id="ezcGraphPolygon_2"/><path d="M 242.87,241.27 L 355.37,241.27 A 112.50,112.50 0 1,1 203.51,135.88 z" style="fill: #3465a4; fill-opacity: 1.00; stroke: none; cursor: pointer;" id="ezcGraphCircleSector_4" onclick="top.location = 'https://linux-hardware.org/?view=computers&amp;f=snd_model&amp;v=Intel+82801AA+AC%2797+Audio+Controller&amp;p=99'"/><path d="M 242.53,241.77 L 354.87,241.77 A 112.00,112.00 0 1,1 203.21,136.53 z" style="fill: none; stroke: #1a3352; stroke-width: 1; stroke-opacity: 1.00; stroke-linecap: round; stroke-linejoin: round;" id="ezcGraphCircleSector_5"/><path d="M 250.00,231.00 L 210.63,125.61 A 112.50,112.50 0 0,1 326.48,148.49 z" style="fill: #4e9a06; fill-opacity: 1.00; stroke: none; cursor: pointer;" id="ezcGraphCircleSector_6" onclick="top.location = 'https://linux-hardware.org/?view=computers&amp;f=snd_model&amp;v=Ensoniq+ES1371%2FES1373+%2F+Creative+Labs+CT2518&amp;p=99'"/><path d="M 250.18,230.07 L 211.28,125.91 A 112.00,112.00 0 0,1 325.77,148.52 z" style="fill: none; stroke: #274d03; stroke-width: 1; stroke-opacity: 1.00; stroke-linecap: round; stroke-linejoin: round;" id="ezcGraphCircleSector_7"/><path d="M 250.00,231.00 L 326.48,148.49 A 112.50,112.50 0 0,1 359.32,204.44 z" style="fill: #cc0000; fill-opacity: 1.00; stroke: none; cursor: pointer;" id="ezcGraphCircleSector_8" onclick="top.location = 'https://linux-hardware.org/?view=computers&amp;f=snd_model&amp;v=Intel+82801FB%2FFBM%2FFR%2FFW%2FFRW+%28ICH6+Family%29+High+Definition+Audio+Controller&amp;p=99'"/><path d="M 251.50,230.12 L 326.50,149.20 A 112.00,112.00 0 0,1 358.72,204.07 z" style="fill: none; stroke: #660000; stroke-width: 1; stroke-opacity: 1.00; stroke-linecap: round; stroke-linejoin: round;" id="ezcGraphCircleSector_9"/><path d="M 250.00,231.00 L 359.32,204.44 A 112.50,112.50 0 0,1 362.47,228.56 z" style="fill: #edd400; fill-opacity: 1.00; stroke: none; cursor: pointer;" id="ezcGraphCircleSector_10" onclick="top.location = 'https://linux-hardware.org/?view=computers&amp;f=snd_model&amp;v=Intel+82801I+%28ICH9+Family%29+HD+Audio+Controller&amp;p=99'"/><path d="M 254.59,230.40 L 358.95,205.05 A 112.00,112.00 0 0,1 361.96,228.07 z" style="fill: none; stroke: #776a00; stroke-width: 1; stroke-opacity: 1.00; stroke-linecap: round; stroke-linejoin: round;" id="ezcGraphCircleSector_11"/><path d="M 250.00,231.00 L 362.47,228.56 A 112.50,112.50 0 0,1 362.50,231.00 z" style="fill: #75505b; fill-opacity: 1.00; stroke: none; cursor: pointer;" id="ezcGraphCircleSector_12" onclick="top.location = 'https://linux-hardware.org/?view=computers&amp;f=snd_model&amp;v=Intel+82801BA%2FBAM+AC%2797+Audio+Controller&amp;p=99'"/><path d="M 296.15,230.50 L 361.98,229.07 A 112.00,112.00 0 0,1 362.00,230.50 z" style="fill: none; stroke: #3b282e; stroke-width: 1; stroke-opacity: 1.00; stroke-linecap: round; stroke-linejoin: round;" id="ezcGraphCircleSector_13"/><path d=" M 195.3635,309.7329 L 188.4932,343.0000" style="fill: none; stroke: #000000; stroke-width: 1; stroke-opacity: 1.00; stroke-linecap: round; stroke-linejoin: round;" id="ezcGraphLine_14"/><ellipse cx="195.3635" cy="309.7329" rx="3.0000" ry="3.0000" style="fill: #000000; fill-opacity: 1.00; stroke: none;" id="ezcGraphCircle_15"/><ellipse cx="188.4932" cy="343.0000" rx="3.0000" ry="3.0000" style="fill: #000000; fill-opacity: 1.00; stroke: none;" id="ezcGraphCircle_16"/><path d=" M 266.1468,149.2460 L 278.2711,108.0000" style="fill: none; stroke: #000000; stroke-width: 1; stroke-opacity: 1.00; stroke-linecap: round; stroke-linejoin: round;" id="ezcGraphLine_18"/><ellipse cx="266.1468" cy="149.2460" rx="3.0000" ry="3.0000" style="fill: #000000; fill-opacity: 1.00; stroke: none;" id="ezcGraphCircle_19"/><ellipse cx="278.2711" cy="108.0000" rx="3.0000" ry="3.0000" style="fill: #000000; fill-opacity: 1.00; stroke: none;" id="ezcGraphCircle_20"/><path d=" M 321.8660,188.8132 L 363.3732,167.0000" style="fill: none; stroke: #000000; stroke-width: 1; stroke-opacity: 1.00; stroke-linecap: round; stroke-linejoin: round;" id="ezcGraphLine_22"/><ellipse cx="321.8660" cy="188.8132" rx="3.0000" ry="3.0000" style="fill: #000000; fill-opacity: 1.00; stroke: none;" id="ezcGraphCircle_23"/><ellipse cx="363.3732" cy="167.0000" rx="3.0000" ry="3.0000" style="fill: #000000; fill-opacity: 1.00; stroke: none;" id="ezcGraphCircle_24"/><path d=" M 332.6302,220.1974 L 379.8386,214.0000" style="fill: none; stroke: #000000; stroke-width: 1; stroke-opacity: 1.00; stroke-linecap: round; stroke-linejoin: round;" id="ezcGraphLine_26"/><ellipse cx="332.6302" cy="220.1974" rx="3.0000" ry="3.0000" style="fill: #000000; fill-opacity: 1.00; stroke: none;" id="ezcGraphCircle_27"/><ellipse cx="379.8386" cy="214.0000" rx="3.0000" ry="3.0000" style="fill: #000000; fill-opacity: 1.00; stroke: none;" id="ezcGraphCircle_28"/><path d=" M 333.3284,230.0973 L 379.3075,251.5000" style="fill: none; stroke: #000000; stroke-width: 1; stroke-opacity: 1.00; stroke-linecap: round; stroke-linejoin: round;" id="ezcGraphLine_30"/><ellipse cx="333.3284" cy="230.0973" rx="3.0000" ry="3.0000" style="fill: #000000; fill-opacity: 1.00; stroke: none;" id="ezcGraphCircle_31"/><ellipse cx="379.3075" cy="251.5000" rx="3.0000" ry="3.0000" style="fill: #000000; fill-opacity: 1.00; stroke: none;" id="ezcGraphCircle_32"/><g id="ezcGraphTextBox_3"><path d=" M 132.9000,42.0000 L 132.9000,0.5000 L 367.6000,0.5000 L 367.6000,42.0000 L 132.9000,42.0000 z " style="fill: #ffffff; fill-opacity: 0.00; stroke: none;" id="ezcGraphPolygon_34"/><text id="ezcGraphTextBox_3_text" x="133.4000" text-length="233.2000px" y="35.0000" style="font-size: 40px; font-family: 'Arial'; fill: #2e3436; fill-opacity: 1.00; stroke: none;">Sound Model</text></g><g id="ezcGraphTextBox_17" style=" cursor: pointer;" onclick="top.location = 'https://linux-hardware.org/?view=computers&amp;f=snd_model&amp;v=Intel+82801AA+AC%2797+Audio+Controller&amp;p=99'"><path d=" M 54.7932,359.0500 L 54.7932,327.4500 L 183.4932,327.4500 L 183.4932,359.0500 L 54.7932,359.0500 z " style="fill: #ffffff; fill-opacity: 0.00; stroke: none;" id="ezcGraphPolygon_35"/><text id="ezcGraphTextBox_17_text" x="55.2932" text-length="127.2000px" y="340.7000" style="font-size: 15px; font-family: 'Arial'; fill: #2e3436; fill-opacity: 1.00; stroke: none;">82801AA AC'97...</text><text id="ezcGraphTextBox_17_text" x="126.8432" text-length="55.6500px" y="357.2000" style="font-size: 15px; font-family: 'Arial'; fill: #2e3436; fill-opacity: 1.00; stroke: none;">(69.3%)</text></g><g id="ezcGraphTextBox_21" style=" cursor: pointer;" onclick="top.location = 'https://linux-hardware.org/?view=computers&amp;f=snd_model&amp;v=Ensoniq+ES1371%2FES1373+%2F+Creative+Labs+CT2518&amp;p=99'"><path d=" M 283.7711,124.0500 L 283.7711,92.4500 L 412.4711,92.4500 L 412.4711,124.0500 L 283.7711,124.0500 z " style="fill: #ffffff; fill-opacity: 0.00; stroke: none;" id="ezcGraphPolygon_36"/><text id="ezcGraphTextBox_21_text" x="284.2711" text-length="127.2000px" y="105.7000" style="font-size: 15px; font-family: 'Arial'; fill: #2e3436; fill-opacity: 1.00; stroke: none;">ES1371/ES1373...</text><text id="ezcGraphTextBox_21_text" x="284.2711" text-length="55.6500px" y="122.2000" style="font-size: 15px; font-family: 'Arial'; fill: #2e3436; fill-opacity: 1.00; stroke: none;">(17.6%)</text></g><g id="ezcGraphTextBox_25" style=" cursor: pointer;" onclick="top.location = 'https://linux-hardware.org/?view=computers&amp;f=snd_model&amp;v=Intel+82801FB%2FFBM%2FFR%2FFW%2FFRW+%28ICH6+Family%29+High+Definition+Audio+Controller&amp;p=99'"><path d=" M 368.8732,183.0500 L 368.8732,151.4500 L 497.5732,151.4500 L 497.5732,183.0500 L 368.8732,183.0500 z " style="fill: #ffffff; fill-opacity: 0.00; stroke: none;" id="ezcGraphPolygon_37"/><text id="ezcGraphTextBox_25_text" x="369.3732" text-length="127.2000px" y="164.7000" style="font-size: 15px; font-family: 'Arial'; fill: #2e3436; fill-opacity: 1.00; stroke: none;">82801FB/FBM/F...</text><text id="ezcGraphTextBox_25_text" x="369.3732" text-length="47.7000px" y="181.2000" style="font-size: 15px; font-family: 'Arial'; fill: #2e3436; fill-opacity: 1.00; stroke: none;">(9.3%)</text></g><g id="ezcGraphTextBox_29" style=" cursor: pointer;" onclick="top.location = 'https://linux-hardware.org/?view=computers&amp;f=snd_model&amp;v=Intel+82801I+%28ICH9+Family%29+HD+Audio+Controller&amp;p=99'"><path d=" M 385.3386,230.0500 L 385.3386,198.4500 L 482.2386,198.4500 L 482.2386,230.0500 L 385.3386,230.0500 z " style="fill: #ffffff; fill-opacity: 0.00; stroke: none;" id="ezcGraphPolygon_38"/><text id="ezcGraphTextBox_29_text" x="385.8386" text-length="95.4000px" y="211.7000" style="font-size: 15px; font-family: 'Arial'; fill: #2e3436; fill-opacity: 1.00; stroke: none;">82801I (ICH9</text><text id="ezcGraphTextBox_29_text" x="385.8386" text-length="79.5000px" y="228.2000" style="font-size: 15px; font-family: 'Arial'; fill: #2e3436; fill-opacity: 1.00; stroke: none;">... (3.4%)</text></g><g id="ezcGraphTextBox_33" style=" cursor: pointer;" onclick="top.location = 'https://linux-hardware.org/?view=computers&amp;f=snd_model&amp;v=Intel+82801BA%2FBAM+AC%2797+Audio+Controller&amp;p=99'"><path d=" M 384.8075,267.5500 L 384.8075,235.9500 L 473.7575,235.9500 L 473.7575,267.5500 L 384.8075,267.5500 z " style="fill: #ffffff; fill-opacity: 0.00; stroke: none;" id="ezcGraphPolygon_39"/><text id="ezcGraphTextBox_33_text" x="385.3075" text-length="87.4500px" y="249.2000" style="font-size: 15px; font-family: 'Arial'; fill: #2e3436; fill-opacity: 1.00; stroke: none;">82801BA/BAM</text><text id="ezcGraphTextBox_33_text" x="385.3075" text-length="87.4500px" y="265.7000" style="font-size: 15px; font-family: 'Arial'; fill: #2e3436; fill-opacity: 1.00; stroke: none;">A... (0.3%)</text></g></g></svg>
