<?xml version="1.0"?>
<svg xmlns="http://www.w3.org/2000/svg" width="500" height="420" version="1.0" id="ezcGraph"><defs/><g id="ezcGraphChart" color-rendering="optimizeQuality" shape-rendering="geometricPrecision" text-rendering="optimizeLegibility"><path d=" M 0.0000,420.0000 L 0.0000,0.0000 L 500.0000,0.0000 L 500.0000,420.0000 L 0.0000,420.0000 z " style="fill: #eeeeec; fill-opacity: 1.00; stroke: none;" id="ezcGraphPolygon_1"/><path d=" M 0.0000,42.0000 L 0.0000,0.0000 L 500.0000,0.0000 L 500.0000,42.0000 L 0.0000,42.0000 z " style="fill: #000000; fill-opacity: 0.00; stroke: none;" id="ezcGraphPolygon_2"/><path d="M 252.37,243.27 L 364.87,243.27 A 112.50,112.50 0 0,1 147.97,285.19 z" style="fill: #3465a4; fill-opacity: 1.00; stroke: none; cursor: pointer;" id="ezcGraphCircleSector_4" onclick="top.location = 'https://linux-hardware.org/?view=computers&amp;f=storage_model&amp;v=Intel+82371AB%2FEB%2FMB+PIIX4+IDE&amp;p=99'"/><path d="M 252.47,243.77 L 364.37,243.77 A 112.00,112.00 0 0,1 148.62,285.47 z" style="fill: none; stroke: #1a3352; stroke-width: 1; stroke-opacity: 1.00; stroke-linecap: round; stroke-linejoin: round;" id="ezcGraphCircleSector_5"/><path d="M 250.00,231.00 L 145.60,272.92 A 112.50,112.50 0 0,1 276.74,121.72 z" style="fill: #4e9a06; fill-opacity: 1.00; stroke: none; cursor: pointer;" id="ezcGraphCircleSector_6" onclick="top.location = 'https://linux-hardware.org/?view=computers&amp;f=storage_model&amp;v=Intel+82801HM%2FHEM+%28ICH8M%2FICH8M-E%29+SATA+Controller+%5BAHCI+mode%5D&amp;p=99'"/><path d="M 249.58,230.63 L 145.88,272.27 A 112.00,112.00 0 0,1 276.14,122.09 z" style="fill: none; stroke: #274d03; stroke-width: 1; stroke-opacity: 1.00; stroke-linecap: round; stroke-linejoin: round;" id="ezcGraphCircleSector_7"/><path d="M 250.00,231.00 L 276.74,121.72 A 112.50,112.50 0 0,1 308.36,134.82 z" style="fill: #cc0000; fill-opacity: 1.00; stroke: none; cursor: pointer;" id="ezcGraphCircleSector_8" onclick="top.location = 'https://linux-hardware.org/?view=computers&amp;f=storage_model&amp;v=VMware+NVMe+SSD+Controller&amp;p=99'"/><path d="M 251.26,227.96 L 277.11,122.33 A 112.00,112.00 0 0,1 307.68,134.99 z" style="fill: none; stroke: #660000; stroke-width: 1; stroke-opacity: 1.00; stroke-linecap: round; stroke-linejoin: round;" id="ezcGraphCircleSector_9"/><path d="M 250.00,231.00 L 308.36,134.82 A 112.50,112.50 0 0,1 333.77,155.91 z" style="fill: #edd400; fill-opacity: 1.00; stroke: none; cursor: pointer;" id="ezcGraphCircleSector_10" onclick="top.location = 'https://linux-hardware.org/?view=computers&amp;f=storage_model&amp;v=LSI+Logic+%2F+Symbios+Logic+53c1030+PCI-X+Fusion-MPT+Dual+Ultra320+SCSI&amp;p=99'"/><path d="M 252.18,228.38 L 308.53,135.51 A 112.00,112.00 0 0,1 333.06,155.87 z" style="fill: none; stroke: #776a00; stroke-width: 1; stroke-opacity: 1.00; stroke-linecap: round; stroke-linejoin: round;" id="ezcGraphCircleSector_11"/><path d="M 250.00,231.00 L 333.77,155.91 A 112.50,112.50 0 0,1 351.96,183.46 z" style="fill: #75505b; fill-opacity: 1.00; stroke: none; cursor: pointer;" id="ezcGraphCircleSector_12" onclick="top.location = 'https://linux-hardware.org/?view=computers&amp;f=storage_model&amp;v=Intel+82371SB+PIIX3+IDE+%5BNatoma%2FTriton+II%5D&amp;p=99'"/><path d="M 252.84,229.12 L 333.73,156.61 A 112.00,112.00 0 0,1 351.30,183.21 z" style="fill: none; stroke: #3b282e; stroke-width: 1; stroke-opacity: 1.00; stroke-linecap: round; stroke-linejoin: round;" id="ezcGraphCircleSector_13"/><path d="M 250.00,231.00 L 351.96,183.46 A 112.50,112.50 0 0,1 362.50,231.00 z" style="fill: #f57900; fill-opacity: 1.00; stroke: none;" id="ezcGraphCircleSector_14"/><path d="M 252.26,230.50 L 351.72,184.12 A 112.00,112.00 0 0,1 362.00,230.50 z" style="fill: none; stroke: #7b3d00; stroke-width: 1; stroke-opacity: 1.00; stroke-linecap: round; stroke-linejoin: round;" id="ezcGraphCircleSector_15"/><path d=" M 187.0479,176.3971 L 149.6549,149.0000" style="fill: none; stroke: #000000; stroke-width: 1; stroke-opacity: 1.00; stroke-linecap: round; stroke-linejoin: round;" id="ezcGraphLine_16"/><ellipse cx="187.0479" cy="176.3971" rx="3.0000" ry="3.0000" style="fill: #000000; fill-opacity: 1.00; stroke: none;" id="ezcGraphCircle_17"/><ellipse cx="149.6549" cy="149.0000" rx="3.0000" ry="3.0000" style="fill: #000000; fill-opacity: 1.00; stroke: none;" id="ezcGraphCircle_18"/><path d=" M 281.8903,154.0100 L 302.5725,115.0000" style="fill: none; stroke: #000000; stroke-width: 1; stroke-opacity: 1.00; stroke-linecap: round; stroke-linejoin: round;" id="ezcGraphLine_20"/><ellipse cx="281.8903" cy="154.0100" rx="3.0000" ry="3.0000" style="fill: #000000; fill-opacity: 1.00; stroke: none;" id="ezcGraphCircle_21"/><ellipse cx="302.5725" cy="115.0000" rx="3.0000" ry="3.0000" style="fill: #000000; fill-opacity: 1.00; stroke: none;" id="ezcGraphCircle_22"/><path d=" M 303.2167,166.8718 L 351.2050,150.0000" style="fill: none; stroke: #000000; stroke-width: 1; stroke-opacity: 1.00; stroke-linecap: round; stroke-linejoin: round;" id="ezcGraphLine_24"/><ellipse cx="303.2167" cy="166.8718" rx="3.0000" ry="3.0000" style="fill: #000000; fill-opacity: 1.00; stroke: none;" id="ezcGraphCircle_25"/><ellipse cx="351.2050" cy="150.0000" rx="3.0000" ry="3.0000" style="fill: #000000; fill-opacity: 1.00; stroke: none;" id="ezcGraphCircle_26"/><path d=" M 319.5406,185.0811 L 372.2282,185.0000" style="fill: none; stroke: #000000; stroke-width: 1; stroke-opacity: 1.00; stroke-linecap: round; stroke-linejoin: round;" id="ezcGraphLine_28"/><ellipse cx="319.5406" cy="185.0811" rx="3.0000" ry="3.0000" style="fill: #000000; fill-opacity: 1.00; stroke: none;" id="ezcGraphCircle_29"/><ellipse cx="372.2282" cy="185.0000" rx="3.0000" ry="3.0000" style="fill: #000000; fill-opacity: 1.00; stroke: none;" id="ezcGraphCircle_30"/><path d=" M 331.3580,212.9634 L 380.5151,220.0000" style="fill: none; stroke: #000000; stroke-width: 1; stroke-opacity: 1.00; stroke-linecap: round; stroke-linejoin: round;" id="ezcGraphLine_32"/><ellipse cx="331.3580" cy="212.9634" rx="3.0000" ry="3.0000" style="fill: #000000; fill-opacity: 1.00; stroke: none;" id="ezcGraphCircle_33"/><ellipse cx="380.5151" cy="220.0000" rx="3.0000" ry="3.0000" style="fill: #000000; fill-opacity: 1.00; stroke: none;" id="ezcGraphCircle_34"/><path d=" M 268.1832,325.0925 L 268.1832,366.0000" style="fill: none; stroke: #000000; stroke-width: 1; stroke-opacity: 1.00; stroke-linecap: round; stroke-linejoin: round;" id="ezcGraphLine_36"/><ellipse cx="268.1832" cy="325.0925" rx="3.0000" ry="3.0000" style="fill: #000000; fill-opacity: 1.00; stroke: none;" id="ezcGraphCircle_37"/><ellipse cx="268.1832" cy="366.0000" rx="3.0000" ry="3.0000" style="fill: #000000; fill-opacity: 1.00; stroke: none;" id="ezcGraphCircle_38"/><g id="ezcGraphTextBox_3"><path d=" M 111.7000,42.0000 L 111.7000,0.5000 L 388.8000,0.5000 L 388.8000,42.0000 L 111.7000,42.0000 z " style="fill: #ffffff; fill-opacity: 0.00; stroke: none;" id="ezcGraphPolygon_40"/><text id="ezcGraphTextBox_3_text" x="112.2000" text-length="275.6000px" y="35.0000" style="font-size: 40px; font-family: 'Arial'; fill: #2e3436; fill-opacity: 1.00; stroke: none;">Storage Model</text></g><g id="ezcGraphTextBox_19" style=" cursor: pointer;" onclick="top.location = 'https://linux-hardware.org/?view=computers&amp;f=storage_model&amp;v=Intel+82801HM%2FHEM+%28ICH8M%2FICH8M-E%29+SATA+Controller+%5BAHCI+mode%5D&amp;p=99'"><path d=" M 15.9549,165.0500 L 15.9549,133.4500 L 144.6549,133.4500 L 144.6549,165.0500 L 15.9549,165.0500 z " style="fill: #ffffff; fill-opacity: 0.00; stroke: none;" id="ezcGraphPolygon_41"/><text id="ezcGraphTextBox_19_text" x="16.4549" text-length="127.2000px" y="146.7000" style="font-size: 15px; font-family: 'Arial'; fill: #2e3436; fill-opacity: 1.00; stroke: none;">82801HM/HEM (...</text><text id="ezcGraphTextBox_19_text" x="88.0049" text-length="55.6500px" y="163.2000" style="font-size: 15px; font-family: 'Arial'; fill: #2e3436; fill-opacity: 1.00; stroke: none;">(34.9%)</text></g><g id="ezcGraphTextBox_23" style=" cursor: pointer;" onclick="top.location = 'https://linux-hardware.org/?view=computers&amp;f=storage_model&amp;v=VMware+NVMe+SSD+Controller&amp;p=99'"><path d=" M 308.0725,131.0500 L 308.0725,99.4500 L 436.7725,99.4500 L 436.7725,131.0500 L 308.0725,131.0500 z " style="fill: #ffffff; fill-opacity: 0.00; stroke: none;" id="ezcGraphPolygon_42"/><text id="ezcGraphTextBox_23_text" x="308.5725" text-length="127.2000px" y="112.7000" style="font-size: 15px; font-family: 'Arial'; fill: #2e3436; fill-opacity: 1.00; stroke: none;">NVMe SSD Cont...</text><text id="ezcGraphTextBox_23_text" x="308.5725" text-length="47.7000px" y="129.2000" style="font-size: 15px; font-family: 'Arial'; fill: #2e3436; fill-opacity: 1.00; stroke: none;">(4.9%)</text></g><g id="ezcGraphTextBox_27" style=" cursor: pointer;" onclick="top.location = 'https://linux-hardware.org/?view=computers&amp;f=storage_model&amp;v=LSI+Logic+%2F+Symbios+Logic+53c1030+PCI-X+Fusion-MPT+Dual+Ultra320+SCSI&amp;p=99'"><path d=" M 356.7050,166.0500 L 356.7050,134.4500 L 485.4050,134.4500 L 485.4050,166.0500 L 356.7050,166.0500 z " style="fill: #ffffff; fill-opacity: 0.00; stroke: none;" id="ezcGraphPolygon_43"/><text id="ezcGraphTextBox_27_text" x="357.2050" text-length="127.2000px" y="147.7000" style="font-size: 15px; font-family: 'Arial'; fill: #2e3436; fill-opacity: 1.00; stroke: none;">53c1030 PCI-X...</text><text id="ezcGraphTextBox_27_text" x="357.2050" text-length="47.7000px" y="164.2000" style="font-size: 15px; font-family: 'Arial'; fill: #2e3436; fill-opacity: 1.00; stroke: none;">(4.7%)</text></g><g id="ezcGraphTextBox_31" style=" cursor: pointer;" onclick="top.location = 'https://linux-hardware.org/?view=computers&amp;f=storage_model&amp;v=Intel+82371SB+PIIX3+IDE+%5BNatoma%2FTriton+II%5D&amp;p=99'"><path d=" M 377.7282,201.0500 L 377.7282,169.4500 L 498.4782,169.4500 L 498.4782,201.0500 L 377.7282,201.0500 z " style="fill: #ffffff; fill-opacity: 0.00; stroke: none;" id="ezcGraphPolygon_44"/><text id="ezcGraphTextBox_31_text" x="378.2282" text-length="55.6500px" y="182.7000" style="font-size: 15px; font-family: 'Arial'; fill: #2e3436; fill-opacity: 1.00; stroke: none;">82371SB</text><text id="ezcGraphTextBox_31_text" x="378.2282" text-length="119.2500px" y="199.2000" style="font-size: 15px; font-family: 'Arial'; fill: #2e3436; fill-opacity: 1.00; stroke: none;">PIIX3... (4.7%)</text></g><g id="ezcGraphTextBox_35"><path d=" M 386.0151,228.5000 L 386.0151,212.0000 L 490.8651,212.0000 L 490.8651,228.5000 L 386.0151,228.5000 z " style="fill: #ffffff; fill-opacity: 0.00; stroke: none;" id="ezcGraphPolygon_45"/><text id="ezcGraphTextBox_35_text" x="386.5151" text-length="103.3500px" y="225.2500" style="font-size: 15px; font-family: 'Arial'; fill: #2e3436; fill-opacity: 1.00; stroke: none;">Others (6.9%)</text></g><g id="ezcGraphTextBox_39" style=" cursor: pointer;" onclick="top.location = 'https://linux-hardware.org/?view=computers&amp;f=storage_model&amp;v=Intel+82371AB%2FEB%2FMB+PIIX4+IDE&amp;p=99'"><path d=" M 273.6832,374.5000 L 273.6832,358.0000 L 465.9832,358.0000 L 465.9832,374.5000 L 273.6832,374.5000 z " style="fill: #ffffff; fill-opacity: 0.00; stroke: none;" id="ezcGraphPolygon_46"/><text id="ezcGraphTextBox_39_text" x="274.1832" text-length="190.8000px" y="371.2500" style="font-size: 15px; font-family: 'Arial'; fill: #2e3436; fill-opacity: 1.00; stroke: none;">82371AB/EB/MB... (43.9%)</text></g></g></svg>
