<?xml version="1.0"?>
<svg xmlns="http://www.w3.org/2000/svg" width="500" height="420" version="1.0" id="ezcGraph"><defs/><g id="ezcGraphChart" color-rendering="optimizeQuality" shape-rendering="geometricPrecision" text-rendering="optimizeLegibility"><path d=" M 0.0000,420.0000 L 0.0000,0.0000 L 500.0000,0.0000 L 500.0000,420.0000 L 0.0000,420.0000 z " style="fill: #eeeeec; fill-opacity: 1.00; stroke: none;" id="ezcGraphPolygon_1"/><path d=" M 0.0000,42.0000 L 0.0000,0.0000 L 500.0000,0.0000 L 500.0000,42.0000 L 0.0000,42.0000 z " style="fill: #000000; fill-opacity: 0.00; stroke: none;" id="ezcGraphPolygon_2"/><path d="M 238.66,236.25 L 351.16,236.25 A 112.50,112.50 0 1,1 311.49,150.51 z" style="fill: #3465a4; fill-opacity: 1.00; stroke: none; cursor: pointer;" id="ezcGraphCircleSector_4" onclick="top.location = 'https://linux-hardware.org/?view=computers&amp;f=os_name&amp;v=ROSA+12.2&amp;p=99'"/><path d="M 237.57,236.75 L 350.66,236.75 A 112.00,112.00 0 1,1 310.78,150.56 z" style="fill: none; stroke: #1a3352; stroke-width: 1; stroke-opacity: 1.00; stroke-linecap: round; stroke-linejoin: round;" id="ezcGraphCircleSector_5"/><path d="M 250.00,231.00 L 322.83,145.26 A 112.50,112.50 0 0,1 346.40,173.00 z" style="fill: #4e9a06; fill-opacity: 1.00; stroke: none; cursor: pointer;" id="ezcGraphCircleSector_6" onclick="top.location = 'https://linux-hardware.org/?view=computers&amp;f=os_name&amp;v=ROSA+12.1&amp;p=99'"/><path d="M 252.36,229.00 L 322.89,145.96 A 112.00,112.00 0 0,1 345.71,172.83 z" style="fill: none; stroke: #274d03; stroke-width: 1; stroke-opacity: 1.00; stroke-linecap: round; stroke-linejoin: round;" id="ezcGraphCircleSector_7"/><path d="M 250.00,231.00 L 346.40,173.00 A 112.50,112.50 0 0,1 356.61,195.08 z" style="fill: #cc0000; fill-opacity: 1.00; stroke: none; cursor: pointer;" id="ezcGraphCircleSector_8" onclick="top.location = 'https://linux-hardware.org/?view=computers&amp;f=os_name&amp;v=ROSA+R11.1&amp;p=99'"/><path d="M 254.20,229.06 L 346.23,173.69 A 112.00,112.00 0 0,1 355.98,194.76 z" style="fill: none; stroke: #660000; stroke-width: 1; stroke-opacity: 1.00; stroke-linecap: round; stroke-linejoin: round;" id="ezcGraphCircleSector_9"/><path d="M 250.00,231.00 L 356.61,195.08 A 112.50,112.50 0 0,1 361.84,218.84 z" style="fill: #edd400; fill-opacity: 1.00; stroke: none; cursor: pointer;" id="ezcGraphCircleSector_10" onclick="top.location = 'https://linux-hardware.org/?view=computers&amp;f=os_name&amp;v=ROSA+12&amp;p=99'"/><path d="M 254.52,230.01 L 356.30,195.71 A 112.00,112.00 0 0,1 361.29,218.39 z" style="fill: none; stroke: #776a00; stroke-width: 1; stroke-opacity: 1.00; stroke-linecap: round; stroke-linejoin: round;" id="ezcGraphCircleSector_11"/><path d="M 250.00,231.00 L 361.84,218.84 A 112.50,112.50 0 0,1 362.50,231.00 z" style="fill: #75505b; fill-opacity: 1.00; stroke: none; cursor: pointer;" id="ezcGraphCircleSector_12" onclick="top.location = 'https://linux-hardware.org/?view=computers&amp;f=os_name&amp;v=ROSA+2019.05&amp;p=99'"/><path d="M 259.22,230.50 L 361.40,219.39 A 112.00,112.00 0 0,1 362.00,230.50 z" style="fill: none; stroke: #3b282e; stroke-width: 1; stroke-opacity: 1.00; stroke-linecap: round; stroke-linejoin: round;" id="ezcGraphCircleSector_13"/><path d=" M 163.0240,271.2394 L 132.7525,288.0000" style="fill: none; stroke: #000000; stroke-width: 1; stroke-opacity: 1.00; stroke-linecap: round; stroke-linejoin: round;" id="ezcGraphLine_14"/><ellipse cx="163.0240" cy="271.2394" rx="3.0000" ry="3.0000" style="fill: #000000; fill-opacity: 1.00; stroke: none;" id="ezcGraphCircle_15"/><ellipse cx="132.7525" cy="288.0000" rx="3.0000" ry="3.0000" style="fill: #000000; fill-opacity: 1.00; stroke: none;" id="ezcGraphCircle_16"/><path d=" M 313.5135,177.0511 L 351.2050,150.0000" style="fill: none; stroke: #000000; stroke-width: 1; stroke-opacity: 1.00; stroke-linecap: round; stroke-linejoin: round;" id="ezcGraphLine_18"/><ellipse cx="313.5135" cy="177.0511" rx="3.0000" ry="3.0000" style="fill: #000000; fill-opacity: 1.00; stroke: none;" id="ezcGraphCircle_19"/><ellipse cx="351.2050" cy="150.0000" rx="3.0000" ry="3.0000" style="fill: #000000; fill-opacity: 1.00; stroke: none;" id="ezcGraphCircle_20"/><path d=" M 325.6313,196.0092 L 373.1868,187.5000" style="fill: none; stroke: #000000; stroke-width: 1; stroke-opacity: 1.00; stroke-linecap: round; stroke-linejoin: round;" id="ezcGraphLine_22"/><ellipse cx="325.6313" cy="196.0092" rx="3.0000" ry="3.0000" style="fill: #000000; fill-opacity: 1.00; stroke: none;" id="ezcGraphCircle_23"/><ellipse cx="373.1868" cy="187.5000" rx="3.0000" ry="3.0000" style="fill: #000000; fill-opacity: 1.00; stroke: none;" id="ezcGraphCircle_24"/><path d=" M 331.3850,213.0858 L 380.8559,225.0000" style="fill: none; stroke: #000000; stroke-width: 1; stroke-opacity: 1.00; stroke-linecap: round; stroke-linejoin: round;" id="ezcGraphLine_26"/><ellipse cx="331.3850" cy="213.0858" rx="3.0000" ry="3.0000" style="fill: #000000; fill-opacity: 1.00; stroke: none;" id="ezcGraphCircle_27"/><ellipse cx="380.8559" cy="225.0000" rx="3.0000" ry="3.0000" style="fill: #000000; fill-opacity: 1.00; stroke: none;" id="ezcGraphCircle_28"/><path d=" M 333.2111,226.4884 L 376.9659,262.5000" style="fill: none; stroke: #000000; stroke-width: 1; stroke-opacity: 1.00; stroke-linecap: round; stroke-linejoin: round;" id="ezcGraphLine_30"/><ellipse cx="333.2111" cy="226.4884" rx="3.0000" ry="3.0000" style="fill: #000000; fill-opacity: 1.00; stroke: none;" id="ezcGraphCircle_31"/><ellipse cx="376.9659" cy="262.5000" rx="3.0000" ry="3.0000" style="fill: #000000; fill-opacity: 1.00; stroke: none;" id="ezcGraphCircle_32"/><g id="ezcGraphTextBox_3"><path d=" M 228.3000,42.0000 L 228.3000,0.5000 L 272.2000,0.5000 L 272.2000,42.0000 L 228.3000,42.0000 z " style="fill: #ffffff; fill-opacity: 0.00; stroke: none;" id="ezcGraphPolygon_34"/><text id="ezcGraphTextBox_3_text" x="228.8000" text-length="42.4000px" y="35.0000" style="font-size: 40px; font-family: 'Arial'; fill: #2e3436; fill-opacity: 1.00; stroke: none;">OS</text></g><g id="ezcGraphTextBox_17" style=" cursor: pointer;" onclick="top.location = 'https://linux-hardware.org/?view=computers&amp;f=os_name&amp;v=ROSA+12.2&amp;p=99'"><path d=" M 42.7775,306.5500 L 42.7775,269.9500 L 127.7525,269.9500 L 127.7525,306.5500 L 42.7775,306.5500 z " style="fill: #ffffff; fill-opacity: 0.00; stroke: none;" id="ezcGraphPolygon_35"/><text id="ezcGraphTextBox_17_text" x="43.2775" text-length="83.4750px" y="285.3250" style="font-size: 17px; font-family: 'Arial'; fill: #2e3436; fill-opacity: 1.00; stroke: none;">ROSA 12.2</text><text id="ezcGraphTextBox_17_text" x="61.8275" text-length="64.9250px" y="304.5750" style="font-size: 17px; font-family: 'Arial'; fill: #2e3436; fill-opacity: 1.00; stroke: none;">(86.2%)</text></g><g id="ezcGraphTextBox_21" style=" cursor: pointer;" onclick="top.location = 'https://linux-hardware.org/?view=computers&amp;f=os_name&amp;v=ROSA+12.1&amp;p=99'"><path d=" M 356.7050,168.5500 L 356.7050,131.9500 L 441.6800,131.9500 L 441.6800,168.5500 L 356.7050,168.5500 z " style="fill: #ffffff; fill-opacity: 0.00; stroke: none;" id="ezcGraphPolygon_36"/><text id="ezcGraphTextBox_21_text" x="357.2050" text-length="83.4750px" y="147.3250" style="font-size: 17px; font-family: 'Arial'; fill: #2e3436; fill-opacity: 1.00; stroke: none;">ROSA 12.1</text><text id="ezcGraphTextBox_21_text" x="357.2050" text-length="55.6500px" y="166.5750" style="font-size: 17px; font-family: 'Arial'; fill: #2e3436; fill-opacity: 1.00; stroke: none;">(5.2%)</text></g><g id="ezcGraphTextBox_25" style=" cursor: pointer;" onclick="top.location = 'https://linux-hardware.org/?view=computers&amp;f=os_name&amp;v=ROSA+R11.1&amp;p=99'"><path d=" M 378.6868,206.0500 L 378.6868,169.4500 L 472.9368,169.4500 L 472.9368,206.0500 L 378.6868,206.0500 z " style="fill: #ffffff; fill-opacity: 0.00; stroke: none;" id="ezcGraphPolygon_37"/><text id="ezcGraphTextBox_25_text" x="379.1868" text-length="92.7500px" y="184.8250" style="font-size: 17px; font-family: 'Arial'; fill: #2e3436; fill-opacity: 1.00; stroke: none;">ROSA R11.1</text><text id="ezcGraphTextBox_25_text" x="379.1868" text-length="55.6500px" y="204.0750" style="font-size: 17px; font-family: 'Arial'; fill: #2e3436; fill-opacity: 1.00; stroke: none;">(3.4%)</text></g><g id="ezcGraphTextBox_29" style=" cursor: pointer;" onclick="top.location = 'https://linux-hardware.org/?view=computers&amp;f=os_name&amp;v=ROSA+12&amp;p=99'"><path d=" M 386.3559,243.5500 L 386.3559,206.9500 L 452.7809,206.9500 L 452.7809,243.5500 L 386.3559,243.5500 z " style="fill: #ffffff; fill-opacity: 0.00; stroke: none;" id="ezcGraphPolygon_38"/><text id="ezcGraphTextBox_29_text" x="386.8559" text-length="64.9250px" y="222.3250" style="font-size: 17px; font-family: 'Arial'; fill: #2e3436; fill-opacity: 1.00; stroke: none;">ROSA 12</text><text id="ezcGraphTextBox_29_text" x="386.8559" text-length="55.6500px" y="241.5750" style="font-size: 17px; font-family: 'Arial'; fill: #2e3436; fill-opacity: 1.00; stroke: none;">(3.4%)</text></g><g id="ezcGraphTextBox_33" style=" cursor: pointer;" onclick="top.location = 'https://linux-hardware.org/?view=computers&amp;f=os_name&amp;v=ROSA+2019.05&amp;p=99'"><path d=" M 382.4659,281.0500 L 382.4659,244.4500 L 495.2659,244.4500 L 495.2659,281.0500 L 382.4659,281.0500 z " style="fill: #ffffff; fill-opacity: 0.00; stroke: none;" id="ezcGraphPolygon_39"/><text id="ezcGraphTextBox_33_text" x="382.9659" text-length="111.3000px" y="259.8250" style="font-size: 17px; font-family: 'Arial'; fill: #2e3436; fill-opacity: 1.00; stroke: none;">ROSA 2019.05</text><text id="ezcGraphTextBox_33_text" x="382.9659" text-length="55.6500px" y="279.0750" style="font-size: 17px; font-family: 'Arial'; fill: #2e3436; fill-opacity: 1.00; stroke: none;">(1.7%)</text></g></g></svg>
