<?xml version="1.0"?>
<svg xmlns="http://www.w3.org/2000/svg" width="500" height="420" version="1.0" id="ezcGraph"><defs/><g id="ezcGraphChart" color-rendering="optimizeQuality" shape-rendering="geometricPrecision" text-rendering="optimizeLegibility"><path d=" M 0.0000,420.0000 L 0.0000,0.0000 L 500.0000,0.0000 L 500.0000,420.0000 L 0.0000,420.0000 z " style="fill: #eeeeec; fill-opacity: 1.00; stroke: none;" id="ezcGraphPolygon_1"/><path d=" M 0.0000,42.0000 L 0.0000,0.0000 L 500.0000,0.0000 L 500.0000,42.0000 L 0.0000,42.0000 z " style="fill: #000000; fill-opacity: 0.00; stroke: none;" id="ezcGraphPolygon_2"/><path d=" M 0.0000,420.0000 L 0.0000,42.0000 L 100.0000,42.0000 L 100.0000,420.0000 L 0.0000,420.0000 z " style="fill: #000000; fill-opacity: 0.00; stroke: none;" id="ezcGraphPolygon_4"/><path d=" M 2.0000,58.0000 L 2.0000,44.0000 L 16.0000,44.0000 L 16.0000,58.0000 L 2.0000,58.0000 z " style="fill: #3465a4; fill-opacity: 1.00; stroke: none; cursor: pointer;" id="ezcGraphPolygon_5" onclick="top.location = 'https://linux-hardware.org/?view=computers&amp;f=device_unsupported_type&amp;v=graphics+card&amp;p=99'"/><path d=" M 2.0000,76.0000 L 2.0000,62.0000 L 16.0000,62.0000 L 16.0000,76.0000 L 2.0000,76.0000 z " style="fill: #4e9a06; fill-opacity: 1.00; stroke: none; cursor: pointer;" id="ezcGraphPolygon_7" onclick="top.location = 'https://linux-hardware.org/?view=computers&amp;f=device_unsupported_type&amp;v=chipcard&amp;p=99'"/><path d=" M 2.0000,94.0000 L 2.0000,80.0000 L 16.0000,80.0000 L 16.0000,94.0000 L 2.0000,94.0000 z " style="fill: #cc0000; fill-opacity: 1.00; stroke: none; cursor: pointer;" id="ezcGraphPolygon_9" onclick="top.location = 'https://linux-hardware.org/?view=computers&amp;f=device_unsupported_type&amp;v=unassigned+class&amp;p=99'"/><path d=" M 2.0000,112.0000 L 2.0000,98.0000 L 16.0000,98.0000 L 16.0000,112.0000 L 2.0000,112.0000 z " style="fill: #edd400; fill-opacity: 1.00; stroke: none; cursor: pointer;" id="ezcGraphPolygon_11" onclick="top.location = 'https://linux-hardware.org/?view=computers&amp;f=device_unsupported_type&amp;v=sound&amp;p=99'"/><path d=" M 2.0000,130.0000 L 2.0000,116.0000 L 16.0000,116.0000 L 16.0000,130.0000 L 2.0000,130.0000 z " style="fill: #75505b; fill-opacity: 1.00; stroke: none; cursor: pointer;" id="ezcGraphPolygon_13" onclick="top.location = 'https://linux-hardware.org/?view=computers&amp;f=device_unsupported_type&amp;v=net%2Fwireless&amp;p=99'"/><path d=" M 100.0000,382.2000 L 500.0000,382.2000" style="fill: none; stroke: #2e3436; stroke-width: 1; stroke-opacity: 1.00; stroke-linecap: round; stroke-linejoin: round;" id="ezcGraphLine_15"/><path d=" M 492.0000,378.2000 L 500.0000,382.2000 L 492.0000,386.2000 L 492.0000,378.2000 z " style="fill: #2e3436; fill-opacity: 1.00; stroke: none;" id="ezcGraphPolygon_16"/><path d=" M 185.7143,79.8000 L 185.7143,382.2000" style="fill: none; stroke: #000000; stroke-width: 1; stroke-opacity: 0.00; stroke-linecap: round; stroke-linejoin: round;" id="ezcGraphLine_19"/><path d=" M 185.7143,379.2000 L 185.7143,385.2000" style="fill: none; stroke: #2e3436; stroke-width: 1; stroke-opacity: 1.00; stroke-linecap: round; stroke-linejoin: round;" id="ezcGraphLine_20"/><path d=" M 231.4286,79.8000 L 231.4286,382.2000" style="fill: none; stroke: #000000; stroke-width: 1; stroke-opacity: 0.00; stroke-linecap: round; stroke-linejoin: round;" id="ezcGraphLine_22"/><path d=" M 231.4286,379.2000 L 231.4286,385.2000" style="fill: none; stroke: #2e3436; stroke-width: 1; stroke-opacity: 1.00; stroke-linecap: round; stroke-linejoin: round;" id="ezcGraphLine_23"/><path d=" M 277.1429,79.8000 L 277.1429,382.2000" style="fill: none; stroke: #000000; stroke-width: 1; stroke-opacity: 0.00; stroke-linecap: round; stroke-linejoin: round;" id="ezcGraphLine_25"/><path d=" M 277.1429,379.2000 L 277.1429,385.2000" style="fill: none; stroke: #2e3436; stroke-width: 1; stroke-opacity: 1.00; stroke-linecap: round; stroke-linejoin: round;" id="ezcGraphLine_26"/><path d=" M 322.8571,79.8000 L 322.8571,382.2000" style="fill: none; stroke: #000000; stroke-width: 1; stroke-opacity: 0.00; stroke-linecap: round; stroke-linejoin: round;" id="ezcGraphLine_28"/><path d=" M 322.8571,379.2000 L 322.8571,385.2000" style="fill: none; stroke: #2e3436; stroke-width: 1; stroke-opacity: 1.00; stroke-linecap: round; stroke-linejoin: round;" id="ezcGraphLine_29"/><path d=" M 368.5714,79.8000 L 368.5714,382.2000" style="fill: none; stroke: #000000; stroke-width: 1; stroke-opacity: 0.00; stroke-linecap: round; stroke-linejoin: round;" id="ezcGraphLine_31"/><path d=" M 368.5714,379.2000 L 368.5714,385.2000" style="fill: none; stroke: #2e3436; stroke-width: 1; stroke-opacity: 1.00; stroke-linecap: round; stroke-linejoin: round;" id="ezcGraphLine_32"/><path d=" M 414.2857,79.8000 L 414.2857,382.2000" style="fill: none; stroke: #000000; stroke-width: 1; stroke-opacity: 0.00; stroke-linecap: round; stroke-linejoin: round;" id="ezcGraphLine_34"/><path d=" M 414.2857,379.2000 L 414.2857,385.2000" style="fill: none; stroke: #2e3436; stroke-width: 1; stroke-opacity: 1.00; stroke-linecap: round; stroke-linejoin: round;" id="ezcGraphLine_35"/><path d=" M 460.0000,79.8000 L 460.0000,382.2000" style="fill: none; stroke: #000000; stroke-width: 1; stroke-opacity: 0.00; stroke-linecap: round; stroke-linejoin: round;" id="ezcGraphLine_37"/><path d=" M 460.0000,379.2000 L 460.0000,385.2000" style="fill: none; stroke: #2e3436; stroke-width: 1; stroke-opacity: 1.00; stroke-linecap: round; stroke-linejoin: round;" id="ezcGraphLine_38"/><path d=" M 140.0000,420.0000 L 140.0000,42.0000" style="fill: none; stroke: #2e3436; stroke-width: 1; stroke-opacity: 1.00; stroke-linecap: round; stroke-linejoin: round;" id="ezcGraphLine_39"/><path d=" M 136.0000,50.0000 L 140.0000,42.0000 L 144.0000,50.0000 L 136.0000,50.0000 z " style="fill: #2e3436; fill-opacity: 1.00; stroke: none;" id="ezcGraphPolygon_40"/><path d=" M 140.0000,231.0000 L 460.0000,231.0000" style="fill: none; stroke: #000000; stroke-width: 1; stroke-opacity: 0.00; stroke-linecap: round; stroke-linejoin: round;" id="ezcGraphLine_43"/><path d=" M 140.0000,231.0000 L 143.0000,231.0000" style="fill: none; stroke: #2e3436; stroke-width: 1; stroke-opacity: 1.00; stroke-linecap: round; stroke-linejoin: round;" id="ezcGraphLine_44"/><path d=" M 140.0000,79.8000 L 460.0000,79.8000" style="fill: none; stroke: #000000; stroke-width: 1; stroke-opacity: 0.00; stroke-linecap: round; stroke-linejoin: round;" id="ezcGraphLine_46"/><path d=" M 140.0000,79.8000 L 143.0000,79.8000" style="fill: none; stroke: #2e3436; stroke-width: 1; stroke-opacity: 1.00; stroke-linecap: round; stroke-linejoin: round;" id="ezcGraphLine_47"/><path d=" M 162.8571,313.8576 L 162.8571,313.8576" style="fill: none; stroke: #3465a4; stroke-width: 1; stroke-opacity: 1.00; stroke-linecap: round; stroke-linejoin: round;" id="ezcGraphLine_49"/><path d=" M 162.8571,313.8576 L 208.5714,209.5296" style="fill: none; stroke: #3465a4; stroke-width: 1; stroke-opacity: 1.00; stroke-linecap: round; stroke-linejoin: round;" id="ezcGraphLine_51"/><path d=" M 208.5714,209.5296 L 254.2857,219.5088" style="fill: none; stroke: #3465a4; stroke-width: 1; stroke-opacity: 1.00; stroke-linecap: round; stroke-linejoin: round;" id="ezcGraphLine_53"/><path d=" M 254.2857,219.5088 L 300.0000,193.2000" style="fill: none; stroke: #3465a4; stroke-width: 1; stroke-opacity: 1.00; stroke-linecap: round; stroke-linejoin: round;" id="ezcGraphLine_55"/><path d=" M 300.0000,193.2000 L 345.7143,214.0656" style="fill: none; stroke: #3465a4; stroke-width: 1; stroke-opacity: 1.00; stroke-linecap: round; stroke-linejoin: round;" id="ezcGraphLine_57"/><path d=" M 345.7143,214.0656 L 391.4286,180.4992" style="fill: none; stroke: #3465a4; stroke-width: 1; stroke-opacity: 1.00; stroke-linecap: round; stroke-linejoin: round;" id="ezcGraphLine_59"/><path d=" M 391.4286,180.4992 L 437.1429,107.0160" style="fill: none; stroke: #3465a4; stroke-width: 1; stroke-opacity: 1.00; stroke-linecap: round; stroke-linejoin: round;" id="ezcGraphLine_61"/><path d=" M 162.8571,177.4752 L 162.8571,177.4752" style="fill: none; stroke: #4e9a06; stroke-width: 1; stroke-opacity: 1.00; stroke-linecap: round; stroke-linejoin: round;" id="ezcGraphLine_63"/><path d=" M 162.8571,177.4752 L 208.5714,257.3088" style="fill: none; stroke: #4e9a06; stroke-width: 1; stroke-opacity: 1.00; stroke-linecap: round; stroke-linejoin: round;" id="ezcGraphLine_65"/><path d=" M 208.5714,257.3088 L 254.2857,277.5696" style="fill: none; stroke: #4e9a06; stroke-width: 1; stroke-opacity: 1.00; stroke-linecap: round; stroke-linejoin: round;" id="ezcGraphLine_67"/><path d=" M 254.2857,277.5696 L 300.0000,268.8000" style="fill: none; stroke: #4e9a06; stroke-width: 1; stroke-opacity: 1.00; stroke-linecap: round; stroke-linejoin: round;" id="ezcGraphLine_69"/><path d=" M 300.0000,268.8000 L 345.7143,247.9344" style="fill: none; stroke: #4e9a06; stroke-width: 1; stroke-opacity: 1.00; stroke-linecap: round; stroke-linejoin: round;" id="ezcGraphLine_71"/><path d=" M 345.7143,247.9344 L 391.4286,321.7200" style="fill: none; stroke: #4e9a06; stroke-width: 1; stroke-opacity: 1.00; stroke-linecap: round; stroke-linejoin: round;" id="ezcGraphLine_73"/><path d=" M 391.4286,321.7200 L 437.1429,359.8224" style="fill: none; stroke: #4e9a06; stroke-width: 1; stroke-opacity: 1.00; stroke-linecap: round; stroke-linejoin: round;" id="ezcGraphLine_75"/><path d=" M 162.8571,352.8672 L 162.8571,352.8672" style="fill: none; stroke: #cc0000; stroke-width: 1; stroke-opacity: 1.00; stroke-linecap: round; stroke-linejoin: round;" id="ezcGraphLine_77"/><path d=" M 162.8571,352.8672 L 208.5714,377.3616" style="fill: none; stroke: #cc0000; stroke-width: 1; stroke-opacity: 1.00; stroke-linecap: round; stroke-linejoin: round;" id="ezcGraphLine_79"/><path d=" M 208.5714,377.3616 L 254.2857,347.4240" style="fill: none; stroke: #cc0000; stroke-width: 1; stroke-opacity: 1.00; stroke-linecap: round; stroke-linejoin: round;" id="ezcGraphLine_81"/><path d=" M 254.2857,347.4240 L 391.4286,341.9808" style="fill: none; stroke: #cc0000; stroke-width: 1; stroke-opacity: 1.00; stroke-linecap: round; stroke-linejoin: round;" id="ezcGraphLine_83"/><path d=" M 391.4286,341.9808 L 437.1429,380.6880" style="fill: none; stroke: #cc0000; stroke-width: 1; stroke-opacity: 1.00; stroke-linecap: round; stroke-linejoin: round;" id="ezcGraphLine_85"/><path d=" M 437.1429,380.6880 L 437.1429,380.6880" style="fill: none; stroke: #edd400; stroke-width: 1; stroke-opacity: 1.00; stroke-linecap: round; stroke-linejoin: round;" id="ezcGraphLine_87"/><path d=" M 437.1429,380.6880 L 437.1429,380.6880" style="fill: none; stroke: #75505b; stroke-width: 1; stroke-opacity: 1.00; stroke-linecap: round; stroke-linejoin: round;" id="ezcGraphLine_89"/><path d=" M 159.8571,316.8576 L 159.8571,310.8576 L 165.8571,310.8576 L 165.8571,316.8576 L 159.8571,316.8576 z " style="fill: #3465a4; fill-opacity: 1.00; stroke: none; cursor: pointer;" id="ezcGraphPolygon_91" onclick="top.location = 'https://linux-hardware.org/?view=computers&amp;f=device_unsupported_type&amp;v=graphics+card&amp;p=99&amp;p=87'"/><path d=" M 205.5714,212.5296 L 205.5714,206.5296 L 211.5714,206.5296 L 211.5714,212.5296 L 205.5714,212.5296 z " style="fill: #3465a4; fill-opacity: 1.00; stroke: none; cursor: pointer;" id="ezcGraphPolygon_92" onclick="top.location = 'https://linux-hardware.org/?view=computers&amp;f=device_unsupported_type&amp;v=graphics+card&amp;p=99&amp;p=89'"/><path d=" M 251.2857,222.5088 L 251.2857,216.5088 L 257.2857,216.5088 L 257.2857,222.5088 L 251.2857,222.5088 z " style="fill: #3465a4; fill-opacity: 1.00; stroke: none; cursor: pointer;" id="ezcGraphPolygon_93" onclick="top.location = 'https://linux-hardware.org/?view=computers&amp;f=device_unsupported_type&amp;v=graphics+card&amp;p=99&amp;p=91'"/><path d=" M 297.0000,196.2000 L 297.0000,190.2000 L 303.0000,190.2000 L 303.0000,196.2000 L 297.0000,196.2000 z " style="fill: #3465a4; fill-opacity: 1.00; stroke: none; cursor: pointer;" id="ezcGraphPolygon_94" onclick="top.location = 'https://linux-hardware.org/?view=computers&amp;f=device_unsupported_type&amp;v=graphics+card&amp;p=99&amp;p=93'"/><path d=" M 342.7143,217.0656 L 342.7143,211.0656 L 348.7143,211.0656 L 348.7143,217.0656 L 342.7143,217.0656 z " style="fill: #3465a4; fill-opacity: 1.00; stroke: none; cursor: pointer;" id="ezcGraphPolygon_95" onclick="top.location = 'https://linux-hardware.org/?view=computers&amp;f=device_unsupported_type&amp;v=graphics+card&amp;p=99&amp;p=95'"/><path d=" M 388.4286,183.4992 L 388.4286,177.4992 L 394.4286,177.4992 L 394.4286,183.4992 L 388.4286,183.4992 z " style="fill: #3465a4; fill-opacity: 1.00; stroke: none; cursor: pointer;" id="ezcGraphPolygon_96" onclick="top.location = 'https://linux-hardware.org/?view=computers&amp;f=device_unsupported_type&amp;v=graphics+card&amp;p=99&amp;p=97'"/><path d=" M 434.1429,110.0160 L 434.1429,104.0160 L 440.1429,104.0160 L 440.1429,110.0160 L 434.1429,110.0160 z " style="fill: #3465a4; fill-opacity: 1.00; stroke: none; cursor: pointer;" id="ezcGraphPolygon_97" onclick="top.location = 'https://linux-hardware.org/?view=computers&amp;f=device_unsupported_type&amp;v=graphics+card&amp;p=99&amp;p=99'"/><path d=" M 159.8571,180.4752 L 159.8571,174.4752 L 165.8571,174.4752 L 165.8571,180.4752 L 159.8571,180.4752 z " style="fill: #4e9a06; fill-opacity: 1.00; stroke: none; cursor: pointer;" id="ezcGraphPolygon_98" onclick="top.location = 'https://linux-hardware.org/?view=computers&amp;f=device_unsupported_type&amp;v=chipcard&amp;p=99&amp;p=87'"/><path d=" M 205.5714,260.3088 L 205.5714,254.3088 L 211.5714,254.3088 L 211.5714,260.3088 L 205.5714,260.3088 z " style="fill: #4e9a06; fill-opacity: 1.00; stroke: none; cursor: pointer;" id="ezcGraphPolygon_99" onclick="top.location = 'https://linux-hardware.org/?view=computers&amp;f=device_unsupported_type&amp;v=chipcard&amp;p=99&amp;p=89'"/><path d=" M 251.2857,280.5696 L 251.2857,274.5696 L 257.2857,274.5696 L 257.2857,280.5696 L 251.2857,280.5696 z " style="fill: #4e9a06; fill-opacity: 1.00; stroke: none; cursor: pointer;" id="ezcGraphPolygon_100" onclick="top.location = 'https://linux-hardware.org/?view=computers&amp;f=device_unsupported_type&amp;v=chipcard&amp;p=99&amp;p=91'"/><path d=" M 297.0000,271.8000 L 297.0000,265.8000 L 303.0000,265.8000 L 303.0000,271.8000 L 297.0000,271.8000 z " style="fill: #4e9a06; fill-opacity: 1.00; stroke: none; cursor: pointer;" id="ezcGraphPolygon_101" onclick="top.location = 'https://linux-hardware.org/?view=computers&amp;f=device_unsupported_type&amp;v=chipcard&amp;p=99&amp;p=93'"/><path d=" M 342.7143,250.9344 L 342.7143,244.9344 L 348.7143,244.9344 L 348.7143,250.9344 L 342.7143,250.9344 z " style="fill: #4e9a06; fill-opacity: 1.00; stroke: none; cursor: pointer;" id="ezcGraphPolygon_102" onclick="top.location = 'https://linux-hardware.org/?view=computers&amp;f=device_unsupported_type&amp;v=chipcard&amp;p=99&amp;p=95'"/><path d=" M 388.4286,324.7200 L 388.4286,318.7200 L 394.4286,318.7200 L 394.4286,324.7200 L 388.4286,324.7200 z " style="fill: #4e9a06; fill-opacity: 1.00; stroke: none; cursor: pointer;" id="ezcGraphPolygon_103" onclick="top.location = 'https://linux-hardware.org/?view=computers&amp;f=device_unsupported_type&amp;v=chipcard&amp;p=99&amp;p=97'"/><path d=" M 434.1429,362.8224 L 434.1429,356.8224 L 440.1429,356.8224 L 440.1429,362.8224 L 434.1429,362.8224 z " style="fill: #4e9a06; fill-opacity: 1.00; stroke: none; cursor: pointer;" id="ezcGraphPolygon_104" onclick="top.location = 'https://linux-hardware.org/?view=computers&amp;f=device_unsupported_type&amp;v=chipcard&amp;p=99&amp;p=99'"/><path d=" M 159.8571,355.8672 L 159.8571,349.8672 L 165.8571,349.8672 L 165.8571,355.8672 L 159.8571,355.8672 z " style="fill: #cc0000; fill-opacity: 1.00; stroke: none; cursor: pointer;" id="ezcGraphPolygon_105" onclick="top.location = 'https://linux-hardware.org/?view=computers&amp;f=device_unsupported_type&amp;v=unassigned+class&amp;p=99&amp;p=87'"/><path d=" M 205.5714,380.3616 L 205.5714,374.3616 L 211.5714,374.3616 L 211.5714,380.3616 L 205.5714,380.3616 z " style="fill: #cc0000; fill-opacity: 1.00; stroke: none; cursor: pointer;" id="ezcGraphPolygon_106" onclick="top.location = 'https://linux-hardware.org/?view=computers&amp;f=device_unsupported_type&amp;v=unassigned+class&amp;p=99&amp;p=89'"/><path d=" M 251.2857,350.4240 L 251.2857,344.4240 L 257.2857,344.4240 L 257.2857,350.4240 L 251.2857,350.4240 z " style="fill: #cc0000; fill-opacity: 1.00; stroke: none; cursor: pointer;" id="ezcGraphPolygon_107" onclick="top.location = 'https://linux-hardware.org/?view=computers&amp;f=device_unsupported_type&amp;v=unassigned+class&amp;p=99&amp;p=91'"/><path d=" M 388.4286,344.9808 L 388.4286,338.9808 L 394.4286,338.9808 L 394.4286,344.9808 L 388.4286,344.9808 z " style="fill: #cc0000; fill-opacity: 1.00; stroke: none; cursor: pointer;" id="ezcGraphPolygon_108" onclick="top.location = 'https://linux-hardware.org/?view=computers&amp;f=device_unsupported_type&amp;v=unassigned+class&amp;p=99&amp;p=97'"/><path d=" M 434.1429,383.6880 L 434.1429,377.6880 L 440.1429,377.6880 L 440.1429,383.6880 L 434.1429,383.6880 z " style="fill: #cc0000; fill-opacity: 1.00; stroke: none; cursor: pointer;" id="ezcGraphPolygon_109" onclick="top.location = 'https://linux-hardware.org/?view=computers&amp;f=device_unsupported_type&amp;v=unassigned+class&amp;p=99&amp;p=99'"/><path d=" M 434.1429,383.6880 L 434.1429,377.6880 L 440.1429,377.6880 L 440.1429,383.6880 L 434.1429,383.6880 z " style="fill: #edd400; fill-opacity: 1.00; stroke: none; cursor: pointer;" id="ezcGraphPolygon_110" onclick="top.location = 'https://linux-hardware.org/?view=computers&amp;f=device_unsupported_type&amp;v=sound&amp;p=99&amp;p=99'"/><path d=" M 434.1429,383.6880 L 434.1429,377.6880 L 440.1429,377.6880 L 440.1429,383.6880 L 434.1429,383.6880 z " style="fill: #75505b; fill-opacity: 1.00; stroke: none; cursor: pointer;" id="ezcGraphPolygon_111" onclick="top.location = 'https://linux-hardware.org/?view=computers&amp;f=device_unsupported_type&amp;v=net%2Fwireless&amp;p=99&amp;p=99'"/><g id="ezcGraphTextBox_3"><path d=" M 1.4600,41.5000 L 1.4600,1.0000 L 499.0400,1.0000 L 499.0400,41.5000 L 1.4600,41.5000 z " style="fill: #ffffff; fill-opacity: 0.00; stroke: none;" id="ezcGraphPolygon_112"/><text id="ezcGraphTextBox_3_text" x="1.9600" text-length="496.0800px" y="34.6500" style="font-size: 39px; font-family: 'Arial'; fill: #2e3436; fill-opacity: 1.00; stroke: none;">Unsupported Device Types</text></g><g id="ezcGraphTextBox_6" style=" cursor: pointer;" onclick="top.location = 'https://linux-hardware.org/?view=computers&amp;f=device_unsupported_type&amp;v=graphics+card&amp;p=99'"><path d=" M 16.5000,56.5000 L 16.5000,46.0000 L 80.0100,46.0000 L 80.0100,56.5000 L 16.5000,56.5000 z " style="fill: #ffffff; fill-opacity: 0.00; stroke: none;" id="ezcGraphPolygon_113"/><text id="ezcGraphTextBox_6_text" x="17.0000" text-length="62.0100px" y="54.1500" style="font-size: 9px; font-family: 'Arial'; fill: #2e3436; fill-opacity: 1.00; stroke: none;">Graphics card</text></g><g id="ezcGraphTextBox_8" style=" cursor: pointer;" onclick="top.location = 'https://linux-hardware.org/?view=computers&amp;f=device_unsupported_type&amp;v=chipcard&amp;p=99'"><path d=" M 16.5000,74.5000 L 16.5000,64.0000 L 56.1600,64.0000 L 56.1600,74.5000 L 16.5000,74.5000 z " style="fill: #ffffff; fill-opacity: 0.00; stroke: none;" id="ezcGraphPolygon_114"/><text id="ezcGraphTextBox_8_text" x="17.0000" text-length="38.1600px" y="72.1500" style="font-size: 9px; font-family: 'Arial'; fill: #2e3436; fill-opacity: 1.00; stroke: none;">Chipcard</text></g><g id="ezcGraphTextBox_10" style=" cursor: pointer;" onclick="top.location = 'https://linux-hardware.org/?view=computers&amp;f=device_unsupported_type&amp;v=unassigned+class&amp;p=99'"><path d=" M 16.5000,92.5000 L 16.5000,82.0000 L 94.3200,82.0000 L 94.3200,92.5000 L 16.5000,92.5000 z " style="fill: #ffffff; fill-opacity: 0.00; stroke: none;" id="ezcGraphPolygon_115"/><text id="ezcGraphTextBox_10_text" x="17.0000" text-length="76.3200px" y="90.1500" style="font-size: 9px; font-family: 'Arial'; fill: #2e3436; fill-opacity: 1.00; stroke: none;">Unassigned class</text></g><g id="ezcGraphTextBox_12" style=" cursor: pointer;" onclick="top.location = 'https://linux-hardware.org/?view=computers&amp;f=device_unsupported_type&amp;v=sound&amp;p=99'"><path d=" M 16.5000,110.5000 L 16.5000,100.0000 L 41.8500,100.0000 L 41.8500,110.5000 L 16.5000,110.5000 z " style="fill: #ffffff; fill-opacity: 0.00; stroke: none;" id="ezcGraphPolygon_116"/><text id="ezcGraphTextBox_12_text" x="17.0000" text-length="23.8500px" y="108.1500" style="font-size: 9px; font-family: 'Arial'; fill: #2e3436; fill-opacity: 1.00; stroke: none;">Sound</text></g><g id="ezcGraphTextBox_14" style=" cursor: pointer;" onclick="top.location = 'https://linux-hardware.org/?view=computers&amp;f=device_unsupported_type&amp;v=net%2Fwireless&amp;p=99'"><path d=" M 16.5000,128.5000 L 16.5000,118.0000 L 75.2400,118.0000 L 75.2400,128.5000 L 16.5000,128.5000 z " style="fill: #ffffff; fill-opacity: 0.00; stroke: none;" id="ezcGraphPolygon_117"/><text id="ezcGraphTextBox_14_text" x="17.0000" text-length="57.2400px" y="126.1500" style="font-size: 9px; font-family: 'Arial'; fill: #2e3436; fill-opacity: 1.00; stroke: none;">Net/wireless</text></g><g id="ezcGraphTextBox_17" transform="rotate( 0.00 493.0000 375.2000 )"><path d=" M 471.0000,381.2000 L 471.0000,369.7000 L 499.0000,369.7000 L 499.0000,381.2000 L 471.0000,381.2000 z " style="fill: #ffffff; fill-opacity: 0.00; stroke: none;" id="ezcGraphPolygon_118"/><text id="ezcGraphTextBox_17_text" x="471.5000" text-length="26.5000px" y="378.7000" style="font-size: 10px; font-family: 'Arial'; fill: #2e3436; fill-opacity: 1.00; stroke: none;">Time </text></g><g id="ezcGraphTextBox_18"><path d=" M 149.9571,405.3000 L 149.9571,383.7000 L 176.2571,383.7000 L 176.2571,405.3000 L 149.9571,405.3000 z " style="fill: #ffffff; fill-opacity: 0.00; stroke: none;" id="ezcGraphPolygon_119"/><text id="ezcGraphTextBox_18_text" x="154.9071" text-length="15.9000px" y="392.7000" style="font-size: 10px; font-family: 'Arial'; fill: #2e3436; fill-opacity: 1.00; stroke: none;">Mar</text><text id="ezcGraphTextBox_18_text" x="150.4571" text-length="24.8000px" y="403.7000" style="font-size: 10px; font-family: 'Arial'; fill: #2e3436; fill-opacity: 1.00; stroke: none;">2021</text></g><g id="ezcGraphTextBox_21"><path d=" M 195.6714,405.3000 L 195.6714,383.7000 L 221.9714,383.7000 L 221.9714,405.3000 L 195.6714,405.3000 z " style="fill: #ffffff; fill-opacity: 0.00; stroke: none;" id="ezcGraphPolygon_120"/><text id="ezcGraphTextBox_21_text" x="200.6214" text-length="15.9000px" y="392.7000" style="font-size: 10px; font-family: 'Arial'; fill: #2e3436; fill-opacity: 1.00; stroke: none;">May</text><text id="ezcGraphTextBox_21_text" x="196.1714" text-length="24.8000px" y="403.7000" style="font-size: 10px; font-family: 'Arial'; fill: #2e3436; fill-opacity: 1.00; stroke: none;">2021</text></g><g id="ezcGraphTextBox_24"><path d=" M 241.3857,405.3000 L 241.3857,383.7000 L 267.6857,383.7000 L 267.6857,405.3000 L 241.3857,405.3000 z " style="fill: #ffffff; fill-opacity: 0.00; stroke: none;" id="ezcGraphPolygon_121"/><text id="ezcGraphTextBox_24_text" x="246.3357" text-length="15.9000px" y="392.7000" style="font-size: 10px; font-family: 'Arial'; fill: #2e3436; fill-opacity: 1.00; stroke: none;">Jul</text><text id="ezcGraphTextBox_24_text" x="241.8857" text-length="24.8000px" y="403.7000" style="font-size: 10px; font-family: 'Arial'; fill: #2e3436; fill-opacity: 1.00; stroke: none;">2021</text></g><g id="ezcGraphTextBox_27"><path d=" M 287.1000,405.3000 L 287.1000,383.7000 L 313.4000,383.7000 L 313.4000,405.3000 L 287.1000,405.3000 z " style="fill: #ffffff; fill-opacity: 0.00; stroke: none;" id="ezcGraphPolygon_122"/><text id="ezcGraphTextBox_27_text" x="292.0500" text-length="15.9000px" y="392.7000" style="font-size: 10px; font-family: 'Arial'; fill: #2e3436; fill-opacity: 1.00; stroke: none;">Sep</text><text id="ezcGraphTextBox_27_text" x="287.6000" text-length="24.8000px" y="403.7000" style="font-size: 10px; font-family: 'Arial'; fill: #2e3436; fill-opacity: 1.00; stroke: none;">2021</text></g><g id="ezcGraphTextBox_30"><path d=" M 332.8143,405.3000 L 332.8143,383.7000 L 359.1143,383.7000 L 359.1143,405.3000 L 332.8143,405.3000 z " style="fill: #ffffff; fill-opacity: 0.00; stroke: none;" id="ezcGraphPolygon_123"/><text id="ezcGraphTextBox_30_text" x="337.7643" text-length="15.9000px" y="392.7000" style="font-size: 10px; font-family: 'Arial'; fill: #2e3436; fill-opacity: 1.00; stroke: none;">Nov</text><text id="ezcGraphTextBox_30_text" x="333.3143" text-length="24.8000px" y="403.7000" style="font-size: 10px; font-family: 'Arial'; fill: #2e3436; fill-opacity: 1.00; stroke: none;">2021</text></g><g id="ezcGraphTextBox_33"><path d=" M 378.5286,405.3000 L 378.5286,383.7000 L 404.8286,383.7000 L 404.8286,405.3000 L 378.5286,405.3000 z " style="fill: #ffffff; fill-opacity: 0.00; stroke: none;" id="ezcGraphPolygon_124"/><text id="ezcGraphTextBox_33_text" x="383.4786" text-length="15.9000px" y="392.7000" style="font-size: 10px; font-family: 'Arial'; fill: #2e3436; fill-opacity: 1.00; stroke: none;">Jan</text><text id="ezcGraphTextBox_33_text" x="379.0286" text-length="24.8000px" y="403.7000" style="font-size: 10px; font-family: 'Arial'; fill: #2e3436; fill-opacity: 1.00; stroke: none;">2022</text></g><g id="ezcGraphTextBox_36"><path d=" M 424.2429,405.3000 L 424.2429,383.7000 L 450.5429,383.7000 L 450.5429,405.3000 L 424.2429,405.3000 z " style="fill: #ffffff; fill-opacity: 0.00; stroke: none;" id="ezcGraphPolygon_125"/><text id="ezcGraphTextBox_36_text" x="429.1929" text-length="15.9000px" y="392.7000" style="font-size: 10px; font-family: 'Arial'; fill: #2e3436; fill-opacity: 1.00; stroke: none;">Mar</text><text id="ezcGraphTextBox_36_text" x="424.7429" text-length="24.8000px" y="403.7000" style="font-size: 10px; font-family: 'Arial'; fill: #2e3436; fill-opacity: 1.00; stroke: none;">2022</text></g><g id="ezcGraphTextBox_41" transform="rotate( 0.00 147.0000 49.0000 )"><path d=" M 141.5000,55.0000 L 141.5000,43.5000 L 376.2000,43.5000 L 376.2000,55.0000 L 141.5000,55.0000 z " style="fill: #ffffff; fill-opacity: 0.00; stroke: none;" id="ezcGraphPolygon_126"/><text id="ezcGraphTextBox_41_text" x="142.0000" text-length="233.2000px" y="52.5000" style="font-size: 10px; font-family: 'Arial'; fill: #2e3436; fill-opacity: 1.00; stroke: none;">Computers by "Unsupported Device Types" in %</text></g><g id="ezcGraphTextBox_42"><path d=" M 131.3000,381.2000 L 131.3000,369.7000 L 139.0000,369.7000 L 139.0000,381.2000 L 131.3000,381.2000 z " style="fill: #ffffff; fill-opacity: 0.00; stroke: none;" id="ezcGraphPolygon_127"/><text id="ezcGraphTextBox_42_text" x="131.8000" text-length="6.2000px" y="378.7000" style="font-size: 10px; font-family: 'Arial'; fill: #2e3436; fill-opacity: 1.00; stroke: none;">0</text></g><g id="ezcGraphTextBox_45"><path d=" M 125.1000,230.0000 L 125.1000,218.5000 L 139.0000,218.5000 L 139.0000,230.0000 L 125.1000,230.0000 z " style="fill: #ffffff; fill-opacity: 0.00; stroke: none;" id="ezcGraphPolygon_128"/><text id="ezcGraphTextBox_45_text" x="125.6000" text-length="12.4000px" y="227.5000" style="font-size: 10px; font-family: 'Arial'; fill: #2e3436; fill-opacity: 1.00; stroke: none;">50</text></g><g id="ezcGraphTextBox_48"><path d=" M 118.9000,92.8000 L 118.9000,81.3000 L 139.0000,81.3000 L 139.0000,92.8000 L 118.9000,92.8000 z " style="fill: #ffffff; fill-opacity: 0.00; stroke: none;" id="ezcGraphPolygon_129"/><text id="ezcGraphTextBox_48_text" x="119.4000" text-length="18.6000px" y="90.3000" style="font-size: 10px; font-family: 'Arial'; fill: #2e3436; fill-opacity: 1.00; stroke: none;">100</text></g><g id="ezcGraphTextBox_50"><path d=" M 149.9571,308.8576 L 149.9571,297.3576 L 176.2571,297.3576 L 176.2571,308.8576 L 149.9571,308.8576 z " style="fill: #ffffff; fill-opacity: 0.00; stroke: none;" id="ezcGraphPolygon_130"/><text id="ezcGraphTextBox_50_text" x="150.4571" text-length="24.8000px" y="306.3576" style="font-size: 10px; font-family: 'Arial'; fill: #2e3436; fill-opacity: 1.00; stroke: none;">22.6</text></g><g id="ezcGraphTextBox_52"><path d=" M 195.6714,204.5296 L 195.6714,193.0296 L 221.9714,193.0296 L 221.9714,204.5296 L 195.6714,204.5296 z " style="fill: #ffffff; fill-opacity: 0.00; stroke: none;" id="ezcGraphPolygon_131"/><text id="ezcGraphTextBox_52_text" x="196.1714" text-length="24.8000px" y="202.0296" style="font-size: 10px; font-family: 'Arial'; fill: #2e3436; fill-opacity: 1.00; stroke: none;">57.1</text></g><g id="ezcGraphTextBox_54"><path d=" M 241.3857,214.5088 L 241.3857,203.0088 L 267.6857,203.0088 L 267.6857,214.5088 L 241.3857,214.5088 z " style="fill: #ffffff; fill-opacity: 0.00; stroke: none;" id="ezcGraphPolygon_132"/><text id="ezcGraphTextBox_54_text" x="241.8857" text-length="24.8000px" y="212.0088" style="font-size: 10px; font-family: 'Arial'; fill: #2e3436; fill-opacity: 1.00; stroke: none;">53.8</text></g><g id="ezcGraphTextBox_56"><path d=" M 287.1000,188.2000 L 287.1000,176.7000 L 313.4000,176.7000 L 313.4000,188.2000 L 287.1000,188.2000 z " style="fill: #ffffff; fill-opacity: 0.00; stroke: none;" id="ezcGraphPolygon_133"/><text id="ezcGraphTextBox_56_text" x="287.6000" text-length="24.8000px" y="185.7000" style="font-size: 10px; font-family: 'Arial'; fill: #2e3436; fill-opacity: 1.00; stroke: none;">62.5</text></g><g id="ezcGraphTextBox_58"><path d=" M 332.8143,209.0656 L 332.8143,197.5656 L 359.1143,197.5656 L 359.1143,209.0656 L 332.8143,209.0656 z " style="fill: #ffffff; fill-opacity: 0.00; stroke: none;" id="ezcGraphPolygon_134"/><text id="ezcGraphTextBox_58_text" x="333.3143" text-length="24.8000px" y="206.5656" style="font-size: 10px; font-family: 'Arial'; fill: #2e3436; fill-opacity: 1.00; stroke: none;">55.6</text></g><g id="ezcGraphTextBox_60"><path d=" M 378.5286,175.4992 L 378.5286,163.9992 L 404.8286,163.9992 L 404.8286,175.4992 L 378.5286,175.4992 z " style="fill: #ffffff; fill-opacity: 0.00; stroke: none;" id="ezcGraphPolygon_135"/><text id="ezcGraphTextBox_60_text" x="379.0286" text-length="24.8000px" y="172.9992" style="font-size: 10px; font-family: 'Arial'; fill: #2e3436; fill-opacity: 1.00; stroke: none;">66.7</text></g><g id="ezcGraphTextBox_62"><path d=" M 430.4429,102.0160 L 430.4429,90.5160 L 444.3429,90.5160 L 444.3429,102.0160 L 430.4429,102.0160 z " style="fill: #ffffff; fill-opacity: 0.00; stroke: none;" id="ezcGraphPolygon_136"/><text id="ezcGraphTextBox_62_text" x="430.9429" text-length="12.4000px" y="99.5160" style="font-size: 10px; font-family: 'Arial'; fill: #2e3436; fill-opacity: 1.00; stroke: none;">91</text></g><g id="ezcGraphTextBox_64"><path d=" M 149.9571,172.4752 L 149.9571,160.9752 L 176.2571,160.9752 L 176.2571,172.4752 L 149.9571,172.4752 z " style="fill: #ffffff; fill-opacity: 0.00; stroke: none;" id="ezcGraphPolygon_137"/><text id="ezcGraphTextBox_64_text" x="150.4571" text-length="24.8000px" y="169.9752" style="font-size: 10px; font-family: 'Arial'; fill: #2e3436; fill-opacity: 1.00; stroke: none;">67.7</text></g><g id="ezcGraphTextBox_66"><path d=" M 195.6714,252.3088 L 195.6714,240.8088 L 221.9714,240.8088 L 221.9714,252.3088 L 195.6714,252.3088 z " style="fill: #ffffff; fill-opacity: 0.00; stroke: none;" id="ezcGraphPolygon_138"/><text id="ezcGraphTextBox_66_text" x="196.1714" text-length="24.8000px" y="249.8088" style="font-size: 10px; font-family: 'Arial'; fill: #2e3436; fill-opacity: 1.00; stroke: none;">41.3</text></g><g id="ezcGraphTextBox_68"><path d=" M 241.3857,272.5696 L 241.3857,261.0696 L 267.6857,261.0696 L 267.6857,272.5696 L 241.3857,272.5696 z " style="fill: #ffffff; fill-opacity: 0.00; stroke: none;" id="ezcGraphPolygon_139"/><text id="ezcGraphTextBox_68_text" x="241.8857" text-length="24.8000px" y="270.0696" style="font-size: 10px; font-family: 'Arial'; fill: #2e3436; fill-opacity: 1.00; stroke: none;">34.6</text></g><g id="ezcGraphTextBox_70"><path d=" M 287.1000,263.8000 L 287.1000,252.3000 L 313.4000,252.3000 L 313.4000,263.8000 L 287.1000,263.8000 z " style="fill: #ffffff; fill-opacity: 0.00; stroke: none;" id="ezcGraphPolygon_140"/><text id="ezcGraphTextBox_70_text" x="287.6000" text-length="24.8000px" y="261.3000" style="font-size: 10px; font-family: 'Arial'; fill: #2e3436; fill-opacity: 1.00; stroke: none;">37.5</text></g><g id="ezcGraphTextBox_72"><path d=" M 332.8143,242.9344 L 332.8143,231.4344 L 359.1143,231.4344 L 359.1143,242.9344 L 332.8143,242.9344 z " style="fill: #ffffff; fill-opacity: 0.00; stroke: none;" id="ezcGraphPolygon_141"/><text id="ezcGraphTextBox_72_text" x="333.3143" text-length="24.8000px" y="240.4344" style="font-size: 10px; font-family: 'Arial'; fill: #2e3436; fill-opacity: 1.00; stroke: none;">44.4</text></g><g id="ezcGraphTextBox_74"><path d=" M 384.7286,316.7200 L 384.7286,305.2200 L 398.6286,305.2200 L 398.6286,316.7200 L 384.7286,316.7200 z " style="fill: #ffffff; fill-opacity: 0.00; stroke: none;" id="ezcGraphPolygon_142"/><text id="ezcGraphTextBox_74_text" x="385.2286" text-length="12.4000px" y="314.2200" style="font-size: 10px; font-family: 'Arial'; fill: #2e3436; fill-opacity: 1.00; stroke: none;">20</text></g><g id="ezcGraphTextBox_76"><path d=" M 427.3429,354.8224 L 427.3429,343.3224 L 447.4429,343.3224 L 447.4429,354.8224 L 427.3429,354.8224 z " style="fill: #ffffff; fill-opacity: 0.00; stroke: none;" id="ezcGraphPolygon_143"/><text id="ezcGraphTextBox_76_text" x="427.8429" text-length="18.6000px" y="352.3224" style="font-size: 10px; font-family: 'Arial'; fill: #2e3436; fill-opacity: 1.00; stroke: none;">7.4</text></g><g id="ezcGraphTextBox_78"><path d=" M 153.0571,347.8672 L 153.0571,336.3672 L 173.1571,336.3672 L 173.1571,347.8672 L 153.0571,347.8672 z " style="fill: #ffffff; fill-opacity: 0.00; stroke: none;" id="ezcGraphPolygon_144"/><text id="ezcGraphTextBox_78_text" x="153.5571" text-length="18.6000px" y="345.3672" style="font-size: 10px; font-family: 'Arial'; fill: #2e3436; fill-opacity: 1.00; stroke: none;">9.7</text></g><g id="ezcGraphTextBox_80"><path d=" M 198.7714,372.3616 L 198.7714,360.8616 L 218.8714,360.8616 L 218.8714,372.3616 L 198.7714,372.3616 z " style="fill: #ffffff; fill-opacity: 0.00; stroke: none;" id="ezcGraphPolygon_145"/><text id="ezcGraphTextBox_80_text" x="199.2714" text-length="18.6000px" y="369.8616" style="font-size: 10px; font-family: 'Arial'; fill: #2e3436; fill-opacity: 1.00; stroke: none;">1.6</text></g><g id="ezcGraphTextBox_82"><path d=" M 241.3857,342.4240 L 241.3857,330.9240 L 267.6857,330.9240 L 267.6857,342.4240 L 241.3857,342.4240 z " style="fill: #ffffff; fill-opacity: 0.00; stroke: none;" id="ezcGraphPolygon_146"/><text id="ezcGraphTextBox_82_text" x="241.8857" text-length="24.8000px" y="339.9240" style="font-size: 10px; font-family: 'Arial'; fill: #2e3436; fill-opacity: 1.00; stroke: none;">11.5</text></g><g id="ezcGraphTextBox_84"><path d=" M 378.5286,336.9808 L 378.5286,325.4808 L 404.8286,325.4808 L 404.8286,336.9808 L 378.5286,336.9808 z " style="fill: #ffffff; fill-opacity: 0.00; stroke: none;" id="ezcGraphPolygon_147"/><text id="ezcGraphTextBox_84_text" x="379.0286" text-length="24.8000px" y="334.4808" style="font-size: 10px; font-family: 'Arial'; fill: #2e3436; fill-opacity: 1.00; stroke: none;">13.3</text></g><g id="ezcGraphTextBox_86"><path d=" M 427.3429,375.6880 L 427.3429,364.1880 L 447.4429,364.1880 L 447.4429,375.6880 L 427.3429,375.6880 z " style="fill: #ffffff; fill-opacity: 0.00; stroke: none;" id="ezcGraphPolygon_148"/><text id="ezcGraphTextBox_86_text" x="427.8429" text-length="18.6000px" y="373.1880" style="font-size: 10px; font-family: 'Arial'; fill: #2e3436; fill-opacity: 1.00; stroke: none;">0.5</text></g><g id="ezcGraphTextBox_88"><path d=" M 427.3429,375.6880 L 427.3429,364.1880 L 447.4429,364.1880 L 447.4429,375.6880 L 427.3429,375.6880 z " style="fill: #ffffff; fill-opacity: 0.00; stroke: none;" id="ezcGraphPolygon_149"/><text id="ezcGraphTextBox_88_text" x="427.8429" text-length="18.6000px" y="373.1880" style="font-size: 10px; font-family: 'Arial'; fill: #2e3436; fill-opacity: 1.00; stroke: none;">0.5</text></g><g id="ezcGraphTextBox_90"><path d=" M 427.3429,375.6880 L 427.3429,364.1880 L 447.4429,364.1880 L 447.4429,375.6880 L 427.3429,375.6880 z " style="fill: #ffffff; fill-opacity: 0.00; stroke: none;" id="ezcGraphPolygon_150"/><text id="ezcGraphTextBox_90_text" x="427.8429" text-length="18.6000px" y="373.1880" style="font-size: 10px; font-family: 'Arial'; fill: #2e3436; fill-opacity: 1.00; stroke: none;">0.5</text></g></g></svg>
