<?xml version="1.0"?>
<svg xmlns="http://www.w3.org/2000/svg" width="500" height="420" version="1.0" id="ezcGraph"><defs/><g id="ezcGraphChart" color-rendering="optimizeQuality" shape-rendering="geometricPrecision" text-rendering="optimizeLegibility"><path d=" M 0.0000,420.0000 L 0.0000,0.0000 L 500.0000,0.0000 L 500.0000,420.0000 L 0.0000,420.0000 z " style="fill: #eeeeec; fill-opacity: 1.00; stroke: none;" id="ezcGraphPolygon_1"/><path d=" M 0.0000,42.0000 L 0.0000,0.0000 L 500.0000,0.0000 L 500.0000,42.0000 L 0.0000,42.0000 z " style="fill: #000000; fill-opacity: 0.00; stroke: none;" id="ezcGraphPolygon_2"/><path d=" M 0.0000,420.0000 L 0.0000,42.0000 L 100.0000,42.0000 L 100.0000,420.0000 L 0.0000,420.0000 z " style="fill: #000000; fill-opacity: 0.00; stroke: none;" id="ezcGraphPolygon_4"/><path d=" M 2.0000,58.0000 L 2.0000,44.0000 L 16.0000,44.0000 L 16.0000,58.0000 L 2.0000,58.0000 z " style="fill: #3465a4; fill-opacity: 1.00; stroke: none; cursor: pointer;" id="ezcGraphPolygon_5" onclick="top.location = 'https://linux-hardware.org/?view=computers&amp;f=os_filesystem&amp;v=overlay&amp;p=99'"/><path d=" M 2.0000,76.0000 L 2.0000,62.0000 L 16.0000,62.0000 L 16.0000,76.0000 L 2.0000,76.0000 z " style="fill: #4e9a06; fill-opacity: 1.00; stroke: none; cursor: pointer;" id="ezcGraphPolygon_7" onclick="top.location = 'https://linux-hardware.org/?view=computers&amp;f=os_filesystem&amp;v=ext4&amp;p=99'"/><path d=" M 2.0000,94.0000 L 2.0000,80.0000 L 16.0000,80.0000 L 16.0000,94.0000 L 2.0000,94.0000 z " style="fill: #cc0000; fill-opacity: 1.00; stroke: none;" id="ezcGraphPolygon_9"/><path d=" M 100.0000,382.2000 L 500.0000,382.2000" style="fill: none; stroke: #2e3436; stroke-width: 1; stroke-opacity: 1.00; stroke-linecap: round; stroke-linejoin: round;" id="ezcGraphLine_11"/><path d=" M 492.0000,378.2000 L 500.0000,382.2000 L 492.0000,386.2000 L 492.0000,378.2000 z " style="fill: #2e3436; fill-opacity: 1.00; stroke: none;" id="ezcGraphPolygon_12"/><path d=" M 185.7143,79.8000 L 185.7143,382.2000" style="fill: none; stroke: #000000; stroke-width: 1; stroke-opacity: 0.00; stroke-linecap: round; stroke-linejoin: round;" id="ezcGraphLine_15"/><path d=" M 185.7143,379.2000 L 185.7143,385.2000" style="fill: none; stroke: #2e3436; stroke-width: 1; stroke-opacity: 1.00; stroke-linecap: round; stroke-linejoin: round;" id="ezcGraphLine_16"/><path d=" M 231.4286,79.8000 L 231.4286,382.2000" style="fill: none; stroke: #000000; stroke-width: 1; stroke-opacity: 0.00; stroke-linecap: round; stroke-linejoin: round;" id="ezcGraphLine_18"/><path d=" M 231.4286,379.2000 L 231.4286,385.2000" style="fill: none; stroke: #2e3436; stroke-width: 1; stroke-opacity: 1.00; stroke-linecap: round; stroke-linejoin: round;" id="ezcGraphLine_19"/><path d=" M 277.1429,79.8000 L 277.1429,382.2000" style="fill: none; stroke: #000000; stroke-width: 1; stroke-opacity: 0.00; stroke-linecap: round; stroke-linejoin: round;" id="ezcGraphLine_21"/><path d=" M 277.1429,379.2000 L 277.1429,385.2000" style="fill: none; stroke: #2e3436; stroke-width: 1; stroke-opacity: 1.00; stroke-linecap: round; stroke-linejoin: round;" id="ezcGraphLine_22"/><path d=" M 322.8571,79.8000 L 322.8571,382.2000" style="fill: none; stroke: #000000; stroke-width: 1; stroke-opacity: 0.00; stroke-linecap: round; stroke-linejoin: round;" id="ezcGraphLine_24"/><path d=" M 322.8571,379.2000 L 322.8571,385.2000" style="fill: none; stroke: #2e3436; stroke-width: 1; stroke-opacity: 1.00; stroke-linecap: round; stroke-linejoin: round;" id="ezcGraphLine_25"/><path d=" M 368.5714,79.8000 L 368.5714,382.2000" style="fill: none; stroke: #000000; stroke-width: 1; stroke-opacity: 0.00; stroke-linecap: round; stroke-linejoin: round;" id="ezcGraphLine_27"/><path d=" M 368.5714,379.2000 L 368.5714,385.2000" style="fill: none; stroke: #2e3436; stroke-width: 1; stroke-opacity: 1.00; stroke-linecap: round; stroke-linejoin: round;" id="ezcGraphLine_28"/><path d=" M 414.2857,79.8000 L 414.2857,382.2000" style="fill: none; stroke: #000000; stroke-width: 1; stroke-opacity: 0.00; stroke-linecap: round; stroke-linejoin: round;" id="ezcGraphLine_30"/><path d=" M 414.2857,379.2000 L 414.2857,385.2000" style="fill: none; stroke: #2e3436; stroke-width: 1; stroke-opacity: 1.00; stroke-linecap: round; stroke-linejoin: round;" id="ezcGraphLine_31"/><path d=" M 460.0000,79.8000 L 460.0000,382.2000" style="fill: none; stroke: #000000; stroke-width: 1; stroke-opacity: 0.00; stroke-linecap: round; stroke-linejoin: round;" id="ezcGraphLine_33"/><path d=" M 460.0000,379.2000 L 460.0000,385.2000" style="fill: none; stroke: #2e3436; stroke-width: 1; stroke-opacity: 1.00; stroke-linecap: round; stroke-linejoin: round;" id="ezcGraphLine_34"/><path d=" M 140.0000,420.0000 L 140.0000,42.0000" style="fill: none; stroke: #2e3436; stroke-width: 1; stroke-opacity: 1.00; stroke-linecap: round; stroke-linejoin: round;" id="ezcGraphLine_35"/><path d=" M 136.0000,50.0000 L 140.0000,42.0000 L 144.0000,50.0000 L 136.0000,50.0000 z " style="fill: #2e3436; fill-opacity: 1.00; stroke: none;" id="ezcGraphPolygon_36"/><path d=" M 140.0000,231.0000 L 460.0000,231.0000" style="fill: none; stroke: #000000; stroke-width: 1; stroke-opacity: 0.00; stroke-linecap: round; stroke-linejoin: round;" id="ezcGraphLine_39"/><path d=" M 140.0000,231.0000 L 143.0000,231.0000" style="fill: none; stroke: #2e3436; stroke-width: 1; stroke-opacity: 1.00; stroke-linecap: round; stroke-linejoin: round;" id="ezcGraphLine_40"/><path d=" M 140.0000,79.8000 L 460.0000,79.8000" style="fill: none; stroke: #000000; stroke-width: 1; stroke-opacity: 0.00; stroke-linecap: round; stroke-linejoin: round;" id="ezcGraphLine_42"/><path d=" M 140.0000,79.8000 L 143.0000,79.8000" style="fill: none; stroke: #2e3436; stroke-width: 1; stroke-opacity: 1.00; stroke-linecap: round; stroke-linejoin: round;" id="ezcGraphLine_43"/><path d=" M 162.8571,136.9536 L 162.8571,136.9536" style="fill: none; stroke: #3465a4; stroke-width: 1; stroke-opacity: 1.00; stroke-linecap: round; stroke-linejoin: round;" id="ezcGraphLine_45"/><path d=" M 162.8571,136.9536 L 208.5714,130.3008" style="fill: none; stroke: #3465a4; stroke-width: 1; stroke-opacity: 1.00; stroke-linecap: round; stroke-linejoin: round;" id="ezcGraphLine_47"/><path d=" M 208.5714,130.3008 L 254.2857,129.6960" style="fill: none; stroke: #3465a4; stroke-width: 1; stroke-opacity: 1.00; stroke-linecap: round; stroke-linejoin: round;" id="ezcGraphLine_49"/><path d=" M 254.2857,129.6960 L 300.0000,143.0016" style="fill: none; stroke: #3465a4; stroke-width: 1; stroke-opacity: 1.00; stroke-linecap: round; stroke-linejoin: round;" id="ezcGraphLine_51"/><path d=" M 300.0000,143.0016 L 345.7143,139.3728" style="fill: none; stroke: #3465a4; stroke-width: 1; stroke-opacity: 1.00; stroke-linecap: round; stroke-linejoin: round;" id="ezcGraphLine_53"/><path d=" M 345.7143,139.3728 L 391.4286,145.1184" style="fill: none; stroke: #3465a4; stroke-width: 1; stroke-opacity: 1.00; stroke-linecap: round; stroke-linejoin: round;" id="ezcGraphLine_55"/><path d=" M 391.4286,145.1184 L 437.1429,107.6208" style="fill: none; stroke: #3465a4; stroke-width: 1; stroke-opacity: 1.00; stroke-linecap: round; stroke-linejoin: round;" id="ezcGraphLine_57"/><path d=" M 162.8571,325.6512 L 162.8571,325.6512" style="fill: none; stroke: #4e9a06; stroke-width: 1; stroke-opacity: 1.00; stroke-linecap: round; stroke-linejoin: round;" id="ezcGraphLine_59"/><path d=" M 162.8571,325.6512 L 208.5714,332.3040" style="fill: none; stroke: #4e9a06; stroke-width: 1; stroke-opacity: 1.00; stroke-linecap: round; stroke-linejoin: round;" id="ezcGraphLine_61"/><path d=" M 208.5714,332.3040 L 254.2857,332.3040" style="fill: none; stroke: #4e9a06; stroke-width: 1; stroke-opacity: 1.00; stroke-linecap: round; stroke-linejoin: round;" id="ezcGraphLine_63"/><path d=" M 254.2857,332.3040 L 300.0000,318.9984" style="fill: none; stroke: #4e9a06; stroke-width: 1; stroke-opacity: 1.00; stroke-linecap: round; stroke-linejoin: round;" id="ezcGraphLine_65"/><path d=" M 300.0000,318.9984 L 345.7143,322.6272" style="fill: none; stroke: #4e9a06; stroke-width: 1; stroke-opacity: 1.00; stroke-linecap: round; stroke-linejoin: round;" id="ezcGraphLine_67"/><path d=" M 345.7143,322.6272 L 391.4286,318.0912" style="fill: none; stroke: #4e9a06; stroke-width: 1; stroke-opacity: 1.00; stroke-linecap: round; stroke-linejoin: round;" id="ezcGraphLine_69"/><path d=" M 391.4286,318.0912 L 437.1429,354.3792" style="fill: none; stroke: #4e9a06; stroke-width: 1; stroke-opacity: 1.00; stroke-linecap: round; stroke-linejoin: round;" id="ezcGraphLine_71"/><path d=" M 162.8571,381.5952 L 162.8571,381.5952" style="fill: none; stroke: #cc0000; stroke-width: 1; stroke-opacity: 1.00; stroke-linecap: round; stroke-linejoin: round;" id="ezcGraphLine_73"/><path d=" M 162.8571,381.5952 L 208.5714,381.5952" style="fill: none; stroke: #cc0000; stroke-width: 1; stroke-opacity: 1.00; stroke-linecap: round; stroke-linejoin: round;" id="ezcGraphLine_75"/><path d=" M 208.5714,381.5952 L 391.4286,380.6880" style="fill: none; stroke: #cc0000; stroke-width: 1; stroke-opacity: 1.00; stroke-linecap: round; stroke-linejoin: round;" id="ezcGraphLine_77"/><path d=" M 159.8571,139.9536 L 159.8571,133.9536 L 165.8571,133.9536 L 165.8571,139.9536 L 159.8571,139.9536 z " style="fill: #3465a4; fill-opacity: 1.00; stroke: none; cursor: pointer;" id="ezcGraphPolygon_79" onclick="top.location = 'https://linux-hardware.org/?view=computers&amp;f=os_filesystem&amp;v=overlay&amp;p=99&amp;p=87'"/><path d=" M 205.5714,133.3008 L 205.5714,127.3008 L 211.5714,127.3008 L 211.5714,133.3008 L 205.5714,133.3008 z " style="fill: #3465a4; fill-opacity: 1.00; stroke: none; cursor: pointer;" id="ezcGraphPolygon_80" onclick="top.location = 'https://linux-hardware.org/?view=computers&amp;f=os_filesystem&amp;v=overlay&amp;p=99&amp;p=89'"/><path d=" M 251.2857,132.6960 L 251.2857,126.6960 L 257.2857,126.6960 L 257.2857,132.6960 L 251.2857,132.6960 z " style="fill: #3465a4; fill-opacity: 1.00; stroke: none; cursor: pointer;" id="ezcGraphPolygon_81" onclick="top.location = 'https://linux-hardware.org/?view=computers&amp;f=os_filesystem&amp;v=overlay&amp;p=99&amp;p=91'"/><path d=" M 297.0000,146.0016 L 297.0000,140.0016 L 303.0000,140.0016 L 303.0000,146.0016 L 297.0000,146.0016 z " style="fill: #3465a4; fill-opacity: 1.00; stroke: none; cursor: pointer;" id="ezcGraphPolygon_82" onclick="top.location = 'https://linux-hardware.org/?view=computers&amp;f=os_filesystem&amp;v=overlay&amp;p=99&amp;p=93'"/><path d=" M 342.7143,142.3728 L 342.7143,136.3728 L 348.7143,136.3728 L 348.7143,142.3728 L 342.7143,142.3728 z " style="fill: #3465a4; fill-opacity: 1.00; stroke: none; cursor: pointer;" id="ezcGraphPolygon_83" onclick="top.location = 'https://linux-hardware.org/?view=computers&amp;f=os_filesystem&amp;v=overlay&amp;p=99&amp;p=95'"/><path d=" M 388.4286,148.1184 L 388.4286,142.1184 L 394.4286,142.1184 L 394.4286,148.1184 L 388.4286,148.1184 z " style="fill: #3465a4; fill-opacity: 1.00; stroke: none; cursor: pointer;" id="ezcGraphPolygon_84" onclick="top.location = 'https://linux-hardware.org/?view=computers&amp;f=os_filesystem&amp;v=overlay&amp;p=99&amp;p=97'"/><path d=" M 434.1429,110.6208 L 434.1429,104.6208 L 440.1429,104.6208 L 440.1429,110.6208 L 434.1429,110.6208 z " style="fill: #3465a4; fill-opacity: 1.00; stroke: none; cursor: pointer;" id="ezcGraphPolygon_85" onclick="top.location = 'https://linux-hardware.org/?view=computers&amp;f=os_filesystem&amp;v=overlay&amp;p=99&amp;p=99'"/><path d=" M 159.8571,328.6512 L 159.8571,322.6512 L 165.8571,322.6512 L 165.8571,328.6512 L 159.8571,328.6512 z " style="fill: #4e9a06; fill-opacity: 1.00; stroke: none; cursor: pointer;" id="ezcGraphPolygon_86" onclick="top.location = 'https://linux-hardware.org/?view=computers&amp;f=os_filesystem&amp;v=ext4&amp;p=99&amp;p=87'"/><path d=" M 205.5714,335.3040 L 205.5714,329.3040 L 211.5714,329.3040 L 211.5714,335.3040 L 205.5714,335.3040 z " style="fill: #4e9a06; fill-opacity: 1.00; stroke: none; cursor: pointer;" id="ezcGraphPolygon_87" onclick="top.location = 'https://linux-hardware.org/?view=computers&amp;f=os_filesystem&amp;v=ext4&amp;p=99&amp;p=89'"/><path d=" M 251.2857,335.3040 L 251.2857,329.3040 L 257.2857,329.3040 L 257.2857,335.3040 L 251.2857,335.3040 z " style="fill: #4e9a06; fill-opacity: 1.00; stroke: none; cursor: pointer;" id="ezcGraphPolygon_88" onclick="top.location = 'https://linux-hardware.org/?view=computers&amp;f=os_filesystem&amp;v=ext4&amp;p=99&amp;p=91'"/><path d=" M 297.0000,321.9984 L 297.0000,315.9984 L 303.0000,315.9984 L 303.0000,321.9984 L 297.0000,321.9984 z " style="fill: #4e9a06; fill-opacity: 1.00; stroke: none; cursor: pointer;" id="ezcGraphPolygon_89" onclick="top.location = 'https://linux-hardware.org/?view=computers&amp;f=os_filesystem&amp;v=ext4&amp;p=99&amp;p=93'"/><path d=" M 342.7143,325.6272 L 342.7143,319.6272 L 348.7143,319.6272 L 348.7143,325.6272 L 342.7143,325.6272 z " style="fill: #4e9a06; fill-opacity: 1.00; stroke: none; cursor: pointer;" id="ezcGraphPolygon_90" onclick="top.location = 'https://linux-hardware.org/?view=computers&amp;f=os_filesystem&amp;v=ext4&amp;p=99&amp;p=95'"/><path d=" M 388.4286,321.0912 L 388.4286,315.0912 L 394.4286,315.0912 L 394.4286,321.0912 L 388.4286,321.0912 z " style="fill: #4e9a06; fill-opacity: 1.00; stroke: none; cursor: pointer;" id="ezcGraphPolygon_91" onclick="top.location = 'https://linux-hardware.org/?view=computers&amp;f=os_filesystem&amp;v=ext4&amp;p=99&amp;p=97'"/><path d=" M 434.1429,357.3792 L 434.1429,351.3792 L 440.1429,351.3792 L 440.1429,357.3792 L 434.1429,357.3792 z " style="fill: #4e9a06; fill-opacity: 1.00; stroke: none; cursor: pointer;" id="ezcGraphPolygon_92" onclick="top.location = 'https://linux-hardware.org/?view=computers&amp;f=os_filesystem&amp;v=ext4&amp;p=99&amp;p=99'"/><path d=" M 159.8571,384.5952 L 159.8571,378.5952 L 165.8571,378.5952 L 165.8571,384.5952 L 159.8571,384.5952 z " style="fill: #cc0000; fill-opacity: 1.00; stroke: none;" id="ezcGraphPolygon_93"/><path d=" M 205.5714,384.5952 L 205.5714,378.5952 L 211.5714,378.5952 L 211.5714,384.5952 L 205.5714,384.5952 z " style="fill: #cc0000; fill-opacity: 1.00; stroke: none;" id="ezcGraphPolygon_94"/><path d=" M 388.4286,383.6880 L 388.4286,377.6880 L 394.4286,377.6880 L 394.4286,383.6880 L 388.4286,383.6880 z " style="fill: #cc0000; fill-opacity: 1.00; stroke: none;" id="ezcGraphPolygon_95"/><g id="ezcGraphTextBox_3"><path d=" M 143.5000,42.0000 L 143.5000,0.5000 L 357.0000,0.5000 L 357.0000,42.0000 L 143.5000,42.0000 z " style="fill: #ffffff; fill-opacity: 0.00; stroke: none;" id="ezcGraphPolygon_96"/><text id="ezcGraphTextBox_3_text" x="144.0000" text-length="212.0000px" y="35.0000" style="font-size: 40px; font-family: 'Arial'; fill: #2e3436; fill-opacity: 1.00; stroke: none;">Filesystem</text></g><g id="ezcGraphTextBox_6" style=" cursor: pointer;" onclick="top.location = 'https://linux-hardware.org/?view=computers&amp;f=os_filesystem&amp;v=overlay&amp;p=99'"><path d=" M 16.5000,59.0000 L 16.5000,43.5000 L 69.9400,43.5000 L 69.9400,59.0000 L 16.5000,59.0000 z " style="fill: #ffffff; fill-opacity: 0.00; stroke: none;" id="ezcGraphPolygon_97"/><text id="ezcGraphTextBox_6_text" x="17.0000" text-length="51.9400px" y="55.9000" style="font-size: 14px; font-family: 'Arial'; fill: #2e3436; fill-opacity: 1.00; stroke: none;">Overlay</text></g><g id="ezcGraphTextBox_8" style=" cursor: pointer;" onclick="top.location = 'https://linux-hardware.org/?view=computers&amp;f=os_filesystem&amp;v=ext4&amp;p=99'"><path d=" M 16.5000,77.0000 L 16.5000,61.5000 L 47.6800,61.5000 L 47.6800,77.0000 L 16.5000,77.0000 z " style="fill: #ffffff; fill-opacity: 0.00; stroke: none;" id="ezcGraphPolygon_98"/><text id="ezcGraphTextBox_8_text" x="17.0000" text-length="29.6800px" y="73.9000" style="font-size: 14px; font-family: 'Arial'; fill: #2e3436; fill-opacity: 1.00; stroke: none;">Ext4</text></g><g id="ezcGraphTextBox_10"><path d=" M 16.5000,95.0000 L 16.5000,79.5000 L 62.5200,79.5000 L 62.5200,95.0000 L 16.5000,95.0000 z " style="fill: #ffffff; fill-opacity: 0.00; stroke: none;" id="ezcGraphPolygon_99"/><text id="ezcGraphTextBox_10_text" x="17.0000" text-length="44.5200px" y="91.9000" style="font-size: 14px; font-family: 'Arial'; fill: #2e3436; fill-opacity: 1.00; stroke: none;">Others</text></g><g id="ezcGraphTextBox_13" transform="rotate( 0.00 493.0000 375.2000 )"><path d=" M 460.4000,381.2000 L 460.4000,365.7000 L 499.0000,365.7000 L 499.0000,381.2000 L 460.4000,381.2000 z " style="fill: #ffffff; fill-opacity: 0.00; stroke: none;" id="ezcGraphPolygon_100"/><text id="ezcGraphTextBox_13_text" x="460.9000" text-length="37.1000px" y="378.1000" style="font-size: 14px; font-family: 'Arial'; fill: #2e3436; fill-opacity: 1.00; stroke: none;">Time </text></g><g id="ezcGraphTextBox_14"><path d=" M 144.9971,413.3000 L 144.9971,383.7000 L 181.2171,383.7000 L 181.2171,413.3000 L 144.9971,413.3000 z " style="fill: #ffffff; fill-opacity: 0.00; stroke: none;" id="ezcGraphPolygon_101"/><text id="ezcGraphTextBox_14_text" x="151.7271" text-length="22.2600px" y="396.1000" style="font-size: 14px; font-family: 'Arial'; fill: #2e3436; fill-opacity: 1.00; stroke: none;">Mar</text><text id="ezcGraphTextBox_14_text" x="145.4971" text-length="34.7200px" y="411.5000" style="font-size: 14px; font-family: 'Arial'; fill: #2e3436; fill-opacity: 1.00; stroke: none;">2021</text></g><g id="ezcGraphTextBox_17"><path d=" M 190.7114,413.3000 L 190.7114,383.7000 L 226.9314,383.7000 L 226.9314,413.3000 L 190.7114,413.3000 z " style="fill: #ffffff; fill-opacity: 0.00; stroke: none;" id="ezcGraphPolygon_102"/><text id="ezcGraphTextBox_17_text" x="197.4414" text-length="22.2600px" y="396.1000" style="font-size: 14px; font-family: 'Arial'; fill: #2e3436; fill-opacity: 1.00; stroke: none;">May</text><text id="ezcGraphTextBox_17_text" x="191.2114" text-length="34.7200px" y="411.5000" style="font-size: 14px; font-family: 'Arial'; fill: #2e3436; fill-opacity: 1.00; stroke: none;">2021</text></g><g id="ezcGraphTextBox_20"><path d=" M 236.4257,413.3000 L 236.4257,383.7000 L 272.6457,383.7000 L 272.6457,413.3000 L 236.4257,413.3000 z " style="fill: #ffffff; fill-opacity: 0.00; stroke: none;" id="ezcGraphPolygon_103"/><text id="ezcGraphTextBox_20_text" x="243.1557" text-length="22.2600px" y="396.1000" style="font-size: 14px; font-family: 'Arial'; fill: #2e3436; fill-opacity: 1.00; stroke: none;">Jul</text><text id="ezcGraphTextBox_20_text" x="236.9257" text-length="34.7200px" y="411.5000" style="font-size: 14px; font-family: 'Arial'; fill: #2e3436; fill-opacity: 1.00; stroke: none;">2021</text></g><g id="ezcGraphTextBox_23"><path d=" M 282.1400,413.3000 L 282.1400,383.7000 L 318.3600,383.7000 L 318.3600,413.3000 L 282.1400,413.3000 z " style="fill: #ffffff; fill-opacity: 0.00; stroke: none;" id="ezcGraphPolygon_104"/><text id="ezcGraphTextBox_23_text" x="288.8700" text-length="22.2600px" y="396.1000" style="font-size: 14px; font-family: 'Arial'; fill: #2e3436; fill-opacity: 1.00; stroke: none;">Sep</text><text id="ezcGraphTextBox_23_text" x="282.6400" text-length="34.7200px" y="411.5000" style="font-size: 14px; font-family: 'Arial'; fill: #2e3436; fill-opacity: 1.00; stroke: none;">2021</text></g><g id="ezcGraphTextBox_26"><path d=" M 327.8543,413.3000 L 327.8543,383.7000 L 364.0743,383.7000 L 364.0743,413.3000 L 327.8543,413.3000 z " style="fill: #ffffff; fill-opacity: 0.00; stroke: none;" id="ezcGraphPolygon_105"/><text id="ezcGraphTextBox_26_text" x="334.5843" text-length="22.2600px" y="396.1000" style="font-size: 14px; font-family: 'Arial'; fill: #2e3436; fill-opacity: 1.00; stroke: none;">Nov</text><text id="ezcGraphTextBox_26_text" x="328.3543" text-length="34.7200px" y="411.5000" style="font-size: 14px; font-family: 'Arial'; fill: #2e3436; fill-opacity: 1.00; stroke: none;">2021</text></g><g id="ezcGraphTextBox_29"><path d=" M 373.5686,413.3000 L 373.5686,383.7000 L 409.7886,383.7000 L 409.7886,413.3000 L 373.5686,413.3000 z " style="fill: #ffffff; fill-opacity: 0.00; stroke: none;" id="ezcGraphPolygon_106"/><text id="ezcGraphTextBox_29_text" x="380.2986" text-length="22.2600px" y="396.1000" style="font-size: 14px; font-family: 'Arial'; fill: #2e3436; fill-opacity: 1.00; stroke: none;">Jan</text><text id="ezcGraphTextBox_29_text" x="374.0686" text-length="34.7200px" y="411.5000" style="font-size: 14px; font-family: 'Arial'; fill: #2e3436; fill-opacity: 1.00; stroke: none;">2022</text></g><g id="ezcGraphTextBox_32"><path d=" M 419.2829,413.3000 L 419.2829,383.7000 L 455.5029,383.7000 L 455.5029,413.3000 L 419.2829,413.3000 z " style="fill: #ffffff; fill-opacity: 0.00; stroke: none;" id="ezcGraphPolygon_107"/><text id="ezcGraphTextBox_32_text" x="426.0129" text-length="22.2600px" y="396.1000" style="font-size: 14px; font-family: 'Arial'; fill: #2e3436; fill-opacity: 1.00; stroke: none;">Mar</text><text id="ezcGraphTextBox_32_text" x="419.7829" text-length="34.7200px" y="411.5000" style="font-size: 14px; font-family: 'Arial'; fill: #2e3436; fill-opacity: 1.00; stroke: none;">2022</text></g><g id="ezcGraphTextBox_37" transform="rotate( 0.00 147.0000 49.0000 )"><path d=" M 141.5000,59.0000 L 141.5000,43.5000 L 350.7600,43.5000 L 350.7600,59.0000 L 141.5000,59.0000 z " style="fill: #ffffff; fill-opacity: 0.00; stroke: none;" id="ezcGraphPolygon_108"/><text id="ezcGraphTextBox_37_text" x="142.0000" text-length="207.7600px" y="55.9000" style="font-size: 14px; font-family: 'Arial'; fill: #2e3436; fill-opacity: 1.00; stroke: none;">Computers by Filesystem in %</text></g><g id="ezcGraphTextBox_38"><path d=" M 128.8200,381.2000 L 128.8200,365.7000 L 139.0000,365.7000 L 139.0000,381.2000 L 128.8200,381.2000 z " style="fill: #ffffff; fill-opacity: 0.00; stroke: none;" id="ezcGraphPolygon_109"/><text id="ezcGraphTextBox_38_text" x="129.3200" text-length="8.6800px" y="378.1000" style="font-size: 14px; font-family: 'Arial'; fill: #2e3436; fill-opacity: 1.00; stroke: none;">0</text></g><g id="ezcGraphTextBox_41"><path d=" M 120.1400,230.0000 L 120.1400,214.5000 L 139.0000,214.5000 L 139.0000,230.0000 L 120.1400,230.0000 z " style="fill: #ffffff; fill-opacity: 0.00; stroke: none;" id="ezcGraphPolygon_110"/><text id="ezcGraphTextBox_41_text" x="120.6400" text-length="17.3600px" y="226.9000" style="font-size: 14px; font-family: 'Arial'; fill: #2e3436; fill-opacity: 1.00; stroke: none;">50</text></g><g id="ezcGraphTextBox_44"><path d=" M 111.4600,96.8000 L 111.4600,81.3000 L 139.0000,81.3000 L 139.0000,96.8000 L 111.4600,96.8000 z " style="fill: #ffffff; fill-opacity: 0.00; stroke: none;" id="ezcGraphPolygon_111"/><text id="ezcGraphTextBox_44_text" x="111.9600" text-length="26.0400px" y="93.7000" style="font-size: 14px; font-family: 'Arial'; fill: #2e3436; fill-opacity: 1.00; stroke: none;">100</text></g><g id="ezcGraphTextBox_46"><path d=" M 149.9571,131.9536 L 149.9571,120.4536 L 176.2571,120.4536 L 176.2571,131.9536 L 149.9571,131.9536 z " style="fill: #ffffff; fill-opacity: 0.00; stroke: none;" id="ezcGraphPolygon_112"/><text id="ezcGraphTextBox_46_text" x="150.4571" text-length="24.8000px" y="129.4536" style="font-size: 10px; font-family: 'Arial'; fill: #2e3436; fill-opacity: 1.00; stroke: none;">81.1</text></g><g id="ezcGraphTextBox_48"><path d=" M 195.6714,125.3008 L 195.6714,113.8008 L 221.9714,113.8008 L 221.9714,125.3008 L 195.6714,125.3008 z " style="fill: #ffffff; fill-opacity: 0.00; stroke: none;" id="ezcGraphPolygon_113"/><text id="ezcGraphTextBox_48_text" x="196.1714" text-length="24.8000px" y="122.8008" style="font-size: 10px; font-family: 'Arial'; fill: #2e3436; fill-opacity: 1.00; stroke: none;">83.3</text></g><g id="ezcGraphTextBox_50"><path d=" M 241.3857,124.6960 L 241.3857,113.1960 L 267.6857,113.1960 L 267.6857,124.6960 L 241.3857,124.6960 z " style="fill: #ffffff; fill-opacity: 0.00; stroke: none;" id="ezcGraphPolygon_114"/><text id="ezcGraphTextBox_50_text" x="241.8857" text-length="24.8000px" y="122.1960" style="font-size: 10px; font-family: 'Arial'; fill: #2e3436; fill-opacity: 1.00; stroke: none;">83.5</text></g><g id="ezcGraphTextBox_52"><path d=" M 287.1000,138.0016 L 287.1000,126.5016 L 313.4000,126.5016 L 313.4000,138.0016 L 287.1000,138.0016 z " style="fill: #ffffff; fill-opacity: 0.00; stroke: none;" id="ezcGraphPolygon_115"/><text id="ezcGraphTextBox_52_text" x="287.6000" text-length="24.8000px" y="135.5016" style="font-size: 10px; font-family: 'Arial'; fill: #2e3436; fill-opacity: 1.00; stroke: none;">79.1</text></g><g id="ezcGraphTextBox_54"><path d=" M 332.8143,134.3728 L 332.8143,122.8728 L 359.1143,122.8728 L 359.1143,134.3728 L 332.8143,134.3728 z " style="fill: #ffffff; fill-opacity: 0.00; stroke: none;" id="ezcGraphPolygon_116"/><text id="ezcGraphTextBox_54_text" x="333.3143" text-length="24.8000px" y="131.8728" style="font-size: 10px; font-family: 'Arial'; fill: #2e3436; fill-opacity: 1.00; stroke: none;">80.3</text></g><g id="ezcGraphTextBox_56"><path d=" M 378.5286,140.1184 L 378.5286,128.6184 L 404.8286,128.6184 L 404.8286,140.1184 L 378.5286,140.1184 z " style="fill: #ffffff; fill-opacity: 0.00; stroke: none;" id="ezcGraphPolygon_117"/><text id="ezcGraphTextBox_56_text" x="379.0286" text-length="24.8000px" y="137.6184" style="font-size: 10px; font-family: 'Arial'; fill: #2e3436; fill-opacity: 1.00; stroke: none;">78.4</text></g><g id="ezcGraphTextBox_58"><path d=" M 424.2429,102.6208 L 424.2429,91.1208 L 450.5429,91.1208 L 450.5429,102.6208 L 424.2429,102.6208 z " style="fill: #ffffff; fill-opacity: 0.00; stroke: none;" id="ezcGraphPolygon_118"/><text id="ezcGraphTextBox_58_text" x="424.7429" text-length="24.8000px" y="100.1208" style="font-size: 10px; font-family: 'Arial'; fill: #2e3436; fill-opacity: 1.00; stroke: none;">90.8</text></g><g id="ezcGraphTextBox_60"><path d=" M 149.9571,320.6512 L 149.9571,309.1512 L 176.2571,309.1512 L 176.2571,320.6512 L 149.9571,320.6512 z " style="fill: #ffffff; fill-opacity: 0.00; stroke: none;" id="ezcGraphPolygon_119"/><text id="ezcGraphTextBox_60_text" x="150.4571" text-length="24.8000px" y="318.1512" style="font-size: 10px; font-family: 'Arial'; fill: #2e3436; fill-opacity: 1.00; stroke: none;">18.7</text></g><g id="ezcGraphTextBox_62"><path d=" M 195.6714,327.3040 L 195.6714,315.8040 L 221.9714,315.8040 L 221.9714,327.3040 L 195.6714,327.3040 z " style="fill: #ffffff; fill-opacity: 0.00; stroke: none;" id="ezcGraphPolygon_120"/><text id="ezcGraphTextBox_62_text" x="196.1714" text-length="24.8000px" y="324.8040" style="font-size: 10px; font-family: 'Arial'; fill: #2e3436; fill-opacity: 1.00; stroke: none;">16.5</text></g><g id="ezcGraphTextBox_64"><path d=" M 241.3857,327.3040 L 241.3857,315.8040 L 267.6857,315.8040 L 267.6857,327.3040 L 241.3857,327.3040 z " style="fill: #ffffff; fill-opacity: 0.00; stroke: none;" id="ezcGraphPolygon_121"/><text id="ezcGraphTextBox_64_text" x="241.8857" text-length="24.8000px" y="324.8040" style="font-size: 10px; font-family: 'Arial'; fill: #2e3436; fill-opacity: 1.00; stroke: none;">16.5</text></g><g id="ezcGraphTextBox_66"><path d=" M 287.1000,313.9984 L 287.1000,302.4984 L 313.4000,302.4984 L 313.4000,313.9984 L 287.1000,313.9984 z " style="fill: #ffffff; fill-opacity: 0.00; stroke: none;" id="ezcGraphPolygon_122"/><text id="ezcGraphTextBox_66_text" x="287.6000" text-length="24.8000px" y="311.4984" style="font-size: 10px; font-family: 'Arial'; fill: #2e3436; fill-opacity: 1.00; stroke: none;">20.9</text></g><g id="ezcGraphTextBox_68"><path d=" M 332.8143,317.6272 L 332.8143,306.1272 L 359.1143,306.1272 L 359.1143,317.6272 L 332.8143,317.6272 z " style="fill: #ffffff; fill-opacity: 0.00; stroke: none;" id="ezcGraphPolygon_123"/><text id="ezcGraphTextBox_68_text" x="333.3143" text-length="24.8000px" y="315.1272" style="font-size: 10px; font-family: 'Arial'; fill: #2e3436; fill-opacity: 1.00; stroke: none;">19.7</text></g><g id="ezcGraphTextBox_70"><path d=" M 378.5286,313.0912 L 378.5286,301.5912 L 404.8286,301.5912 L 404.8286,313.0912 L 378.5286,313.0912 z " style="fill: #ffffff; fill-opacity: 0.00; stroke: none;" id="ezcGraphPolygon_124"/><text id="ezcGraphTextBox_70_text" x="379.0286" text-length="24.8000px" y="310.5912" style="font-size: 10px; font-family: 'Arial'; fill: #2e3436; fill-opacity: 1.00; stroke: none;">21.2</text></g><g id="ezcGraphTextBox_72"><path d=" M 427.3429,349.3792 L 427.3429,337.8792 L 447.4429,337.8792 L 447.4429,349.3792 L 427.3429,349.3792 z " style="fill: #ffffff; fill-opacity: 0.00; stroke: none;" id="ezcGraphPolygon_125"/><text id="ezcGraphTextBox_72_text" x="427.8429" text-length="18.6000px" y="346.8792" style="font-size: 10px; font-family: 'Arial'; fill: #2e3436; fill-opacity: 1.00; stroke: none;">9.2</text></g><g id="ezcGraphTextBox_74"><path d=" M 153.0571,376.5952 L 153.0571,365.0952 L 173.1571,365.0952 L 173.1571,376.5952 L 153.0571,376.5952 z " style="fill: #ffffff; fill-opacity: 0.00; stroke: none;" id="ezcGraphPolygon_126"/><text id="ezcGraphTextBox_74_text" x="153.5571" text-length="18.6000px" y="374.0952" style="font-size: 10px; font-family: 'Arial'; fill: #2e3436; fill-opacity: 1.00; stroke: none;">0.2</text></g><g id="ezcGraphTextBox_76"><path d=" M 198.7714,376.5952 L 198.7714,365.0952 L 218.8714,365.0952 L 218.8714,376.5952 L 198.7714,376.5952 z " style="fill: #ffffff; fill-opacity: 0.00; stroke: none;" id="ezcGraphPolygon_127"/><text id="ezcGraphTextBox_76_text" x="199.2714" text-length="18.6000px" y="374.0952" style="font-size: 10px; font-family: 'Arial'; fill: #2e3436; fill-opacity: 1.00; stroke: none;">0.2</text></g><g id="ezcGraphTextBox_78"><path d=" M 381.6286,375.6880 L 381.6286,364.1880 L 401.7286,364.1880 L 401.7286,375.6880 L 381.6286,375.6880 z " style="fill: #ffffff; fill-opacity: 0.00; stroke: none;" id="ezcGraphPolygon_128"/><text id="ezcGraphTextBox_78_text" x="382.1286" text-length="18.6000px" y="373.1880" style="font-size: 10px; font-family: 'Arial'; fill: #2e3436; fill-opacity: 1.00; stroke: none;">0.5</text></g></g></svg>
