<?xml version="1.0"?>
<svg xmlns="http://www.w3.org/2000/svg" width="500" height="420" version="1.0" id="ezcGraph"><defs/><g id="ezcGraphChart" color-rendering="optimizeQuality" shape-rendering="geometricPrecision" text-rendering="optimizeLegibility"><path d=" M 0.0000,420.0000 L 0.0000,0.0000 L 500.0000,0.0000 L 500.0000,420.0000 L 0.0000,420.0000 z " style="fill: #eeeeec; fill-opacity: 1.00; stroke: none;" id="ezcGraphPolygon_1"/><path d=" M 0.0000,42.0000 L 0.0000,0.0000 L 500.0000,0.0000 L 500.0000,42.0000 L 0.0000,42.0000 z " style="fill: #000000; fill-opacity: 0.00; stroke: none;" id="ezcGraphPolygon_2"/><path d=" M 0.0000,420.0000 L 0.0000,42.0000 L 100.0000,42.0000 L 100.0000,420.0000 L 0.0000,420.0000 z " style="fill: #000000; fill-opacity: 0.00; stroke: none;" id="ezcGraphPolygon_4"/><path d=" M 2.0000,58.0000 L 2.0000,44.0000 L 16.0000,44.0000 L 16.0000,58.0000 L 2.0000,58.0000 z " style="fill: #3465a4; fill-opacity: 1.00; stroke: none; cursor: pointer;" id="ezcGraphPolygon_5" onclick="top.location = 'https://linux-hardware.org/?view=computers&amp;f=os_kernel_major&amp;v=5.16&amp;p=99'"/><path d=" M 2.0000,76.0000 L 2.0000,62.0000 L 16.0000,62.0000 L 16.0000,76.0000 L 2.0000,76.0000 z " style="fill: #4e9a06; fill-opacity: 1.00; stroke: none; cursor: pointer;" id="ezcGraphPolygon_7" onclick="top.location = 'https://linux-hardware.org/?view=computers&amp;f=os_kernel_major&amp;v=5.10&amp;p=99'"/><path d=" M 2.0000,94.0000 L 2.0000,80.0000 L 16.0000,80.0000 L 16.0000,94.0000 L 2.0000,94.0000 z " style="fill: #cc0000; fill-opacity: 1.00; stroke: none; cursor: pointer;" id="ezcGraphPolygon_9" onclick="top.location = 'https://linux-hardware.org/?view=computers&amp;f=os_kernel_major&amp;v=5.12&amp;p=99'"/><path d=" M 2.0000,112.0000 L 2.0000,98.0000 L 16.0000,98.0000 L 16.0000,112.0000 L 2.0000,112.0000 z " style="fill: #edd400; fill-opacity: 1.00; stroke: none;" id="ezcGraphPolygon_11"/><path d=" M 100.0000,382.2000 L 500.0000,382.2000" style="fill: none; stroke: #2e3436; stroke-width: 1; stroke-opacity: 1.00; stroke-linecap: round; stroke-linejoin: round;" id="ezcGraphLine_13"/><path d=" M 492.0000,378.2000 L 500.0000,382.2000 L 492.0000,386.2000 L 492.0000,378.2000 z " style="fill: #2e3436; fill-opacity: 1.00; stroke: none;" id="ezcGraphPolygon_14"/><path d=" M 185.7143,79.8000 L 185.7143,382.2000" style="fill: none; stroke: #000000; stroke-width: 1; stroke-opacity: 0.00; stroke-linecap: round; stroke-linejoin: round;" id="ezcGraphLine_17"/><path d=" M 185.7143,379.2000 L 185.7143,385.2000" style="fill: none; stroke: #2e3436; stroke-width: 1; stroke-opacity: 1.00; stroke-linecap: round; stroke-linejoin: round;" id="ezcGraphLine_18"/><path d=" M 231.4286,79.8000 L 231.4286,382.2000" style="fill: none; stroke: #000000; stroke-width: 1; stroke-opacity: 0.00; stroke-linecap: round; stroke-linejoin: round;" id="ezcGraphLine_20"/><path d=" M 231.4286,379.2000 L 231.4286,385.2000" style="fill: none; stroke: #2e3436; stroke-width: 1; stroke-opacity: 1.00; stroke-linecap: round; stroke-linejoin: round;" id="ezcGraphLine_21"/><path d=" M 277.1429,79.8000 L 277.1429,382.2000" style="fill: none; stroke: #000000; stroke-width: 1; stroke-opacity: 0.00; stroke-linecap: round; stroke-linejoin: round;" id="ezcGraphLine_23"/><path d=" M 277.1429,379.2000 L 277.1429,385.2000" style="fill: none; stroke: #2e3436; stroke-width: 1; stroke-opacity: 1.00; stroke-linecap: round; stroke-linejoin: round;" id="ezcGraphLine_24"/><path d=" M 322.8571,79.8000 L 322.8571,382.2000" style="fill: none; stroke: #000000; stroke-width: 1; stroke-opacity: 0.00; stroke-linecap: round; stroke-linejoin: round;" id="ezcGraphLine_26"/><path d=" M 322.8571,379.2000 L 322.8571,385.2000" style="fill: none; stroke: #2e3436; stroke-width: 1; stroke-opacity: 1.00; stroke-linecap: round; stroke-linejoin: round;" id="ezcGraphLine_27"/><path d=" M 368.5714,79.8000 L 368.5714,382.2000" style="fill: none; stroke: #000000; stroke-width: 1; stroke-opacity: 0.00; stroke-linecap: round; stroke-linejoin: round;" id="ezcGraphLine_29"/><path d=" M 368.5714,379.2000 L 368.5714,385.2000" style="fill: none; stroke: #2e3436; stroke-width: 1; stroke-opacity: 1.00; stroke-linecap: round; stroke-linejoin: round;" id="ezcGraphLine_30"/><path d=" M 414.2857,79.8000 L 414.2857,382.2000" style="fill: none; stroke: #000000; stroke-width: 1; stroke-opacity: 0.00; stroke-linecap: round; stroke-linejoin: round;" id="ezcGraphLine_32"/><path d=" M 414.2857,379.2000 L 414.2857,385.2000" style="fill: none; stroke: #2e3436; stroke-width: 1; stroke-opacity: 1.00; stroke-linecap: round; stroke-linejoin: round;" id="ezcGraphLine_33"/><path d=" M 460.0000,79.8000 L 460.0000,382.2000" style="fill: none; stroke: #000000; stroke-width: 1; stroke-opacity: 0.00; stroke-linecap: round; stroke-linejoin: round;" id="ezcGraphLine_35"/><path d=" M 460.0000,379.2000 L 460.0000,385.2000" style="fill: none; stroke: #2e3436; stroke-width: 1; stroke-opacity: 1.00; stroke-linecap: round; stroke-linejoin: round;" id="ezcGraphLine_36"/><path d=" M 140.0000,420.0000 L 140.0000,42.0000" style="fill: none; stroke: #2e3436; stroke-width: 1; stroke-opacity: 1.00; stroke-linecap: round; stroke-linejoin: round;" id="ezcGraphLine_37"/><path d=" M 136.0000,50.0000 L 140.0000,42.0000 L 144.0000,50.0000 L 136.0000,50.0000 z " style="fill: #2e3436; fill-opacity: 1.00; stroke: none;" id="ezcGraphPolygon_38"/><path d=" M 140.0000,231.0000 L 460.0000,231.0000" style="fill: none; stroke: #000000; stroke-width: 1; stroke-opacity: 0.00; stroke-linecap: round; stroke-linejoin: round;" id="ezcGraphLine_41"/><path d=" M 140.0000,231.0000 L 143.0000,231.0000" style="fill: none; stroke: #2e3436; stroke-width: 1; stroke-opacity: 1.00; stroke-linecap: round; stroke-linejoin: round;" id="ezcGraphLine_42"/><path d=" M 140.0000,79.8000 L 460.0000,79.8000" style="fill: none; stroke: #000000; stroke-width: 1; stroke-opacity: 0.00; stroke-linecap: round; stroke-linejoin: round;" id="ezcGraphLine_44"/><path d=" M 140.0000,79.8000 L 143.0000,79.8000" style="fill: none; stroke: #2e3436; stroke-width: 1; stroke-opacity: 1.00; stroke-linecap: round; stroke-linejoin: round;" id="ezcGraphLine_45"/><path d=" M 391.4286,353.1696 L 391.4286,353.1696" style="fill: none; stroke: #3465a4; stroke-width: 1; stroke-opacity: 1.00; stroke-linecap: round; stroke-linejoin: round;" id="ezcGraphLine_47"/><path d=" M 391.4286,353.1696 L 437.1429,119.4144" style="fill: none; stroke: #3465a4; stroke-width: 1; stroke-opacity: 1.00; stroke-linecap: round; stroke-linejoin: round;" id="ezcGraphLine_49"/><path d=" M 162.8571,84.6384 L 162.8571,84.6384" style="fill: none; stroke: #4e9a06; stroke-width: 1; stroke-opacity: 1.00; stroke-linecap: round; stroke-linejoin: round;" id="ezcGraphLine_51"/><path d=" M 162.8571,84.6384 L 208.5714,140.5824" style="fill: none; stroke: #4e9a06; stroke-width: 1; stroke-opacity: 1.00; stroke-linecap: round; stroke-linejoin: round;" id="ezcGraphLine_53"/><path d=" M 208.5714,140.5824 L 254.2857,103.0848" style="fill: none; stroke: #4e9a06; stroke-width: 1; stroke-opacity: 1.00; stroke-linecap: round; stroke-linejoin: round;" id="ezcGraphLine_55"/><path d=" M 254.2857,103.0848 L 300.0000,120.3216" style="fill: none; stroke: #4e9a06; stroke-width: 1; stroke-opacity: 1.00; stroke-linecap: round; stroke-linejoin: round;" id="ezcGraphLine_57"/><path d=" M 300.0000,120.3216 L 345.7143,122.7408" style="fill: none; stroke: #4e9a06; stroke-width: 1; stroke-opacity: 1.00; stroke-linecap: round; stroke-linejoin: round;" id="ezcGraphLine_59"/><path d=" M 345.7143,122.7408 L 391.4286,140.8848" style="fill: none; stroke: #4e9a06; stroke-width: 1; stroke-opacity: 1.00; stroke-linecap: round; stroke-linejoin: round;" id="ezcGraphLine_61"/><path d=" M 391.4286,140.8848 L 437.1429,346.5168" style="fill: none; stroke: #4e9a06; stroke-width: 1; stroke-opacity: 1.00; stroke-linecap: round; stroke-linejoin: round;" id="ezcGraphLine_63"/><path d=" M 208.5714,331.6992 L 208.5714,331.6992" style="fill: none; stroke: #cc0000; stroke-width: 1; stroke-opacity: 1.00; stroke-linecap: round; stroke-linejoin: round;" id="ezcGraphLine_65"/><path d=" M 208.5714,331.6992 L 254.2857,363.4512" style="fill: none; stroke: #cc0000; stroke-width: 1; stroke-opacity: 1.00; stroke-linecap: round; stroke-linejoin: round;" id="ezcGraphLine_67"/><path d=" M 254.2857,363.4512 L 300.0000,364.3584" style="fill: none; stroke: #cc0000; stroke-width: 1; stroke-opacity: 1.00; stroke-linecap: round; stroke-linejoin: round;" id="ezcGraphLine_69"/><path d=" M 300.0000,364.3584 L 345.7143,368.8944" style="fill: none; stroke: #cc0000; stroke-width: 1; stroke-opacity: 1.00; stroke-linecap: round; stroke-linejoin: round;" id="ezcGraphLine_71"/><path d=" M 345.7143,368.8944 L 391.4286,379.1760" style="fill: none; stroke: #cc0000; stroke-width: 1; stroke-opacity: 1.00; stroke-linecap: round; stroke-linejoin: round;" id="ezcGraphLine_73"/><path d=" M 391.4286,379.1760 L 437.1429,378.2688" style="fill: none; stroke: #cc0000; stroke-width: 1; stroke-opacity: 1.00; stroke-linecap: round; stroke-linejoin: round;" id="ezcGraphLine_75"/><path d=" M 162.8571,377.3616 L 162.8571,377.3616" style="fill: none; stroke: #edd400; stroke-width: 1; stroke-opacity: 1.00; stroke-linecap: round; stroke-linejoin: round;" id="ezcGraphLine_77"/><path d=" M 162.8571,377.3616 L 208.5714,371.6160" style="fill: none; stroke: #edd400; stroke-width: 1; stroke-opacity: 1.00; stroke-linecap: round; stroke-linejoin: round;" id="ezcGraphLine_79"/><path d=" M 208.5714,371.6160 L 254.2857,377.6640" style="fill: none; stroke: #edd400; stroke-width: 1; stroke-opacity: 1.00; stroke-linecap: round; stroke-linejoin: round;" id="ezcGraphLine_81"/><path d=" M 254.2857,377.6640 L 300.0000,359.5200" style="fill: none; stroke: #edd400; stroke-width: 1; stroke-opacity: 1.00; stroke-linecap: round; stroke-linejoin: round;" id="ezcGraphLine_83"/><path d=" M 300.0000,359.5200 L 345.7143,352.2624" style="fill: none; stroke: #edd400; stroke-width: 1; stroke-opacity: 1.00; stroke-linecap: round; stroke-linejoin: round;" id="ezcGraphLine_85"/><path d=" M 345.7143,352.2624 L 391.4286,353.1696" style="fill: none; stroke: #edd400; stroke-width: 1; stroke-opacity: 1.00; stroke-linecap: round; stroke-linejoin: round;" id="ezcGraphLine_87"/><path d=" M 388.4286,356.1696 L 388.4286,350.1696 L 394.4286,350.1696 L 394.4286,356.1696 L 388.4286,356.1696 z " style="fill: #3465a4; fill-opacity: 1.00; stroke: none; cursor: pointer;" id="ezcGraphPolygon_89" onclick="top.location = 'https://linux-hardware.org/?view=computers&amp;f=os_kernel_major&amp;v=5.16&amp;p=99&amp;p=97'"/><path d=" M 434.1429,122.4144 L 434.1429,116.4144 L 440.1429,116.4144 L 440.1429,122.4144 L 434.1429,122.4144 z " style="fill: #3465a4; fill-opacity: 1.00; stroke: none; cursor: pointer;" id="ezcGraphPolygon_90" onclick="top.location = 'https://linux-hardware.org/?view=computers&amp;f=os_kernel_major&amp;v=5.16&amp;p=99&amp;p=99'"/><path d=" M 159.8571,87.6384 L 159.8571,81.6384 L 165.8571,81.6384 L 165.8571,87.6384 L 159.8571,87.6384 z " style="fill: #4e9a06; fill-opacity: 1.00; stroke: none; cursor: pointer;" id="ezcGraphPolygon_91" onclick="top.location = 'https://linux-hardware.org/?view=computers&amp;f=os_kernel_major&amp;v=5.10&amp;p=99&amp;p=87'"/><path d=" M 205.5714,143.5824 L 205.5714,137.5824 L 211.5714,137.5824 L 211.5714,143.5824 L 205.5714,143.5824 z " style="fill: #4e9a06; fill-opacity: 1.00; stroke: none; cursor: pointer;" id="ezcGraphPolygon_92" onclick="top.location = 'https://linux-hardware.org/?view=computers&amp;f=os_kernel_major&amp;v=5.10&amp;p=99&amp;p=89'"/><path d=" M 251.2857,106.0848 L 251.2857,100.0848 L 257.2857,100.0848 L 257.2857,106.0848 L 251.2857,106.0848 z " style="fill: #4e9a06; fill-opacity: 1.00; stroke: none; cursor: pointer;" id="ezcGraphPolygon_93" onclick="top.location = 'https://linux-hardware.org/?view=computers&amp;f=os_kernel_major&amp;v=5.10&amp;p=99&amp;p=91'"/><path d=" M 297.0000,123.3216 L 297.0000,117.3216 L 303.0000,117.3216 L 303.0000,123.3216 L 297.0000,123.3216 z " style="fill: #4e9a06; fill-opacity: 1.00; stroke: none; cursor: pointer;" id="ezcGraphPolygon_94" onclick="top.location = 'https://linux-hardware.org/?view=computers&amp;f=os_kernel_major&amp;v=5.10&amp;p=99&amp;p=93'"/><path d=" M 342.7143,125.7408 L 342.7143,119.7408 L 348.7143,119.7408 L 348.7143,125.7408 L 342.7143,125.7408 z " style="fill: #4e9a06; fill-opacity: 1.00; stroke: none; cursor: pointer;" id="ezcGraphPolygon_95" onclick="top.location = 'https://linux-hardware.org/?view=computers&amp;f=os_kernel_major&amp;v=5.10&amp;p=99&amp;p=95'"/><path d=" M 388.4286,143.8848 L 388.4286,137.8848 L 394.4286,137.8848 L 394.4286,143.8848 L 388.4286,143.8848 z " style="fill: #4e9a06; fill-opacity: 1.00; stroke: none; cursor: pointer;" id="ezcGraphPolygon_96" onclick="top.location = 'https://linux-hardware.org/?view=computers&amp;f=os_kernel_major&amp;v=5.10&amp;p=99&amp;p=97'"/><path d=" M 434.1429,349.5168 L 434.1429,343.5168 L 440.1429,343.5168 L 440.1429,349.5168 L 434.1429,349.5168 z " style="fill: #4e9a06; fill-opacity: 1.00; stroke: none; cursor: pointer;" id="ezcGraphPolygon_97" onclick="top.location = 'https://linux-hardware.org/?view=computers&amp;f=os_kernel_major&amp;v=5.10&amp;p=99&amp;p=99'"/><path d=" M 205.5714,334.6992 L 205.5714,328.6992 L 211.5714,328.6992 L 211.5714,334.6992 L 205.5714,334.6992 z " style="fill: #cc0000; fill-opacity: 1.00; stroke: none; cursor: pointer;" id="ezcGraphPolygon_98" onclick="top.location = 'https://linux-hardware.org/?view=computers&amp;f=os_kernel_major&amp;v=5.12&amp;p=99&amp;p=89'"/><path d=" M 251.2857,366.4512 L 251.2857,360.4512 L 257.2857,360.4512 L 257.2857,366.4512 L 251.2857,366.4512 z " style="fill: #cc0000; fill-opacity: 1.00; stroke: none; cursor: pointer;" id="ezcGraphPolygon_99" onclick="top.location = 'https://linux-hardware.org/?view=computers&amp;f=os_kernel_major&amp;v=5.12&amp;p=99&amp;p=91'"/><path d=" M 297.0000,367.3584 L 297.0000,361.3584 L 303.0000,361.3584 L 303.0000,367.3584 L 297.0000,367.3584 z " style="fill: #cc0000; fill-opacity: 1.00; stroke: none; cursor: pointer;" id="ezcGraphPolygon_100" onclick="top.location = 'https://linux-hardware.org/?view=computers&amp;f=os_kernel_major&amp;v=5.12&amp;p=99&amp;p=93'"/><path d=" M 342.7143,371.8944 L 342.7143,365.8944 L 348.7143,365.8944 L 348.7143,371.8944 L 342.7143,371.8944 z " style="fill: #cc0000; fill-opacity: 1.00; stroke: none; cursor: pointer;" id="ezcGraphPolygon_101" onclick="top.location = 'https://linux-hardware.org/?view=computers&amp;f=os_kernel_major&amp;v=5.12&amp;p=99&amp;p=95'"/><path d=" M 388.4286,382.1760 L 388.4286,376.1760 L 394.4286,376.1760 L 394.4286,382.1760 L 388.4286,382.1760 z " style="fill: #cc0000; fill-opacity: 1.00; stroke: none; cursor: pointer;" id="ezcGraphPolygon_102" onclick="top.location = 'https://linux-hardware.org/?view=computers&amp;f=os_kernel_major&amp;v=5.12&amp;p=99&amp;p=97'"/><path d=" M 434.1429,381.2688 L 434.1429,375.2688 L 440.1429,375.2688 L 440.1429,381.2688 L 434.1429,381.2688 z " style="fill: #cc0000; fill-opacity: 1.00; stroke: none; cursor: pointer;" id="ezcGraphPolygon_103" onclick="top.location = 'https://linux-hardware.org/?view=computers&amp;f=os_kernel_major&amp;v=5.12&amp;p=99&amp;p=99'"/><path d=" M 159.8571,380.3616 L 159.8571,374.3616 L 165.8571,374.3616 L 165.8571,380.3616 L 159.8571,380.3616 z " style="fill: #edd400; fill-opacity: 1.00; stroke: none;" id="ezcGraphPolygon_104"/><path d=" M 205.5714,374.6160 L 205.5714,368.6160 L 211.5714,368.6160 L 211.5714,374.6160 L 205.5714,374.6160 z " style="fill: #edd400; fill-opacity: 1.00; stroke: none;" id="ezcGraphPolygon_105"/><path d=" M 251.2857,380.6640 L 251.2857,374.6640 L 257.2857,374.6640 L 257.2857,380.6640 L 251.2857,380.6640 z " style="fill: #edd400; fill-opacity: 1.00; stroke: none;" id="ezcGraphPolygon_106"/><path d=" M 297.0000,362.5200 L 297.0000,356.5200 L 303.0000,356.5200 L 303.0000,362.5200 L 297.0000,362.5200 z " style="fill: #edd400; fill-opacity: 1.00; stroke: none;" id="ezcGraphPolygon_107"/><path d=" M 342.7143,355.2624 L 342.7143,349.2624 L 348.7143,349.2624 L 348.7143,355.2624 L 342.7143,355.2624 z " style="fill: #edd400; fill-opacity: 1.00; stroke: none;" id="ezcGraphPolygon_108"/><path d=" M 388.4286,356.1696 L 388.4286,350.1696 L 394.4286,350.1696 L 394.4286,356.1696 L 388.4286,356.1696 z " style="fill: #edd400; fill-opacity: 1.00; stroke: none;" id="ezcGraphPolygon_109"/><g id="ezcGraphTextBox_3"><path d=" M 69.3000,42.0000 L 69.3000,0.5000 L 431.2000,0.5000 L 431.2000,42.0000 L 69.3000,42.0000 z " style="fill: #ffffff; fill-opacity: 0.00; stroke: none;" id="ezcGraphPolygon_110"/><text id="ezcGraphTextBox_3_text" x="69.8000" text-length="360.4000px" y="35.0000" style="font-size: 40px; font-family: 'Arial'; fill: #2e3436; fill-opacity: 1.00; stroke: none;">Kernel Major Ver.</text></g><g id="ezcGraphTextBox_6" style=" cursor: pointer;" onclick="top.location = 'https://linux-hardware.org/?view=computers&amp;f=os_kernel_major&amp;v=5.16&amp;p=99'"><path d=" M 16.5000,59.0000 L 16.5000,43.5000 L 52.7200,43.5000 L 52.7200,59.0000 L 16.5000,59.0000 z " style="fill: #ffffff; fill-opacity: 0.00; stroke: none;" id="ezcGraphPolygon_111"/><text id="ezcGraphTextBox_6_text" x="17.0000" text-length="34.7200px" y="55.9000" style="font-size: 14px; font-family: 'Arial'; fill: #2e3436; fill-opacity: 1.00; stroke: none;">5.16</text></g><g id="ezcGraphTextBox_8" style=" cursor: pointer;" onclick="top.location = 'https://linux-hardware.org/?view=computers&amp;f=os_kernel_major&amp;v=5.10&amp;p=99'"><path d=" M 16.5000,77.0000 L 16.5000,61.5000 L 52.7200,61.5000 L 52.7200,77.0000 L 16.5000,77.0000 z " style="fill: #ffffff; fill-opacity: 0.00; stroke: none;" id="ezcGraphPolygon_112"/><text id="ezcGraphTextBox_8_text" x="17.0000" text-length="34.7200px" y="73.9000" style="font-size: 14px; font-family: 'Arial'; fill: #2e3436; fill-opacity: 1.00; stroke: none;">5.10</text></g><g id="ezcGraphTextBox_10" style=" cursor: pointer;" onclick="top.location = 'https://linux-hardware.org/?view=computers&amp;f=os_kernel_major&amp;v=5.12&amp;p=99'"><path d=" M 16.5000,95.0000 L 16.5000,79.5000 L 52.7200,79.5000 L 52.7200,95.0000 L 16.5000,95.0000 z " style="fill: #ffffff; fill-opacity: 0.00; stroke: none;" id="ezcGraphPolygon_113"/><text id="ezcGraphTextBox_10_text" x="17.0000" text-length="34.7200px" y="91.9000" style="font-size: 14px; font-family: 'Arial'; fill: #2e3436; fill-opacity: 1.00; stroke: none;">5.12</text></g><g id="ezcGraphTextBox_12"><path d=" M 16.5000,113.0000 L 16.5000,97.5000 L 62.5200,97.5000 L 62.5200,113.0000 L 16.5000,113.0000 z " style="fill: #ffffff; fill-opacity: 0.00; stroke: none;" id="ezcGraphPolygon_114"/><text id="ezcGraphTextBox_12_text" x="17.0000" text-length="44.5200px" y="109.9000" style="font-size: 14px; font-family: 'Arial'; fill: #2e3436; fill-opacity: 1.00; stroke: none;">Others</text></g><g id="ezcGraphTextBox_15" transform="rotate( 0.00 493.0000 375.2000 )"><path d=" M 465.7000,381.2000 L 465.7000,367.7000 L 499.0000,367.7000 L 499.0000,381.2000 L 465.7000,381.2000 z " style="fill: #ffffff; fill-opacity: 0.00; stroke: none;" id="ezcGraphPolygon_115"/><text id="ezcGraphTextBox_15_text" x="466.2000" text-length="31.8000px" y="378.4000" style="font-size: 12px; font-family: 'Arial'; fill: #2e3436; fill-opacity: 1.00; stroke: none;">Time </text></g><g id="ezcGraphTextBox_16"><path d=" M 147.4771,409.3000 L 147.4771,383.7000 L 178.7371,383.7000 L 178.7371,409.3000 L 147.4771,409.3000 z " style="fill: #ffffff; fill-opacity: 0.00; stroke: none;" id="ezcGraphPolygon_116"/><text id="ezcGraphTextBox_16_text" x="153.3171" text-length="19.0800px" y="394.4000" style="font-size: 12px; font-family: 'Arial'; fill: #2e3436; fill-opacity: 1.00; stroke: none;">Mar</text><text id="ezcGraphTextBox_16_text" x="147.9771" text-length="29.7600px" y="407.6000" style="font-size: 12px; font-family: 'Arial'; fill: #2e3436; fill-opacity: 1.00; stroke: none;">2021</text></g><g id="ezcGraphTextBox_19"><path d=" M 193.1914,409.3000 L 193.1914,383.7000 L 224.4514,383.7000 L 224.4514,409.3000 L 193.1914,409.3000 z " style="fill: #ffffff; fill-opacity: 0.00; stroke: none;" id="ezcGraphPolygon_117"/><text id="ezcGraphTextBox_19_text" x="199.0314" text-length="19.0800px" y="394.4000" style="font-size: 12px; font-family: 'Arial'; fill: #2e3436; fill-opacity: 1.00; stroke: none;">May</text><text id="ezcGraphTextBox_19_text" x="193.6914" text-length="29.7600px" y="407.6000" style="font-size: 12px; font-family: 'Arial'; fill: #2e3436; fill-opacity: 1.00; stroke: none;">2021</text></g><g id="ezcGraphTextBox_22"><path d=" M 238.9057,409.3000 L 238.9057,383.7000 L 270.1657,383.7000 L 270.1657,409.3000 L 238.9057,409.3000 z " style="fill: #ffffff; fill-opacity: 0.00; stroke: none;" id="ezcGraphPolygon_118"/><text id="ezcGraphTextBox_22_text" x="244.7457" text-length="19.0800px" y="394.4000" style="font-size: 12px; font-family: 'Arial'; fill: #2e3436; fill-opacity: 1.00; stroke: none;">Jul</text><text id="ezcGraphTextBox_22_text" x="239.4057" text-length="29.7600px" y="407.6000" style="font-size: 12px; font-family: 'Arial'; fill: #2e3436; fill-opacity: 1.00; stroke: none;">2021</text></g><g id="ezcGraphTextBox_25"><path d=" M 284.6200,409.3000 L 284.6200,383.7000 L 315.8800,383.7000 L 315.8800,409.3000 L 284.6200,409.3000 z " style="fill: #ffffff; fill-opacity: 0.00; stroke: none;" id="ezcGraphPolygon_119"/><text id="ezcGraphTextBox_25_text" x="290.4600" text-length="19.0800px" y="394.4000" style="font-size: 12px; font-family: 'Arial'; fill: #2e3436; fill-opacity: 1.00; stroke: none;">Sep</text><text id="ezcGraphTextBox_25_text" x="285.1200" text-length="29.7600px" y="407.6000" style="font-size: 12px; font-family: 'Arial'; fill: #2e3436; fill-opacity: 1.00; stroke: none;">2021</text></g><g id="ezcGraphTextBox_28"><path d=" M 330.3343,409.3000 L 330.3343,383.7000 L 361.5943,383.7000 L 361.5943,409.3000 L 330.3343,409.3000 z " style="fill: #ffffff; fill-opacity: 0.00; stroke: none;" id="ezcGraphPolygon_120"/><text id="ezcGraphTextBox_28_text" x="336.1743" text-length="19.0800px" y="394.4000" style="font-size: 12px; font-family: 'Arial'; fill: #2e3436; fill-opacity: 1.00; stroke: none;">Nov</text><text id="ezcGraphTextBox_28_text" x="330.8343" text-length="29.7600px" y="407.6000" style="font-size: 12px; font-family: 'Arial'; fill: #2e3436; fill-opacity: 1.00; stroke: none;">2021</text></g><g id="ezcGraphTextBox_31"><path d=" M 376.0486,409.3000 L 376.0486,383.7000 L 407.3086,383.7000 L 407.3086,409.3000 L 376.0486,409.3000 z " style="fill: #ffffff; fill-opacity: 0.00; stroke: none;" id="ezcGraphPolygon_121"/><text id="ezcGraphTextBox_31_text" x="381.8886" text-length="19.0800px" y="394.4000" style="font-size: 12px; font-family: 'Arial'; fill: #2e3436; fill-opacity: 1.00; stroke: none;">Jan</text><text id="ezcGraphTextBox_31_text" x="376.5486" text-length="29.7600px" y="407.6000" style="font-size: 12px; font-family: 'Arial'; fill: #2e3436; fill-opacity: 1.00; stroke: none;">2022</text></g><g id="ezcGraphTextBox_34"><path d=" M 421.7629,409.3000 L 421.7629,383.7000 L 453.0229,383.7000 L 453.0229,409.3000 L 421.7629,409.3000 z " style="fill: #ffffff; fill-opacity: 0.00; stroke: none;" id="ezcGraphPolygon_122"/><text id="ezcGraphTextBox_34_text" x="427.6029" text-length="19.0800px" y="394.4000" style="font-size: 12px; font-family: 'Arial'; fill: #2e3436; fill-opacity: 1.00; stroke: none;">Mar</text><text id="ezcGraphTextBox_34_text" x="422.2629" text-length="29.7600px" y="407.6000" style="font-size: 12px; font-family: 'Arial'; fill: #2e3436; fill-opacity: 1.00; stroke: none;">2022</text></g><g id="ezcGraphTextBox_39" transform="rotate( 0.00 147.0000 49.0000 )"><path d=" M 141.5000,57.0000 L 141.5000,43.5000 L 378.3200,43.5000 L 378.3200,57.0000 L 141.5000,57.0000 z " style="fill: #ffffff; fill-opacity: 0.00; stroke: none;" id="ezcGraphPolygon_123"/><text id="ezcGraphTextBox_39_text" x="142.0000" text-length="235.3200px" y="54.2000" style="font-size: 12px; font-family: 'Arial'; fill: #2e3436; fill-opacity: 1.00; stroke: none;">Computers by "Kernel Major Ver." in %</text></g><g id="ezcGraphTextBox_40"><path d=" M 130.0600,381.2000 L 130.0600,367.7000 L 139.0000,367.7000 L 139.0000,381.2000 L 130.0600,381.2000 z " style="fill: #ffffff; fill-opacity: 0.00; stroke: none;" id="ezcGraphPolygon_124"/><text id="ezcGraphTextBox_40_text" x="130.5600" text-length="7.4400px" y="378.4000" style="font-size: 12px; font-family: 'Arial'; fill: #2e3436; fill-opacity: 1.00; stroke: none;">0</text></g><g id="ezcGraphTextBox_43"><path d=" M 122.6200,230.0000 L 122.6200,216.5000 L 139.0000,216.5000 L 139.0000,230.0000 L 122.6200,230.0000 z " style="fill: #ffffff; fill-opacity: 0.00; stroke: none;" id="ezcGraphPolygon_125"/><text id="ezcGraphTextBox_43_text" x="123.1200" text-length="14.8800px" y="227.2000" style="font-size: 12px; font-family: 'Arial'; fill: #2e3436; fill-opacity: 1.00; stroke: none;">50</text></g><g id="ezcGraphTextBox_46"><path d=" M 115.1800,94.8000 L 115.1800,81.3000 L 139.0000,81.3000 L 139.0000,94.8000 L 115.1800,94.8000 z " style="fill: #ffffff; fill-opacity: 0.00; stroke: none;" id="ezcGraphPolygon_126"/><text id="ezcGraphTextBox_46_text" x="115.6800" text-length="22.3200px" y="92.0000" style="font-size: 12px; font-family: 'Arial'; fill: #2e3436; fill-opacity: 1.00; stroke: none;">100</text></g><g id="ezcGraphTextBox_48"><path d=" M 381.6286,348.1696 L 381.6286,336.6696 L 401.7286,336.6696 L 401.7286,348.1696 L 381.6286,348.1696 z " style="fill: #ffffff; fill-opacity: 0.00; stroke: none;" id="ezcGraphPolygon_127"/><text id="ezcGraphTextBox_48_text" x="382.1286" text-length="18.6000px" y="345.6696" style="font-size: 10px; font-family: 'Arial'; fill: #2e3436; fill-opacity: 1.00; stroke: none;">9.6</text></g><g id="ezcGraphTextBox_50"><path d=" M 424.2429,114.4144 L 424.2429,102.9144 L 450.5429,102.9144 L 450.5429,114.4144 L 424.2429,114.4144 z " style="fill: #ffffff; fill-opacity: 0.00; stroke: none;" id="ezcGraphPolygon_128"/><text id="ezcGraphTextBox_50_text" x="424.7429" text-length="24.8000px" y="111.9144" style="font-size: 10px; font-family: 'Arial'; fill: #2e3436; fill-opacity: 1.00; stroke: none;">86.9</text></g><g id="ezcGraphTextBox_52"><path d=" M 149.9571,79.6384 L 149.9571,68.1384 L 176.2571,68.1384 L 176.2571,79.6384 L 149.9571,79.6384 z " style="fill: #ffffff; fill-opacity: 0.00; stroke: none;" id="ezcGraphPolygon_129"/><text id="ezcGraphTextBox_52_text" x="150.4571" text-length="24.8000px" y="77.1384" style="font-size: 10px; font-family: 'Arial'; fill: #2e3436; fill-opacity: 1.00; stroke: none;">98.4</text></g><g id="ezcGraphTextBox_54"><path d=" M 195.6714,135.5824 L 195.6714,124.0824 L 221.9714,124.0824 L 221.9714,135.5824 L 195.6714,135.5824 z " style="fill: #ffffff; fill-opacity: 0.00; stroke: none;" id="ezcGraphPolygon_130"/><text id="ezcGraphTextBox_54_text" x="196.1714" text-length="24.8000px" y="133.0824" style="font-size: 10px; font-family: 'Arial'; fill: #2e3436; fill-opacity: 1.00; stroke: none;">79.9</text></g><g id="ezcGraphTextBox_56"><path d=" M 241.3857,98.0848 L 241.3857,86.5848 L 267.6857,86.5848 L 267.6857,98.0848 L 241.3857,98.0848 z " style="fill: #ffffff; fill-opacity: 0.00; stroke: none;" id="ezcGraphPolygon_131"/><text id="ezcGraphTextBox_56_text" x="241.8857" text-length="24.8000px" y="95.5848" style="font-size: 10px; font-family: 'Arial'; fill: #2e3436; fill-opacity: 1.00; stroke: none;">92.3</text></g><g id="ezcGraphTextBox_58"><path d=" M 287.1000,115.3216 L 287.1000,103.8216 L 313.4000,103.8216 L 313.4000,115.3216 L 287.1000,115.3216 z " style="fill: #ffffff; fill-opacity: 0.00; stroke: none;" id="ezcGraphPolygon_132"/><text id="ezcGraphTextBox_58_text" x="287.6000" text-length="24.8000px" y="112.8216" style="font-size: 10px; font-family: 'Arial'; fill: #2e3436; fill-opacity: 1.00; stroke: none;">86.6</text></g><g id="ezcGraphTextBox_60"><path d=" M 332.8143,117.7408 L 332.8143,106.2408 L 359.1143,106.2408 L 359.1143,117.7408 L 332.8143,117.7408 z " style="fill: #ffffff; fill-opacity: 0.00; stroke: none;" id="ezcGraphPolygon_133"/><text id="ezcGraphTextBox_60_text" x="333.3143" text-length="24.8000px" y="115.2408" style="font-size: 10px; font-family: 'Arial'; fill: #2e3436; fill-opacity: 1.00; stroke: none;">85.8</text></g><g id="ezcGraphTextBox_62"><path d=" M 378.5286,135.8848 L 378.5286,124.3848 L 404.8286,124.3848 L 404.8286,135.8848 L 378.5286,135.8848 z " style="fill: #ffffff; fill-opacity: 0.00; stroke: none;" id="ezcGraphPolygon_134"/><text id="ezcGraphTextBox_62_text" x="379.0286" text-length="24.8000px" y="133.3848" style="font-size: 10px; font-family: 'Arial'; fill: #2e3436; fill-opacity: 1.00; stroke: none;">79.8</text></g><g id="ezcGraphTextBox_64"><path d=" M 424.2429,341.5168 L 424.2429,330.0168 L 450.5429,330.0168 L 450.5429,341.5168 L 424.2429,341.5168 z " style="fill: #ffffff; fill-opacity: 0.00; stroke: none;" id="ezcGraphPolygon_135"/><text id="ezcGraphTextBox_64_text" x="424.7429" text-length="24.8000px" y="339.0168" style="font-size: 10px; font-family: 'Arial'; fill: #2e3436; fill-opacity: 1.00; stroke: none;">11.8</text></g><g id="ezcGraphTextBox_66"><path d=" M 195.6714,326.6992 L 195.6714,315.1992 L 221.9714,315.1992 L 221.9714,326.6992 L 195.6714,326.6992 z " style="fill: #ffffff; fill-opacity: 0.00; stroke: none;" id="ezcGraphPolygon_136"/><text id="ezcGraphTextBox_66_text" x="196.1714" text-length="24.8000px" y="324.1992" style="font-size: 10px; font-family: 'Arial'; fill: #2e3436; fill-opacity: 1.00; stroke: none;">16.7</text></g><g id="ezcGraphTextBox_68"><path d=" M 244.4857,358.4512 L 244.4857,346.9512 L 264.5857,346.9512 L 264.5857,358.4512 L 244.4857,358.4512 z " style="fill: #ffffff; fill-opacity: 0.00; stroke: none;" id="ezcGraphPolygon_137"/><text id="ezcGraphTextBox_68_text" x="244.9857" text-length="18.6000px" y="355.9512" style="font-size: 10px; font-family: 'Arial'; fill: #2e3436; fill-opacity: 1.00; stroke: none;">6.2</text></g><g id="ezcGraphTextBox_70"><path d=" M 290.2000,359.3584 L 290.2000,347.8584 L 310.3000,347.8584 L 310.3000,359.3584 L 290.2000,359.3584 z " style="fill: #ffffff; fill-opacity: 0.00; stroke: none;" id="ezcGraphPolygon_138"/><text id="ezcGraphTextBox_70_text" x="290.7000" text-length="18.6000px" y="356.8584" style="font-size: 10px; font-family: 'Arial'; fill: #2e3436; fill-opacity: 1.00; stroke: none;">5.9</text></g><g id="ezcGraphTextBox_72"><path d=" M 335.9143,363.8944 L 335.9143,352.3944 L 356.0143,352.3944 L 356.0143,363.8944 L 335.9143,363.8944 z " style="fill: #ffffff; fill-opacity: 0.00; stroke: none;" id="ezcGraphPolygon_139"/><text id="ezcGraphTextBox_72_text" x="336.4143" text-length="18.6000px" y="361.3944" style="font-size: 10px; font-family: 'Arial'; fill: #2e3436; fill-opacity: 1.00; stroke: none;">4.4</text></g><g id="ezcGraphTextBox_74"><path d=" M 387.8286,374.1760 L 387.8286,362.6760 L 395.5286,362.6760 L 395.5286,374.1760 L 387.8286,374.1760 z " style="fill: #ffffff; fill-opacity: 0.00; stroke: none;" id="ezcGraphPolygon_140"/><text id="ezcGraphTextBox_74_text" x="388.3286" text-length="6.2000px" y="371.6760" style="font-size: 10px; font-family: 'Arial'; fill: #2e3436; fill-opacity: 1.00; stroke: none;">1</text></g><g id="ezcGraphTextBox_76"><path d=" M 427.3429,373.2688 L 427.3429,361.7688 L 447.4429,361.7688 L 447.4429,373.2688 L 427.3429,373.2688 z " style="fill: #ffffff; fill-opacity: 0.00; stroke: none;" id="ezcGraphPolygon_141"/><text id="ezcGraphTextBox_76_text" x="427.8429" text-length="18.6000px" y="370.7688" style="font-size: 10px; font-family: 'Arial'; fill: #2e3436; fill-opacity: 1.00; stroke: none;">1.3</text></g><g id="ezcGraphTextBox_78"><path d=" M 153.0571,372.3616 L 153.0571,360.8616 L 173.1571,360.8616 L 173.1571,372.3616 L 153.0571,372.3616 z " style="fill: #ffffff; fill-opacity: 0.00; stroke: none;" id="ezcGraphPolygon_142"/><text id="ezcGraphTextBox_78_text" x="153.5571" text-length="18.6000px" y="369.8616" style="font-size: 10px; font-family: 'Arial'; fill: #2e3436; fill-opacity: 1.00; stroke: none;">1.6</text></g><g id="ezcGraphTextBox_80"><path d=" M 198.7714,366.6160 L 198.7714,355.1160 L 218.8714,355.1160 L 218.8714,366.6160 L 198.7714,366.6160 z " style="fill: #ffffff; fill-opacity: 0.00; stroke: none;" id="ezcGraphPolygon_143"/><text id="ezcGraphTextBox_80_text" x="199.2714" text-length="18.6000px" y="364.1160" style="font-size: 10px; font-family: 'Arial'; fill: #2e3436; fill-opacity: 1.00; stroke: none;">3.5</text></g><g id="ezcGraphTextBox_82"><path d=" M 244.4857,372.6640 L 244.4857,361.1640 L 264.5857,361.1640 L 264.5857,372.6640 L 244.4857,372.6640 z " style="fill: #ffffff; fill-opacity: 0.00; stroke: none;" id="ezcGraphPolygon_144"/><text id="ezcGraphTextBox_82_text" x="244.9857" text-length="18.6000px" y="370.1640" style="font-size: 10px; font-family: 'Arial'; fill: #2e3436; fill-opacity: 1.00; stroke: none;">1.5</text></g><g id="ezcGraphTextBox_84"><path d=" M 290.2000,354.5200 L 290.2000,343.0200 L 310.3000,343.0200 L 310.3000,354.5200 L 290.2000,354.5200 z " style="fill: #ffffff; fill-opacity: 0.00; stroke: none;" id="ezcGraphPolygon_145"/><text id="ezcGraphTextBox_84_text" x="290.7000" text-length="18.6000px" y="352.0200" style="font-size: 10px; font-family: 'Arial'; fill: #2e3436; fill-opacity: 1.00; stroke: none;">7.5</text></g><g id="ezcGraphTextBox_86"><path d=" M 335.9143,347.2624 L 335.9143,335.7624 L 356.0143,335.7624 L 356.0143,347.2624 L 335.9143,347.2624 z " style="fill: #ffffff; fill-opacity: 0.00; stroke: none;" id="ezcGraphPolygon_146"/><text id="ezcGraphTextBox_86_text" x="336.4143" text-length="18.6000px" y="344.7624" style="font-size: 10px; font-family: 'Arial'; fill: #2e3436; fill-opacity: 1.00; stroke: none;">9.9</text></g><g id="ezcGraphTextBox_88"><path d=" M 381.6286,348.1696 L 381.6286,336.6696 L 401.7286,336.6696 L 401.7286,348.1696 L 381.6286,348.1696 z " style="fill: #ffffff; fill-opacity: 0.00; stroke: none;" id="ezcGraphPolygon_147"/><text id="ezcGraphTextBox_88_text" x="382.1286" text-length="18.6000px" y="345.6696" style="font-size: 10px; font-family: 'Arial'; fill: #2e3436; fill-opacity: 1.00; stroke: none;">9.6</text></g></g></svg>
