<?xml version="1.0"?>
<svg xmlns="http://www.w3.org/2000/svg" width="500" height="420" version="1.0" id="ezcGraph"><defs/><g id="ezcGraphChart" color-rendering="optimizeQuality" shape-rendering="geometricPrecision" text-rendering="optimizeLegibility"><path d=" M 0.0000,420.0000 L 0.0000,0.0000 L 500.0000,0.0000 L 500.0000,420.0000 L 0.0000,420.0000 z " style="fill: #eeeeec; fill-opacity: 1.00; stroke: none;" id="ezcGraphPolygon_1"/><path d=" M 0.0000,42.0000 L 0.0000,0.0000 L 500.0000,0.0000 L 500.0000,42.0000 L 0.0000,42.0000 z " style="fill: #000000; fill-opacity: 0.00; stroke: none;" id="ezcGraphPolygon_2"/><path d=" M 0.0000,420.0000 L 0.0000,42.0000 L 100.0000,42.0000 L 100.0000,420.0000 L 0.0000,420.0000 z " style="fill: #000000; fill-opacity: 0.00; stroke: none;" id="ezcGraphPolygon_4"/><path d=" M 2.0000,58.0000 L 2.0000,44.0000 L 16.0000,44.0000 L 16.0000,58.0000 L 2.0000,58.0000 z " style="fill: #3465a4; fill-opacity: 1.00; stroke: none; cursor: pointer;" id="ezcGraphPolygon_5" onclick="top.location = 'https://linux-hardware.org/?view=computers&amp;f=os_kernel_family&amp;v=5.16.7&amp;p=99'"/><path d=" M 2.0000,76.0000 L 2.0000,62.0000 L 16.0000,62.0000 L 16.0000,76.0000 L 2.0000,76.0000 z " style="fill: #4e9a06; fill-opacity: 1.00; stroke: none; cursor: pointer;" id="ezcGraphPolygon_7" onclick="top.location = 'https://linux-hardware.org/?view=computers&amp;f=os_kernel_family&amp;v=5.10.14&amp;p=99'"/><path d=" M 2.0000,94.0000 L 2.0000,80.0000 L 16.0000,80.0000 L 16.0000,94.0000 L 2.0000,94.0000 z " style="fill: #cc0000; fill-opacity: 1.00; stroke: none; cursor: pointer;" id="ezcGraphPolygon_9" onclick="top.location = 'https://linux-hardware.org/?view=computers&amp;f=os_kernel_family&amp;v=5.12.4&amp;p=99'"/><path d=" M 2.0000,112.0000 L 2.0000,98.0000 L 16.0000,98.0000 L 16.0000,112.0000 L 2.0000,112.0000 z " style="fill: #edd400; fill-opacity: 1.00; stroke: none; cursor: pointer;" id="ezcGraphPolygon_11" onclick="top.location = 'https://linux-hardware.org/?view=computers&amp;f=os_kernel_family&amp;v=5.16.13&amp;p=99'"/><path d=" M 2.0000,130.0000 L 2.0000,116.0000 L 16.0000,116.0000 L 16.0000,130.0000 L 2.0000,130.0000 z " style="fill: #75505b; fill-opacity: 1.00; stroke: none; cursor: pointer;" id="ezcGraphPolygon_13" onclick="top.location = 'https://linux-hardware.org/?view=computers&amp;f=os_kernel_family&amp;v=5.16.9&amp;p=99'"/><path d=" M 2.0000,148.0000 L 2.0000,134.0000 L 16.0000,134.0000 L 16.0000,148.0000 L 2.0000,148.0000 z " style="fill: #f57900; fill-opacity: 1.00; stroke: none;" id="ezcGraphPolygon_15"/><path d=" M 100.0000,382.2000 L 500.0000,382.2000" style="fill: none; stroke: #2e3436; stroke-width: 1; stroke-opacity: 1.00; stroke-linecap: round; stroke-linejoin: round;" id="ezcGraphLine_17"/><path d=" M 492.0000,378.2000 L 500.0000,382.2000 L 492.0000,386.2000 L 492.0000,378.2000 z " style="fill: #2e3436; fill-opacity: 1.00; stroke: none;" id="ezcGraphPolygon_18"/><path d=" M 185.7143,79.8000 L 185.7143,382.2000" style="fill: none; stroke: #000000; stroke-width: 1; stroke-opacity: 0.00; stroke-linecap: round; stroke-linejoin: round;" id="ezcGraphLine_21"/><path d=" M 185.7143,379.2000 L 185.7143,385.2000" style="fill: none; stroke: #2e3436; stroke-width: 1; stroke-opacity: 1.00; stroke-linecap: round; stroke-linejoin: round;" id="ezcGraphLine_22"/><path d=" M 231.4286,79.8000 L 231.4286,382.2000" style="fill: none; stroke: #000000; stroke-width: 1; stroke-opacity: 0.00; stroke-linecap: round; stroke-linejoin: round;" id="ezcGraphLine_24"/><path d=" M 231.4286,379.2000 L 231.4286,385.2000" style="fill: none; stroke: #2e3436; stroke-width: 1; stroke-opacity: 1.00; stroke-linecap: round; stroke-linejoin: round;" id="ezcGraphLine_25"/><path d=" M 277.1429,79.8000 L 277.1429,382.2000" style="fill: none; stroke: #000000; stroke-width: 1; stroke-opacity: 0.00; stroke-linecap: round; stroke-linejoin: round;" id="ezcGraphLine_27"/><path d=" M 277.1429,379.2000 L 277.1429,385.2000" style="fill: none; stroke: #2e3436; stroke-width: 1; stroke-opacity: 1.00; stroke-linecap: round; stroke-linejoin: round;" id="ezcGraphLine_28"/><path d=" M 322.8571,79.8000 L 322.8571,382.2000" style="fill: none; stroke: #000000; stroke-width: 1; stroke-opacity: 0.00; stroke-linecap: round; stroke-linejoin: round;" id="ezcGraphLine_30"/><path d=" M 322.8571,379.2000 L 322.8571,385.2000" style="fill: none; stroke: #2e3436; stroke-width: 1; stroke-opacity: 1.00; stroke-linecap: round; stroke-linejoin: round;" id="ezcGraphLine_31"/><path d=" M 368.5714,79.8000 L 368.5714,382.2000" style="fill: none; stroke: #000000; stroke-width: 1; stroke-opacity: 0.00; stroke-linecap: round; stroke-linejoin: round;" id="ezcGraphLine_33"/><path d=" M 368.5714,379.2000 L 368.5714,385.2000" style="fill: none; stroke: #2e3436; stroke-width: 1; stroke-opacity: 1.00; stroke-linecap: round; stroke-linejoin: round;" id="ezcGraphLine_34"/><path d=" M 414.2857,79.8000 L 414.2857,382.2000" style="fill: none; stroke: #000000; stroke-width: 1; stroke-opacity: 0.00; stroke-linecap: round; stroke-linejoin: round;" id="ezcGraphLine_36"/><path d=" M 414.2857,379.2000 L 414.2857,385.2000" style="fill: none; stroke: #2e3436; stroke-width: 1; stroke-opacity: 1.00; stroke-linecap: round; stroke-linejoin: round;" id="ezcGraphLine_37"/><path d=" M 460.0000,79.8000 L 460.0000,382.2000" style="fill: none; stroke: #000000; stroke-width: 1; stroke-opacity: 0.00; stroke-linecap: round; stroke-linejoin: round;" id="ezcGraphLine_39"/><path d=" M 460.0000,379.2000 L 460.0000,385.2000" style="fill: none; stroke: #2e3436; stroke-width: 1; stroke-opacity: 1.00; stroke-linecap: round; stroke-linejoin: round;" id="ezcGraphLine_40"/><path d=" M 140.0000,420.0000 L 140.0000,42.0000" style="fill: none; stroke: #2e3436; stroke-width: 1; stroke-opacity: 1.00; stroke-linecap: round; stroke-linejoin: round;" id="ezcGraphLine_41"/><path d=" M 136.0000,50.0000 L 140.0000,42.0000 L 144.0000,50.0000 L 136.0000,50.0000 z " style="fill: #2e3436; fill-opacity: 1.00; stroke: none;" id="ezcGraphPolygon_42"/><path d=" M 140.0000,231.0000 L 460.0000,231.0000" style="fill: none; stroke: #000000; stroke-width: 1; stroke-opacity: 0.00; stroke-linecap: round; stroke-linejoin: round;" id="ezcGraphLine_45"/><path d=" M 140.0000,231.0000 L 143.0000,231.0000" style="fill: none; stroke: #2e3436; stroke-width: 1; stroke-opacity: 1.00; stroke-linecap: round; stroke-linejoin: round;" id="ezcGraphLine_46"/><path d=" M 140.0000,79.8000 L 460.0000,79.8000" style="fill: none; stroke: #000000; stroke-width: 1; stroke-opacity: 0.00; stroke-linecap: round; stroke-linejoin: round;" id="ezcGraphLine_48"/><path d=" M 140.0000,79.8000 L 143.0000,79.8000" style="fill: none; stroke: #2e3436; stroke-width: 1; stroke-opacity: 1.00; stroke-linecap: round; stroke-linejoin: round;" id="ezcGraphLine_49"/><path d=" M 437.1429,124.5552 L 437.1429,124.5552" style="fill: none; stroke: #3465a4; stroke-width: 1; stroke-opacity: 1.00; stroke-linecap: round; stroke-linejoin: round;" id="ezcGraphLine_51"/><path d=" M 162.8571,85.2432 L 162.8571,85.2432" style="fill: none; stroke: #4e9a06; stroke-width: 1; stroke-opacity: 1.00; stroke-linecap: round; stroke-linejoin: round;" id="ezcGraphLine_53"/><path d=" M 162.8571,85.2432 L 208.5714,140.5824" style="fill: none; stroke: #4e9a06; stroke-width: 1; stroke-opacity: 1.00; stroke-linecap: round; stroke-linejoin: round;" id="ezcGraphLine_55"/><path d=" M 208.5714,140.5824 L 254.2857,103.0848" style="fill: none; stroke: #4e9a06; stroke-width: 1; stroke-opacity: 1.00; stroke-linecap: round; stroke-linejoin: round;" id="ezcGraphLine_57"/><path d=" M 254.2857,103.0848 L 300.0000,120.3216" style="fill: none; stroke: #4e9a06; stroke-width: 1; stroke-opacity: 1.00; stroke-linecap: round; stroke-linejoin: round;" id="ezcGraphLine_59"/><path d=" M 300.0000,120.3216 L 345.7143,122.7408" style="fill: none; stroke: #4e9a06; stroke-width: 1; stroke-opacity: 1.00; stroke-linecap: round; stroke-linejoin: round;" id="ezcGraphLine_61"/><path d=" M 345.7143,122.7408 L 391.4286,140.8848" style="fill: none; stroke: #4e9a06; stroke-width: 1; stroke-opacity: 1.00; stroke-linecap: round; stroke-linejoin: round;" id="ezcGraphLine_63"/><path d=" M 391.4286,140.8848 L 437.1429,346.5168" style="fill: none; stroke: #4e9a06; stroke-width: 1; stroke-opacity: 1.00; stroke-linecap: round; stroke-linejoin: round;" id="ezcGraphLine_65"/><path d=" M 208.5714,335.6304 L 208.5714,335.6304" style="fill: none; stroke: #cc0000; stroke-width: 1; stroke-opacity: 1.00; stroke-linecap: round; stroke-linejoin: round;" id="ezcGraphLine_67"/><path d=" M 208.5714,335.6304 L 254.2857,368.2896" style="fill: none; stroke: #cc0000; stroke-width: 1; stroke-opacity: 1.00; stroke-linecap: round; stroke-linejoin: round;" id="ezcGraphLine_69"/><path d=" M 254.2857,368.2896 L 300.0000,367.9872" style="fill: none; stroke: #cc0000; stroke-width: 1; stroke-opacity: 1.00; stroke-linecap: round; stroke-linejoin: round;" id="ezcGraphLine_71"/><path d=" M 300.0000,367.9872 L 345.7143,368.8944" style="fill: none; stroke: #cc0000; stroke-width: 1; stroke-opacity: 1.00; stroke-linecap: round; stroke-linejoin: round;" id="ezcGraphLine_73"/><path d=" M 345.7143,368.8944 L 391.4286,380.6880" style="fill: none; stroke: #cc0000; stroke-width: 1; stroke-opacity: 1.00; stroke-linecap: round; stroke-linejoin: round;" id="ezcGraphLine_75"/><path d=" M 391.4286,380.6880 L 437.1429,378.2688" style="fill: none; stroke: #cc0000; stroke-width: 1; stroke-opacity: 1.00; stroke-linecap: round; stroke-linejoin: round;" id="ezcGraphLine_77"/><path d=" M 437.1429,380.0832 L 437.1429,380.0832" style="fill: none; stroke: #edd400; stroke-width: 1; stroke-opacity: 1.00; stroke-linecap: round; stroke-linejoin: round;" id="ezcGraphLine_79"/><path d=" M 437.1429,381.2928 L 437.1429,381.2928" style="fill: none; stroke: #75505b; stroke-width: 1; stroke-opacity: 1.00; stroke-linecap: round; stroke-linejoin: round;" id="ezcGraphLine_81"/><path d=" M 162.8571,376.7568 L 162.8571,376.7568" style="fill: none; stroke: #f57900; stroke-width: 1; stroke-opacity: 1.00; stroke-linecap: round; stroke-linejoin: round;" id="ezcGraphLine_83"/><path d=" M 162.8571,376.7568 L 208.5714,367.6848" style="fill: none; stroke: #f57900; stroke-width: 1; stroke-opacity: 1.00; stroke-linecap: round; stroke-linejoin: round;" id="ezcGraphLine_85"/><path d=" M 208.5714,367.6848 L 254.2857,372.8256" style="fill: none; stroke: #f57900; stroke-width: 1; stroke-opacity: 1.00; stroke-linecap: round; stroke-linejoin: round;" id="ezcGraphLine_87"/><path d=" M 254.2857,372.8256 L 300.0000,355.8912" style="fill: none; stroke: #f57900; stroke-width: 1; stroke-opacity: 1.00; stroke-linecap: round; stroke-linejoin: round;" id="ezcGraphLine_89"/><path d=" M 300.0000,355.8912 L 345.7143,352.2624" style="fill: none; stroke: #f57900; stroke-width: 1; stroke-opacity: 1.00; stroke-linecap: round; stroke-linejoin: round;" id="ezcGraphLine_91"/><path d=" M 345.7143,352.2624 L 391.4286,322.6272" style="fill: none; stroke: #f57900; stroke-width: 1; stroke-opacity: 1.00; stroke-linecap: round; stroke-linejoin: round;" id="ezcGraphLine_93"/><path d=" M 391.4286,322.6272 L 437.1429,380.0832" style="fill: none; stroke: #f57900; stroke-width: 1; stroke-opacity: 1.00; stroke-linecap: round; stroke-linejoin: round;" id="ezcGraphLine_95"/><path d=" M 434.1429,127.5552 L 434.1429,121.5552 L 440.1429,121.5552 L 440.1429,127.5552 L 434.1429,127.5552 z " style="fill: #3465a4; fill-opacity: 1.00; stroke: none; cursor: pointer;" id="ezcGraphPolygon_97" onclick="top.location = 'https://linux-hardware.org/?view=computers&amp;f=os_kernel_family&amp;v=5.16.7&amp;p=99&amp;p=99'"/><path d=" M 159.8571,88.2432 L 159.8571,82.2432 L 165.8571,82.2432 L 165.8571,88.2432 L 159.8571,88.2432 z " style="fill: #4e9a06; fill-opacity: 1.00; stroke: none; cursor: pointer;" id="ezcGraphPolygon_98" onclick="top.location = 'https://linux-hardware.org/?view=computers&amp;f=os_kernel_family&amp;v=5.10.14&amp;p=99&amp;p=87'"/><path d=" M 205.5714,143.5824 L 205.5714,137.5824 L 211.5714,137.5824 L 211.5714,143.5824 L 205.5714,143.5824 z " style="fill: #4e9a06; fill-opacity: 1.00; stroke: none; cursor: pointer;" id="ezcGraphPolygon_99" onclick="top.location = 'https://linux-hardware.org/?view=computers&amp;f=os_kernel_family&amp;v=5.10.14&amp;p=99&amp;p=89'"/><path d=" M 251.2857,106.0848 L 251.2857,100.0848 L 257.2857,100.0848 L 257.2857,106.0848 L 251.2857,106.0848 z " style="fill: #4e9a06; fill-opacity: 1.00; stroke: none; cursor: pointer;" id="ezcGraphPolygon_100" onclick="top.location = 'https://linux-hardware.org/?view=computers&amp;f=os_kernel_family&amp;v=5.10.14&amp;p=99&amp;p=91'"/><path d=" M 297.0000,123.3216 L 297.0000,117.3216 L 303.0000,117.3216 L 303.0000,123.3216 L 297.0000,123.3216 z " style="fill: #4e9a06; fill-opacity: 1.00; stroke: none; cursor: pointer;" id="ezcGraphPolygon_101" onclick="top.location = 'https://linux-hardware.org/?view=computers&amp;f=os_kernel_family&amp;v=5.10.14&amp;p=99&amp;p=93'"/><path d=" M 342.7143,125.7408 L 342.7143,119.7408 L 348.7143,119.7408 L 348.7143,125.7408 L 342.7143,125.7408 z " style="fill: #4e9a06; fill-opacity: 1.00; stroke: none; cursor: pointer;" id="ezcGraphPolygon_102" onclick="top.location = 'https://linux-hardware.org/?view=computers&amp;f=os_kernel_family&amp;v=5.10.14&amp;p=99&amp;p=95'"/><path d=" M 388.4286,143.8848 L 388.4286,137.8848 L 394.4286,137.8848 L 394.4286,143.8848 L 388.4286,143.8848 z " style="fill: #4e9a06; fill-opacity: 1.00; stroke: none; cursor: pointer;" id="ezcGraphPolygon_103" onclick="top.location = 'https://linux-hardware.org/?view=computers&amp;f=os_kernel_family&amp;v=5.10.14&amp;p=99&amp;p=97'"/><path d=" M 434.1429,349.5168 L 434.1429,343.5168 L 440.1429,343.5168 L 440.1429,349.5168 L 434.1429,349.5168 z " style="fill: #4e9a06; fill-opacity: 1.00; stroke: none; cursor: pointer;" id="ezcGraphPolygon_104" onclick="top.location = 'https://linux-hardware.org/?view=computers&amp;f=os_kernel_family&amp;v=5.10.14&amp;p=99&amp;p=99'"/><path d=" M 205.5714,338.6304 L 205.5714,332.6304 L 211.5714,332.6304 L 211.5714,338.6304 L 205.5714,338.6304 z " style="fill: #cc0000; fill-opacity: 1.00; stroke: none; cursor: pointer;" id="ezcGraphPolygon_105" onclick="top.location = 'https://linux-hardware.org/?view=computers&amp;f=os_kernel_family&amp;v=5.12.4&amp;p=99&amp;p=89'"/><path d=" M 251.2857,371.2896 L 251.2857,365.2896 L 257.2857,365.2896 L 257.2857,371.2896 L 251.2857,371.2896 z " style="fill: #cc0000; fill-opacity: 1.00; stroke: none; cursor: pointer;" id="ezcGraphPolygon_106" onclick="top.location = 'https://linux-hardware.org/?view=computers&amp;f=os_kernel_family&amp;v=5.12.4&amp;p=99&amp;p=91'"/><path d=" M 297.0000,370.9872 L 297.0000,364.9872 L 303.0000,364.9872 L 303.0000,370.9872 L 297.0000,370.9872 z " style="fill: #cc0000; fill-opacity: 1.00; stroke: none; cursor: pointer;" id="ezcGraphPolygon_107" onclick="top.location = 'https://linux-hardware.org/?view=computers&amp;f=os_kernel_family&amp;v=5.12.4&amp;p=99&amp;p=93'"/><path d=" M 342.7143,371.8944 L 342.7143,365.8944 L 348.7143,365.8944 L 348.7143,371.8944 L 342.7143,371.8944 z " style="fill: #cc0000; fill-opacity: 1.00; stroke: none; cursor: pointer;" id="ezcGraphPolygon_108" onclick="top.location = 'https://linux-hardware.org/?view=computers&amp;f=os_kernel_family&amp;v=5.12.4&amp;p=99&amp;p=95'"/><path d=" M 388.4286,383.6880 L 388.4286,377.6880 L 394.4286,377.6880 L 394.4286,383.6880 L 388.4286,383.6880 z " style="fill: #cc0000; fill-opacity: 1.00; stroke: none; cursor: pointer;" id="ezcGraphPolygon_109" onclick="top.location = 'https://linux-hardware.org/?view=computers&amp;f=os_kernel_family&amp;v=5.12.4&amp;p=99&amp;p=97'"/><path d=" M 434.1429,381.2688 L 434.1429,375.2688 L 440.1429,375.2688 L 440.1429,381.2688 L 434.1429,381.2688 z " style="fill: #cc0000; fill-opacity: 1.00; stroke: none; cursor: pointer;" id="ezcGraphPolygon_110" onclick="top.location = 'https://linux-hardware.org/?view=computers&amp;f=os_kernel_family&amp;v=5.12.4&amp;p=99&amp;p=99'"/><path d=" M 434.1429,383.0832 L 434.1429,377.0832 L 440.1429,377.0832 L 440.1429,383.0832 L 434.1429,383.0832 z " style="fill: #edd400; fill-opacity: 1.00; stroke: none; cursor: pointer;" id="ezcGraphPolygon_111" onclick="top.location = 'https://linux-hardware.org/?view=computers&amp;f=os_kernel_family&amp;v=5.16.13&amp;p=99&amp;p=99'"/><path d=" M 434.1429,384.2928 L 434.1429,378.2928 L 440.1429,378.2928 L 440.1429,384.2928 L 434.1429,384.2928 z " style="fill: #75505b; fill-opacity: 1.00; stroke: none; cursor: pointer;" id="ezcGraphPolygon_112" onclick="top.location = 'https://linux-hardware.org/?view=computers&amp;f=os_kernel_family&amp;v=5.16.9&amp;p=99&amp;p=99'"/><path d=" M 159.8571,379.7568 L 159.8571,373.7568 L 165.8571,373.7568 L 165.8571,379.7568 L 159.8571,379.7568 z " style="fill: #f57900; fill-opacity: 1.00; stroke: none;" id="ezcGraphPolygon_113"/><path d=" M 205.5714,370.6848 L 205.5714,364.6848 L 211.5714,364.6848 L 211.5714,370.6848 L 205.5714,370.6848 z " style="fill: #f57900; fill-opacity: 1.00; stroke: none;" id="ezcGraphPolygon_114"/><path d=" M 251.2857,375.8256 L 251.2857,369.8256 L 257.2857,369.8256 L 257.2857,375.8256 L 251.2857,375.8256 z " style="fill: #f57900; fill-opacity: 1.00; stroke: none;" id="ezcGraphPolygon_115"/><path d=" M 297.0000,358.8912 L 297.0000,352.8912 L 303.0000,352.8912 L 303.0000,358.8912 L 297.0000,358.8912 z " style="fill: #f57900; fill-opacity: 1.00; stroke: none;" id="ezcGraphPolygon_116"/><path d=" M 342.7143,355.2624 L 342.7143,349.2624 L 348.7143,349.2624 L 348.7143,355.2624 L 342.7143,355.2624 z " style="fill: #f57900; fill-opacity: 1.00; stroke: none;" id="ezcGraphPolygon_117"/><path d=" M 388.4286,325.6272 L 388.4286,319.6272 L 394.4286,319.6272 L 394.4286,325.6272 L 388.4286,325.6272 z " style="fill: #f57900; fill-opacity: 1.00; stroke: none;" id="ezcGraphPolygon_118"/><path d=" M 434.1429,383.0832 L 434.1429,377.0832 L 440.1429,377.0832 L 440.1429,383.0832 L 434.1429,383.0832 z " style="fill: #f57900; fill-opacity: 1.00; stroke: none;" id="ezcGraphPolygon_119"/><g id="ezcGraphTextBox_3"><path d=" M 111.7000,42.0000 L 111.7000,0.5000 L 388.8000,0.5000 L 388.8000,42.0000 L 111.7000,42.0000 z " style="fill: #ffffff; fill-opacity: 0.00; stroke: none;" id="ezcGraphPolygon_120"/><text id="ezcGraphTextBox_3_text" x="112.2000" text-length="275.6000px" y="35.0000" style="font-size: 40px; font-family: 'Arial'; fill: #2e3436; fill-opacity: 1.00; stroke: none;">Kernel Family</text></g><g id="ezcGraphTextBox_6" style=" cursor: pointer;" onclick="top.location = 'https://linux-hardware.org/?view=computers&amp;f=os_kernel_family&amp;v=5.16.7&amp;p=99'"><path d=" M 16.5000,59.0000 L 16.5000,43.5000 L 62.5200,43.5000 L 62.5200,59.0000 L 16.5000,59.0000 z " style="fill: #ffffff; fill-opacity: 0.00; stroke: none;" id="ezcGraphPolygon_121"/><text id="ezcGraphTextBox_6_text" x="17.0000" text-length="44.5200px" y="55.9000" style="font-size: 14px; font-family: 'Arial'; fill: #2e3436; fill-opacity: 1.00; stroke: none;">5.16.7</text></g><g id="ezcGraphTextBox_8" style=" cursor: pointer;" onclick="top.location = 'https://linux-hardware.org/?view=computers&amp;f=os_kernel_family&amp;v=5.10.14&amp;p=99'"><path d=" M 16.5000,77.0000 L 16.5000,61.5000 L 69.9400,61.5000 L 69.9400,77.0000 L 16.5000,77.0000 z " style="fill: #ffffff; fill-opacity: 0.00; stroke: none;" id="ezcGraphPolygon_122"/><text id="ezcGraphTextBox_8_text" x="17.0000" text-length="51.9400px" y="73.9000" style="font-size: 14px; font-family: 'Arial'; fill: #2e3436; fill-opacity: 1.00; stroke: none;">5.10.14</text></g><g id="ezcGraphTextBox_10" style=" cursor: pointer;" onclick="top.location = 'https://linux-hardware.org/?view=computers&amp;f=os_kernel_family&amp;v=5.12.4&amp;p=99'"><path d=" M 16.5000,95.0000 L 16.5000,79.5000 L 62.5200,79.5000 L 62.5200,95.0000 L 16.5000,95.0000 z " style="fill: #ffffff; fill-opacity: 0.00; stroke: none;" id="ezcGraphPolygon_123"/><text id="ezcGraphTextBox_10_text" x="17.0000" text-length="44.5200px" y="91.9000" style="font-size: 14px; font-family: 'Arial'; fill: #2e3436; fill-opacity: 1.00; stroke: none;">5.12.4</text></g><g id="ezcGraphTextBox_12" style=" cursor: pointer;" onclick="top.location = 'https://linux-hardware.org/?view=computers&amp;f=os_kernel_family&amp;v=5.16.13&amp;p=99'"><path d=" M 16.5000,113.0000 L 16.5000,97.5000 L 69.9400,97.5000 L 69.9400,113.0000 L 16.5000,113.0000 z " style="fill: #ffffff; fill-opacity: 0.00; stroke: none;" id="ezcGraphPolygon_124"/><text id="ezcGraphTextBox_12_text" x="17.0000" text-length="51.9400px" y="109.9000" style="font-size: 14px; font-family: 'Arial'; fill: #2e3436; fill-opacity: 1.00; stroke: none;">5.16.13</text></g><g id="ezcGraphTextBox_14" style=" cursor: pointer;" onclick="top.location = 'https://linux-hardware.org/?view=computers&amp;f=os_kernel_family&amp;v=5.16.9&amp;p=99'"><path d=" M 16.5000,131.0000 L 16.5000,115.5000 L 62.5200,115.5000 L 62.5200,131.0000 L 16.5000,131.0000 z " style="fill: #ffffff; fill-opacity: 0.00; stroke: none;" id="ezcGraphPolygon_125"/><text id="ezcGraphTextBox_14_text" x="17.0000" text-length="44.5200px" y="127.9000" style="font-size: 14px; font-family: 'Arial'; fill: #2e3436; fill-opacity: 1.00; stroke: none;">5.16.9</text></g><g id="ezcGraphTextBox_16"><path d=" M 16.5000,149.0000 L 16.5000,133.5000 L 62.5200,133.5000 L 62.5200,149.0000 L 16.5000,149.0000 z " style="fill: #ffffff; fill-opacity: 0.00; stroke: none;" id="ezcGraphPolygon_126"/><text id="ezcGraphTextBox_16_text" x="17.0000" text-length="44.5200px" y="145.9000" style="font-size: 14px; font-family: 'Arial'; fill: #2e3436; fill-opacity: 1.00; stroke: none;">Others</text></g><g id="ezcGraphTextBox_19" transform="rotate( 0.00 493.0000 375.2000 )"><path d=" M 460.4000,381.2000 L 460.4000,365.7000 L 499.0000,365.7000 L 499.0000,381.2000 L 460.4000,381.2000 z " style="fill: #ffffff; fill-opacity: 0.00; stroke: none;" id="ezcGraphPolygon_127"/><text id="ezcGraphTextBox_19_text" x="460.9000" text-length="37.1000px" y="378.1000" style="font-size: 14px; font-family: 'Arial'; fill: #2e3436; fill-opacity: 1.00; stroke: none;">Time </text></g><g id="ezcGraphTextBox_20"><path d=" M 144.9971,413.3000 L 144.9971,383.7000 L 181.2171,383.7000 L 181.2171,413.3000 L 144.9971,413.3000 z " style="fill: #ffffff; fill-opacity: 0.00; stroke: none;" id="ezcGraphPolygon_128"/><text id="ezcGraphTextBox_20_text" x="151.7271" text-length="22.2600px" y="396.1000" style="font-size: 14px; font-family: 'Arial'; fill: #2e3436; fill-opacity: 1.00; stroke: none;">Mar</text><text id="ezcGraphTextBox_20_text" x="145.4971" text-length="34.7200px" y="411.5000" style="font-size: 14px; font-family: 'Arial'; fill: #2e3436; fill-opacity: 1.00; stroke: none;">2021</text></g><g id="ezcGraphTextBox_23"><path d=" M 190.7114,413.3000 L 190.7114,383.7000 L 226.9314,383.7000 L 226.9314,413.3000 L 190.7114,413.3000 z " style="fill: #ffffff; fill-opacity: 0.00; stroke: none;" id="ezcGraphPolygon_129"/><text id="ezcGraphTextBox_23_text" x="197.4414" text-length="22.2600px" y="396.1000" style="font-size: 14px; font-family: 'Arial'; fill: #2e3436; fill-opacity: 1.00; stroke: none;">May</text><text id="ezcGraphTextBox_23_text" x="191.2114" text-length="34.7200px" y="411.5000" style="font-size: 14px; font-family: 'Arial'; fill: #2e3436; fill-opacity: 1.00; stroke: none;">2021</text></g><g id="ezcGraphTextBox_26"><path d=" M 236.4257,413.3000 L 236.4257,383.7000 L 272.6457,383.7000 L 272.6457,413.3000 L 236.4257,413.3000 z " style="fill: #ffffff; fill-opacity: 0.00; stroke: none;" id="ezcGraphPolygon_130"/><text id="ezcGraphTextBox_26_text" x="243.1557" text-length="22.2600px" y="396.1000" style="font-size: 14px; font-family: 'Arial'; fill: #2e3436; fill-opacity: 1.00; stroke: none;">Jul</text><text id="ezcGraphTextBox_26_text" x="236.9257" text-length="34.7200px" y="411.5000" style="font-size: 14px; font-family: 'Arial'; fill: #2e3436; fill-opacity: 1.00; stroke: none;">2021</text></g><g id="ezcGraphTextBox_29"><path d=" M 282.1400,413.3000 L 282.1400,383.7000 L 318.3600,383.7000 L 318.3600,413.3000 L 282.1400,413.3000 z " style="fill: #ffffff; fill-opacity: 0.00; stroke: none;" id="ezcGraphPolygon_131"/><text id="ezcGraphTextBox_29_text" x="288.8700" text-length="22.2600px" y="396.1000" style="font-size: 14px; font-family: 'Arial'; fill: #2e3436; fill-opacity: 1.00; stroke: none;">Sep</text><text id="ezcGraphTextBox_29_text" x="282.6400" text-length="34.7200px" y="411.5000" style="font-size: 14px; font-family: 'Arial'; fill: #2e3436; fill-opacity: 1.00; stroke: none;">2021</text></g><g id="ezcGraphTextBox_32"><path d=" M 327.8543,413.3000 L 327.8543,383.7000 L 364.0743,383.7000 L 364.0743,413.3000 L 327.8543,413.3000 z " style="fill: #ffffff; fill-opacity: 0.00; stroke: none;" id="ezcGraphPolygon_132"/><text id="ezcGraphTextBox_32_text" x="334.5843" text-length="22.2600px" y="396.1000" style="font-size: 14px; font-family: 'Arial'; fill: #2e3436; fill-opacity: 1.00; stroke: none;">Nov</text><text id="ezcGraphTextBox_32_text" x="328.3543" text-length="34.7200px" y="411.5000" style="font-size: 14px; font-family: 'Arial'; fill: #2e3436; fill-opacity: 1.00; stroke: none;">2021</text></g><g id="ezcGraphTextBox_35"><path d=" M 373.5686,413.3000 L 373.5686,383.7000 L 409.7886,383.7000 L 409.7886,413.3000 L 373.5686,413.3000 z " style="fill: #ffffff; fill-opacity: 0.00; stroke: none;" id="ezcGraphPolygon_133"/><text id="ezcGraphTextBox_35_text" x="380.2986" text-length="22.2600px" y="396.1000" style="font-size: 14px; font-family: 'Arial'; fill: #2e3436; fill-opacity: 1.00; stroke: none;">Jan</text><text id="ezcGraphTextBox_35_text" x="374.0686" text-length="34.7200px" y="411.5000" style="font-size: 14px; font-family: 'Arial'; fill: #2e3436; fill-opacity: 1.00; stroke: none;">2022</text></g><g id="ezcGraphTextBox_38"><path d=" M 419.2829,413.3000 L 419.2829,383.7000 L 455.5029,383.7000 L 455.5029,413.3000 L 419.2829,413.3000 z " style="fill: #ffffff; fill-opacity: 0.00; stroke: none;" id="ezcGraphPolygon_134"/><text id="ezcGraphTextBox_38_text" x="426.0129" text-length="22.2600px" y="396.1000" style="font-size: 14px; font-family: 'Arial'; fill: #2e3436; fill-opacity: 1.00; stroke: none;">Mar</text><text id="ezcGraphTextBox_38_text" x="419.7829" text-length="34.7200px" y="411.5000" style="font-size: 14px; font-family: 'Arial'; fill: #2e3436; fill-opacity: 1.00; stroke: none;">2022</text></g><g id="ezcGraphTextBox_43" transform="rotate( 0.00 147.0000 49.0000 )"><path d=" M 141.5000,59.0000 L 141.5000,43.5000 L 387.8600,43.5000 L 387.8600,59.0000 L 141.5000,59.0000 z " style="fill: #ffffff; fill-opacity: 0.00; stroke: none;" id="ezcGraphPolygon_135"/><text id="ezcGraphTextBox_43_text" x="142.0000" text-length="244.8600px" y="55.9000" style="font-size: 14px; font-family: 'Arial'; fill: #2e3436; fill-opacity: 1.00; stroke: none;">Computers by "Kernel Family" in %</text></g><g id="ezcGraphTextBox_44"><path d=" M 128.8200,381.2000 L 128.8200,365.7000 L 139.0000,365.7000 L 139.0000,381.2000 L 128.8200,381.2000 z " style="fill: #ffffff; fill-opacity: 0.00; stroke: none;" id="ezcGraphPolygon_136"/><text id="ezcGraphTextBox_44_text" x="129.3200" text-length="8.6800px" y="378.1000" style="font-size: 14px; font-family: 'Arial'; fill: #2e3436; fill-opacity: 1.00; stroke: none;">0</text></g><g id="ezcGraphTextBox_47"><path d=" M 120.1400,230.0000 L 120.1400,214.5000 L 139.0000,214.5000 L 139.0000,230.0000 L 120.1400,230.0000 z " style="fill: #ffffff; fill-opacity: 0.00; stroke: none;" id="ezcGraphPolygon_137"/><text id="ezcGraphTextBox_47_text" x="120.6400" text-length="17.3600px" y="226.9000" style="font-size: 14px; font-family: 'Arial'; fill: #2e3436; fill-opacity: 1.00; stroke: none;">50</text></g><g id="ezcGraphTextBox_50"><path d=" M 111.4600,96.8000 L 111.4600,81.3000 L 139.0000,81.3000 L 139.0000,96.8000 L 111.4600,96.8000 z " style="fill: #ffffff; fill-opacity: 0.00; stroke: none;" id="ezcGraphPolygon_138"/><text id="ezcGraphTextBox_50_text" x="111.9600" text-length="26.0400px" y="93.7000" style="font-size: 14px; font-family: 'Arial'; fill: #2e3436; fill-opacity: 1.00; stroke: none;">100</text></g><g id="ezcGraphTextBox_52"><path d=" M 424.2429,119.5552 L 424.2429,108.0552 L 450.5429,108.0552 L 450.5429,119.5552 L 424.2429,119.5552 z " style="fill: #ffffff; fill-opacity: 0.00; stroke: none;" id="ezcGraphPolygon_139"/><text id="ezcGraphTextBox_52_text" x="424.7429" text-length="24.8000px" y="117.0552" style="font-size: 10px; font-family: 'Arial'; fill: #2e3436; fill-opacity: 1.00; stroke: none;">85.2</text></g><g id="ezcGraphTextBox_54"><path d=" M 149.9571,80.2432 L 149.9571,68.7432 L 176.2571,68.7432 L 176.2571,80.2432 L 149.9571,80.2432 z " style="fill: #ffffff; fill-opacity: 0.00; stroke: none;" id="ezcGraphPolygon_140"/><text id="ezcGraphTextBox_54_text" x="150.4571" text-length="24.8000px" y="77.7432" style="font-size: 10px; font-family: 'Arial'; fill: #2e3436; fill-opacity: 1.00; stroke: none;">98.2</text></g><g id="ezcGraphTextBox_56"><path d=" M 195.6714,135.5824 L 195.6714,124.0824 L 221.9714,124.0824 L 221.9714,135.5824 L 195.6714,135.5824 z " style="fill: #ffffff; fill-opacity: 0.00; stroke: none;" id="ezcGraphPolygon_141"/><text id="ezcGraphTextBox_56_text" x="196.1714" text-length="24.8000px" y="133.0824" style="font-size: 10px; font-family: 'Arial'; fill: #2e3436; fill-opacity: 1.00; stroke: none;">79.9</text></g><g id="ezcGraphTextBox_58"><path d=" M 241.3857,98.0848 L 241.3857,86.5848 L 267.6857,86.5848 L 267.6857,98.0848 L 241.3857,98.0848 z " style="fill: #ffffff; fill-opacity: 0.00; stroke: none;" id="ezcGraphPolygon_142"/><text id="ezcGraphTextBox_58_text" x="241.8857" text-length="24.8000px" y="95.5848" style="font-size: 10px; font-family: 'Arial'; fill: #2e3436; fill-opacity: 1.00; stroke: none;">92.3</text></g><g id="ezcGraphTextBox_60"><path d=" M 287.1000,115.3216 L 287.1000,103.8216 L 313.4000,103.8216 L 313.4000,115.3216 L 287.1000,115.3216 z " style="fill: #ffffff; fill-opacity: 0.00; stroke: none;" id="ezcGraphPolygon_143"/><text id="ezcGraphTextBox_60_text" x="287.6000" text-length="24.8000px" y="112.8216" style="font-size: 10px; font-family: 'Arial'; fill: #2e3436; fill-opacity: 1.00; stroke: none;">86.6</text></g><g id="ezcGraphTextBox_62"><path d=" M 332.8143,117.7408 L 332.8143,106.2408 L 359.1143,106.2408 L 359.1143,117.7408 L 332.8143,117.7408 z " style="fill: #ffffff; fill-opacity: 0.00; stroke: none;" id="ezcGraphPolygon_144"/><text id="ezcGraphTextBox_62_text" x="333.3143" text-length="24.8000px" y="115.2408" style="font-size: 10px; font-family: 'Arial'; fill: #2e3436; fill-opacity: 1.00; stroke: none;">85.8</text></g><g id="ezcGraphTextBox_64"><path d=" M 378.5286,135.8848 L 378.5286,124.3848 L 404.8286,124.3848 L 404.8286,135.8848 L 378.5286,135.8848 z " style="fill: #ffffff; fill-opacity: 0.00; stroke: none;" id="ezcGraphPolygon_145"/><text id="ezcGraphTextBox_64_text" x="379.0286" text-length="24.8000px" y="133.3848" style="font-size: 10px; font-family: 'Arial'; fill: #2e3436; fill-opacity: 1.00; stroke: none;">79.8</text></g><g id="ezcGraphTextBox_66"><path d=" M 424.2429,341.5168 L 424.2429,330.0168 L 450.5429,330.0168 L 450.5429,341.5168 L 424.2429,341.5168 z " style="fill: #ffffff; fill-opacity: 0.00; stroke: none;" id="ezcGraphPolygon_146"/><text id="ezcGraphTextBox_66_text" x="424.7429" text-length="24.8000px" y="339.0168" style="font-size: 10px; font-family: 'Arial'; fill: #2e3436; fill-opacity: 1.00; stroke: none;">11.8</text></g><g id="ezcGraphTextBox_68"><path d=" M 195.6714,330.6304 L 195.6714,319.1304 L 221.9714,319.1304 L 221.9714,330.6304 L 195.6714,330.6304 z " style="fill: #ffffff; fill-opacity: 0.00; stroke: none;" id="ezcGraphPolygon_147"/><text id="ezcGraphTextBox_68_text" x="196.1714" text-length="24.8000px" y="328.1304" style="font-size: 10px; font-family: 'Arial'; fill: #2e3436; fill-opacity: 1.00; stroke: none;">15.4</text></g><g id="ezcGraphTextBox_70"><path d=" M 244.4857,363.2896 L 244.4857,351.7896 L 264.5857,351.7896 L 264.5857,363.2896 L 244.4857,363.2896 z " style="fill: #ffffff; fill-opacity: 0.00; stroke: none;" id="ezcGraphPolygon_148"/><text id="ezcGraphTextBox_70_text" x="244.9857" text-length="18.6000px" y="360.7896" style="font-size: 10px; font-family: 'Arial'; fill: #2e3436; fill-opacity: 1.00; stroke: none;">4.6</text></g><g id="ezcGraphTextBox_72"><path d=" M 290.2000,362.9872 L 290.2000,351.4872 L 310.3000,351.4872 L 310.3000,362.9872 L 290.2000,362.9872 z " style="fill: #ffffff; fill-opacity: 0.00; stroke: none;" id="ezcGraphPolygon_149"/><text id="ezcGraphTextBox_72_text" x="290.7000" text-length="18.6000px" y="360.4872" style="font-size: 10px; font-family: 'Arial'; fill: #2e3436; fill-opacity: 1.00; stroke: none;">4.7</text></g><g id="ezcGraphTextBox_74"><path d=" M 335.9143,363.8944 L 335.9143,352.3944 L 356.0143,352.3944 L 356.0143,363.8944 L 335.9143,363.8944 z " style="fill: #ffffff; fill-opacity: 0.00; stroke: none;" id="ezcGraphPolygon_150"/><text id="ezcGraphTextBox_74_text" x="336.4143" text-length="18.6000px" y="361.3944" style="font-size: 10px; font-family: 'Arial'; fill: #2e3436; fill-opacity: 1.00; stroke: none;">4.4</text></g><g id="ezcGraphTextBox_76"><path d=" M 381.6286,375.6880 L 381.6286,364.1880 L 401.7286,364.1880 L 401.7286,375.6880 L 381.6286,375.6880 z " style="fill: #ffffff; fill-opacity: 0.00; stroke: none;" id="ezcGraphPolygon_151"/><text id="ezcGraphTextBox_76_text" x="382.1286" text-length="18.6000px" y="373.1880" style="font-size: 10px; font-family: 'Arial'; fill: #2e3436; fill-opacity: 1.00; stroke: none;">0.5</text></g><g id="ezcGraphTextBox_78"><path d=" M 427.3429,373.2688 L 427.3429,361.7688 L 447.4429,361.7688 L 447.4429,373.2688 L 427.3429,373.2688 z " style="fill: #ffffff; fill-opacity: 0.00; stroke: none;" id="ezcGraphPolygon_152"/><text id="ezcGraphTextBox_78_text" x="427.8429" text-length="18.6000px" y="370.7688" style="font-size: 10px; font-family: 'Arial'; fill: #2e3436; fill-opacity: 1.00; stroke: none;">1.3</text></g><g id="ezcGraphTextBox_80"><path d=" M 427.3429,375.0832 L 427.3429,363.5832 L 447.4429,363.5832 L 447.4429,375.0832 L 427.3429,375.0832 z " style="fill: #ffffff; fill-opacity: 0.00; stroke: none;" id="ezcGraphPolygon_153"/><text id="ezcGraphTextBox_80_text" x="427.8429" text-length="18.6000px" y="372.5832" style="font-size: 10px; font-family: 'Arial'; fill: #2e3436; fill-opacity: 1.00; stroke: none;">0.7</text></g><g id="ezcGraphTextBox_82"><path d=" M 427.3429,376.2928 L 427.3429,364.7928 L 447.4429,364.7928 L 447.4429,376.2928 L 427.3429,376.2928 z " style="fill: #ffffff; fill-opacity: 0.00; stroke: none;" id="ezcGraphPolygon_154"/><text id="ezcGraphTextBox_82_text" x="427.8429" text-length="18.6000px" y="373.7928" style="font-size: 10px; font-family: 'Arial'; fill: #2e3436; fill-opacity: 1.00; stroke: none;">0.3</text></g><g id="ezcGraphTextBox_84"><path d=" M 153.0571,371.7568 L 153.0571,360.2568 L 173.1571,360.2568 L 173.1571,371.7568 L 153.0571,371.7568 z " style="fill: #ffffff; fill-opacity: 0.00; stroke: none;" id="ezcGraphPolygon_155"/><text id="ezcGraphTextBox_84_text" x="153.5571" text-length="18.6000px" y="369.2568" style="font-size: 10px; font-family: 'Arial'; fill: #2e3436; fill-opacity: 1.00; stroke: none;">1.8</text></g><g id="ezcGraphTextBox_86"><path d=" M 198.7714,362.6848 L 198.7714,351.1848 L 218.8714,351.1848 L 218.8714,362.6848 L 198.7714,362.6848 z " style="fill: #ffffff; fill-opacity: 0.00; stroke: none;" id="ezcGraphPolygon_156"/><text id="ezcGraphTextBox_86_text" x="199.2714" text-length="18.6000px" y="360.1848" style="font-size: 10px; font-family: 'Arial'; fill: #2e3436; fill-opacity: 1.00; stroke: none;">4.8</text></g><g id="ezcGraphTextBox_88"><path d=" M 244.4857,367.8256 L 244.4857,356.3256 L 264.5857,356.3256 L 264.5857,367.8256 L 244.4857,367.8256 z " style="fill: #ffffff; fill-opacity: 0.00; stroke: none;" id="ezcGraphPolygon_157"/><text id="ezcGraphTextBox_88_text" x="244.9857" text-length="18.6000px" y="365.3256" style="font-size: 10px; font-family: 'Arial'; fill: #2e3436; fill-opacity: 1.00; stroke: none;">3.1</text></g><g id="ezcGraphTextBox_90"><path d=" M 290.2000,350.8912 L 290.2000,339.3912 L 310.3000,339.3912 L 310.3000,350.8912 L 290.2000,350.8912 z " style="fill: #ffffff; fill-opacity: 0.00; stroke: none;" id="ezcGraphPolygon_158"/><text id="ezcGraphTextBox_90_text" x="290.7000" text-length="18.6000px" y="348.3912" style="font-size: 10px; font-family: 'Arial'; fill: #2e3436; fill-opacity: 1.00; stroke: none;">8.7</text></g><g id="ezcGraphTextBox_92"><path d=" M 335.9143,347.2624 L 335.9143,335.7624 L 356.0143,335.7624 L 356.0143,347.2624 L 335.9143,347.2624 z " style="fill: #ffffff; fill-opacity: 0.00; stroke: none;" id="ezcGraphPolygon_159"/><text id="ezcGraphTextBox_92_text" x="336.4143" text-length="18.6000px" y="344.7624" style="font-size: 10px; font-family: 'Arial'; fill: #2e3436; fill-opacity: 1.00; stroke: none;">9.9</text></g><g id="ezcGraphTextBox_94"><path d=" M 378.5286,317.6272 L 378.5286,306.1272 L 404.8286,306.1272 L 404.8286,317.6272 L 378.5286,317.6272 z " style="fill: #ffffff; fill-opacity: 0.00; stroke: none;" id="ezcGraphPolygon_160"/><text id="ezcGraphTextBox_94_text" x="379.0286" text-length="24.8000px" y="315.1272" style="font-size: 10px; font-family: 'Arial'; fill: #2e3436; fill-opacity: 1.00; stroke: none;">19.7</text></g><g id="ezcGraphTextBox_96"><path d=" M 427.3429,375.0832 L 427.3429,363.5832 L 447.4429,363.5832 L 447.4429,375.0832 L 427.3429,375.0832 z " style="fill: #ffffff; fill-opacity: 0.00; stroke: none;" id="ezcGraphPolygon_161"/><text id="ezcGraphTextBox_96_text" x="427.8429" text-length="18.6000px" y="372.5832" style="font-size: 10px; font-family: 'Arial'; fill: #2e3436; fill-opacity: 1.00; stroke: none;">0.7</text></g></g></svg>
